STARTFONT 2.1
FONT -FontForge-Helvetica-Bold-R-Normal--104-1000-75-75-P-579-ISO10646-1
SIZE 100 75 75
FONTBOUNDINGBOX 121 124 -17 -24
COMMENT "Generated by fontforge, http://fontforge.sourceforge.net"
COMMENT "Copyright (c) 1985, 1987, 1989, 1990 Adobe Systems Incorporated.  All Rights Reserved.Helvetica is a trademark of Linotype AG and/or its subsidiaries."
STARTPROPERTIES 40
FOUNDRY "FontForge"
FAMILY_NAME "Helvetica"
WEIGHT_NAME "Bold"
SLANT "R"
SETWIDTH_NAME "Normal"
ADD_STYLE_NAME ""
PIXEL_SIZE 104
POINT_SIZE 1000
RESOLUTION_X 75
RESOLUTION_Y 75
SPACING "P"
AVERAGE_WIDTH 579
CHARSET_REGISTRY "ISO10646"
CHARSET_ENCODING "1"
FONTNAME_REGISTRY ""
CHARSET_COLLECTIONS "ISO10646-1"
FONT_NAME "Helvetica-Bold"
FACE_NAME "Helvetica Bold"
COPYRIGHT "Copyright (c) 1985, 1987, 1989, 1990 Adobe Systems Incorporated.  All Rights Reserved.Helvetica is a trademark of Linotype AG and/or its subsidiaries."
FONT_VERSION "001.007"
FONT_ASCENT 83
FONT_DESCENT 21
UNDERLINE_POSITION -10
UNDERLINE_THICKNESS 6
X_HEIGHT 54
CAP_HEIGHT 74
RAW_ASCENT 800
RAW_DESCENT 200
NORM_SPACE 29
RELATIVE_WEIGHT 70
RELATIVE_SETWIDTH 50
SUPERSCRIPT_X 0
SUPERSCRIPT_Y 52
SUPERSCRIPT_SIZE 67
SUBSCRIPT_X 0
SUBSCRIPT_Y 15
SUBSCRIPT_SIZE 67
FIGURE_WIDTH 58
AVG_LOWERCASE_WIDTH 572
AVG_UPPERCASE_WIDTH 709
ENDPROPERTIES
CHARS 229
STARTCHAR space
ENCODING 32
SWIDTH 278 0
DWIDTH 29 0
BBX 1 1 0 0
BITMAP
00
ENDCHAR
STARTCHAR exclam
ENCODING 33
SWIDTH 333 0
DWIDTH 35 0
BBX 16 75 9 0
BITMAP
FFFF
FFFF
FFFF
FFFF
FFFF
FFFF
FFFF
FFFF
FFFF
FFFF
FFFF
FFFF
FFFF
FFFF
FFFF
FFFF
FFFF
FFFF
FFFF
FFFF
7FFF
7FFF
7FFF
7FFF
7FFF
7FFF
7FFE
7FFE
7FFE
3FFE
3FFE
3FFE
3FFE
3FFE
3FFE
3FFC
3FFC
1FFC
1FFC
1FFC
1FFC
1FFC
1FFC
1FF8
1FF8
1FF8
0FF8
0FF8
0FF8
0FF8
0FF8
0FF8
0FF0
0FF0
0000
0000
0000
0000
0000
0000
7FFF
7FFF
7FFF
7FFF
7FFF
7FFF
7FFF
7FFF
7FFF
7FFF
7FFF
7FFF
7FFF
7FFF
7FFF
ENDCHAR
STARTCHAR quotedbl
ENCODING 34
SWIDTH 474 0
DWIDTH 49 0
BBX 29 28 10 47
BITMAP
FFC01FF8
FFC01FF8
FFC01FF8
FFC01FF8
FFC01FF8
FFC01FF8
FFC01FF8
FFC01FF8
FFC01FF8
FFC01FF8
FFC01FF8
FFC01FF8
FFC01FF8
FFC01FF8
FFC01FF8
FFC01FF8
FFC01FF8
FFC01FF8
FFC01FF8
FFC01FF8
FFC01FF8
FFC01FF8
FFC01FF8
FFC01FF8
FFC01FF8
FFC01FF8
FFC01FF8
FFC01FF8
ENDCHAR
STARTCHAR numbersign
ENCODING 35
SWIDTH 556 0
DWIDTH 58 0
BBX 54 73 2 0
BITMAP
00007FE007FE00
00007FE007FE00
00007FE007FC00
00007FC00FFC00
0000FFC00FFC00
0000FFC00FFC00
0000FFC00FFC00
0000FFC00FFC00
0000FFC00FFC00
0000FFC00FF800
0000FF800FF800
0000FF801FF800
0001FF801FF800
0001FF801FF800
0001FF801FF800
0001FF801FF800
0001FF801FF000
0001FF001FF000
0001FF003FF000
0003FF003FF000
0003FF003FF000
0FFFFFFFFFFFFC
0FFFFFFFFFFFFC
0FFFFFFFFFFFFC
0FFFFFFFFFFFF8
1FFFFFFFFFFFF8
1FFFFFFFFFFFF8
1FFFFFFFFFFFF8
1FFFFFFFFFFFF8
1FFFFFFFFFFFF8
0007FE007FE000
0007FE007FC000
0007FC00FFC000
000FFC00FFC000
000FFC00FFC000
000FFC00FFC000
000FFC00FFC000
000FFC00FFC000
000FFC00FF8000
000FF800FF8000
000FF801FF8000
001FF801FF8000
001FF801FF8000
7FFFFFFFFFFFE0
7FFFFFFFFFFFE0
7FFFFFFFFFFFE0
7FFFFFFFFFFFC0
FFFFFFFFFFFFC0
FFFFFFFFFFFFC0
FFFFFFFFFFFFC0
FFFFFFFFFFFFC0
FFFFFFFFFFFFC0
003FF003FF0000
003FF003FE0000
003FE007FE0000
007FE007FE0000
007FE007FE0000
007FE007FE0000
007FE007FE0000
007FE007FE0000
007FE007FC0000
007FC00FFC0000
00FFC00FFC0000
00FFC00FFC0000
00FFC00FFC0000
00FFC00FFC0000
00FFC00FFC0000
00FFC00FF80000
00FF800FF80000
00FF801FF80000
01FF801FF80000
01FF801FF80000
01FF801FF80000
ENDCHAR
STARTCHAR dollar
ENCODING 36
SWIDTH 556 0
DWIDTH 58 0
BBX 51 93 3 -12
BITMAP
000000F0000000
000000F0000000
000000F0000000
000000F0000000
000000F0000000
000000F0000000
000000F0000000
00001FFF000000
0001FFFFF00000
0007FFFFFE0000
001FFFFFFF8000
003FFFFFFFC000
00FFFFFFFFE000
01FFFFFFFFF000
03FFFFFFFFF800
03FFFFFFFFFC00
07FFFFFFFFFE00
0FFFFFFFFFFE00
0FFFF8F0FFFF00
1FFFE0F07FFF00
1FFF80F03FFF80
1FFF00F01FFF80
3FFF00F00FFF80
3FFE00F00FFFC0
3FFE00F00FFFC0
3FFE00F00FFFC0
3FFE00F007FFC0
3FFE00F007FFC0
3FFE00F007FFC0
3FFE00F0000000
3FFF00F0000000
3FFF00F0000000
3FFF80F0000000
3FFFC0F0000000
3FFFE0F0000000
1FFFF8F0000000
1FFFFFF0000000
1FFFFFF0000000
0FFFFFFE000000
07FFFFFF800000
07FFFFFFF00000
03FFFFFFFC0000
01FFFFFFFF0000
00FFFFFFFFC000
003FFFFFFFF000
001FFFFFFFF800
0007FFFFFFFC00
0001FFFFFFFE00
00003FFFFFFF00
000007FFFFFF80
000000FFFFFF80
000000FFFFFFC0
000000F3FFFFC0
000000F0FFFFC0
000000F03FFFE0
000000F01FFFE0
000000F00FFFE0
000000F00FFFE0
000000F007FFE0
FFFC00F007FFE0
FFFC00F007FFE0
FFFC00F007FFE0
FFFC00F007FFE0
FFFC00F007FFE0
FFFE00F007FFE0
7FFE00F007FFE0
7FFE00F007FFE0
7FFF00F00FFFC0
7FFF80F00FFFC0
3FFFC0F01FFFC0
3FFFE0F07FFF80
3FFFFCF1FFFF80
1FFFFFFFFFFF00
1FFFFFFFFFFE00
0FFFFFFFFFFE00
07FFFFFFFFFC00
03FFFFFFFFF800
01FFFFFFFFF000
00FFFFFFFFC000
003FFFFFFF8000
000FFFFFFE0000
0001FFFFF00000
00001FFF000000
000000F0000000
000000F0000000
000000F0000000
000000F0000000
000000F0000000
000000F0000000
000000F0000000
000000F0000000
000000F0000000
000000F0000000
ENDCHAR
STARTCHAR percent
ENCODING 37
SWIDTH 889 0
DWIDTH 92 0
BBX 87 76 3 -2
BITMAP
0001FE000000000FE00000
000FFFC00000001FE00000
003FFFF00000003FC00000
00FFFFFC0000003FC00000
01FFFFFE0000007F800000
03FFFFFF0000007F000000
07FFFFFF800000FF000000
0FFFFFFFC00000FE000000
1FFFFFFFE00001FE000000
3FFFFFFFE00001FC000000
3FFFFFFFF00003FC000000
7FFE03FFF00003F8000000
7FFC00FFF80007F8000000
7FF8007FF8000FF0000000
FFF0003FF8000FF0000000
FFE0003FF8001FE0000000
FFE0001FFC001FC0000000
FFE0001FFC003FC0000000
FFE0001FFC003F80000000
FFE0001FFC007F80000000
FFE0001FFC007F00000000
FFE0001FFC00FF00000000
FFF0003FF800FE00000000
FFF0003FF801FE00000000
7FF8007FF803FC00000000
7FFC00FFF803FC00000000
3FFF03FFF007F800000000
3FFFFFFFF007F000000000
1FFFFFFFE00FF000000000
1FFFFFFFC00FE000000000
0FFFFFFFC01FE000000000
07FFFFFF801FC000000000
03FFFFFF003FC000000000
01FFFFFE003F8000000000
00FFFFF8007F8000000000
003FFFF000FF0000000000
000FFF8000FF0000000000
0000780001FE00003C0000
0000000001FC0007FFC000
0000000003FC001FFFF800
0000000003F8007FFFFC00
0000000007F800FFFFFF00
0000000007F001FFFFFF80
000000000FF003FFFFFFC0
000000001FE007FFFFFFC0
000000001FE00FFFFFFFE0
000000003FC01FFFFFFFF0
000000003FC01FFFFFFFF0
000000007F803FFF83FFF8
000000007F003FFE00FFF8
00000000FF003FFC007FFC
00000000FE007FF8003FFC
00000001FE007FF0001FFC
00000001FC007FF0001FFC
00000003FC007FF0000FFC
00000007F8007FE0000FFE
00000007F8007FE0000FFE
0000000FF0007FF0000FFE
0000000FF0007FF0000FFC
0000001FE0007FF0001FFC
0000001FC0007FF8001FFC
0000003FC0007FF8003FFC
0000003F80003FFE007FF8
0000007F80003FFF01FFF8
0000007F00001FFFFFFFF8
000000FF00001FFFFFFFF0
000001FE00000FFFFFFFE0
000001FE00000FFFFFFFE0
000003FC000007FFFFFFC0
000003FC000003FFFFFF80
000007F8000001FFFFFF00
000007F00000007FFFFC00
00000FF00000003FFFF800
00000FE00000000FFFE000
00001FE000000001FF0000
00001FC000000000000000
ENDCHAR
STARTCHAR ampersand
ENCODING 38
SWIDTH 722 0
DWIDTH 75 0
BBX 66 77 6 -2
BITMAP
000000FF8000000000
00000FFFF000000000
00003FFFFC00000000
0000FFFFFF00000000
0001FFFFFF80000000
0003FFFFFFC0000000
0007FFFFFFE0000000
000FFFFFFFF0000000
001FFFFFFFF8000000
001FFFFFFFF8000000
003FFFFFFFFC000000
003FFFC1FFFC000000
007FFF00FFFC000000
007FFE007FFE000000
007FFE003FFE000000
007FFC003FFE000000
007FFC003FFE000000
007FFC003FFE000000
007FFC003FFE000000
007FFE003FFE000000
007FFE003FFE000000
007FFF007FFC000000
003FFF00FFFC000000
003FFF80FFFC000000
003FFFC3FFF8000000
001FFFE7FFF8000000
001FFFEFFFF0000000
000FFFFFFFF0000000
000FFFFFFFE0000000
0007FFFFFFC0000000
0003FFFFFF80000000
0003FFFFFF00000000
0001FFFFFE00000000
0001FFFFF800000000
0007FFFFF000000000
000FFFFFE000000000
003FFFFFF0007FFC00
007FFFFFF0007FFC00
00FFFFFFF8007FFC00
01FFFFFFFC007FFC00
03FFFFFFFE00FFF800
07FFFFFFFF00FFF800
0FFFFFFFFF00FFF800
1FFFF8FFFF80FFF800
3FFFF07FFFC1FFF800
3FFFE03FFFE1FFF000
7FFFC03FFFF3FFF000
7FFF801FFFF3FFF000
7FFF000FFFFFFFE000
FFFE0007FFFFFFE000
FFFE0003FFFFFFC000
FFFE0003FFFFFFC000
FFFC0001FFFFFF8000
FFFC0000FFFFFF8000
FFFC00007FFFFF0000
FFFC00003FFFFF0000
FFFC00003FFFFE0000
FFFE00001FFFFC0000
FFFE00000FFFFC0000
FFFF000007FFFC0000
FFFF00000FFFFE0000
FFFF80003FFFFF0000
7FFFC0007FFFFF8000
7FFFF001FFFFFF8000
3FFFFE1FFFFFFFC000
3FFFFFFFFFFFFFE000
1FFFFFFFFFFFFFF000
1FFFFFFFFFFFFFF800
0FFFFFFFFFFFFFFC00
07FFFFFFFFE7FFFC00
03FFFFFFFFC3FFFE00
01FFFFFFFF83FFFF00
00FFFFFFFF01FFFF80
003FFFFFFC00FFFFC0
001FFFFFF0007FFFC0
0003FFFFC000000000
00003FF80000000000
ENDCHAR
STARTCHAR quotesingle
ENCODING 39
SWIDTH 238 0
DWIDTH 25 0
BBX 10 28 7 47
BITMAP
FFC0
FFC0
FFC0
FFC0
FFC0
FFC0
FFC0
FFC0
FFC0
FFC0
FFC0
FFC0
FFC0
FFC0
FFC0
FFC0
FFC0
FFC0
FFC0
FFC0
FFC0
FFC0
FFC0
FFC0
FFC0
FFC0
FFC0
FFC0
ENDCHAR
STARTCHAR parenleft
ENCODING 40
SWIDTH 333 0
DWIDTH 35 0
BBX 28 98 4 -22
BITMAP
00003FF0
00007FF0
0000FFE0
0001FFE0
0001FFC0
0003FFC0
0007FF80
0007FF80
000FFF00
000FFF00
001FFE00
003FFE00
003FFC00
007FFC00
007FF800
00FFF800
00FFF000
01FFF000
01FFF000
03FFE000
03FFE000
07FFE000
07FFC000
07FFC000
0FFFC000
0FFFC000
1FFF8000
1FFF8000
1FFF8000
1FFF8000
3FFF0000
3FFF0000
3FFF0000
7FFF0000
7FFF0000
7FFF0000
7FFE0000
7FFE0000
FFFE0000
FFFE0000
FFFE0000
FFFE0000
FFFE0000
FFFE0000
FFFE0000
FFFE0000
FFFE0000
FFFE0000
FFFE0000
FFFE0000
FFFE0000
FFFE0000
FFFE0000
FFFE0000
FFFE0000
FFFE0000
FFFE0000
FFFE0000
FFFE0000
FFFE0000
7FFE0000
7FFE0000
7FFF0000
7FFF0000
7FFF0000
3FFF0000
3FFF0000
3FFF0000
3FFF8000
1FFF8000
1FFF8000
1FFF8000
0FFFC000
0FFFC000
0FFFC000
07FFC000
07FFE000
03FFE000
03FFE000
01FFF000
01FFF000
00FFF800
00FFF800
007FF800
007FFC00
003FFC00
003FFE00
001FFE00
001FFF00
000FFF00
0007FF80
0007FF80
0003FFC0
0001FFC0
0001FFE0
0000FFE0
00007FF0
00003FF0
ENDCHAR
STARTCHAR parenright
ENCODING 41
SWIDTH 333 0
DWIDTH 35 0
BBX 29 98 2 -22
BITMAP
FFE00000
7FF00000
7FF80000
3FF80000
3FFC0000
1FFE0000
0FFE0000
0FFF0000
07FF8000
07FF8000
03FFC000
03FFC000
03FFE000
01FFF000
01FFF000
00FFF800
00FFF800
007FFC00
007FFC00
007FFE00
003FFE00
003FFE00
003FFF00
001FFF00
001FFF80
001FFF80
001FFF80
000FFFC0
000FFFC0
000FFFC0
000FFFE0
000FFFE0
0007FFE0
0007FFE0
0007FFE0
0007FFF0
0007FFF0
0007FFF0
0007FFF0
0003FFF0
0003FFF8
0003FFF8
0003FFF8
0003FFF8
0003FFF8
0003FFF8
0003FFF8
0003FFF8
0003FFF8
0003FFF8
0003FFF8
0003FFF8
0003FFF8
0003FFF8
0003FFF8
0003FFF8
0003FFF8
0003FFF0
0003FFF0
0007FFF0
0007FFF0
0007FFF0
0007FFF0
0007FFE0
0007FFE0
0007FFE0
0007FFE0
000FFFC0
000FFFC0
000FFFC0
000FFFC0
001FFF80
001FFF80
001FFF80
001FFF00
003FFF00
003FFE00
003FFE00
007FFC00
007FFC00
007FFC00
00FFF800
00FFF800
01FFF000
01FFF000
01FFE000
03FFC000
03FFC000
07FF8000
07FF8000
0FFF0000
0FFE0000
1FFE0000
1FFC0000
3FF80000
7FF80000
7FF00000
FFE00000
ENDCHAR
STARTCHAR asterisk
ENCODING 42
SWIDTH 389 0
DWIDTH 40 0
BBX 34 34 3 41
BITMAP
0007FC0000
0007FC0000
0007FC0000
0007FC0000
0007FC0000
0007FC0000
0007FC0000
0007FC0000
0007FC0000
3007FC0300
3E07FC1F80
7FC7FCFF80
7FFFFFFF80
7FFFFFFFC0
FFFFFFFFC0
FFFFFFFFC0
FFFFFFFFC0
1FFFFFFE00
03FFFFF000
003FFF8000
003FFF0000
007FFF8000
007FFFC000
00FFFFC000
01FFFFE000
01FFBFF000
03FF3FF800
07FE1FF800
0FFE0FFC00
0FFC07FE00
0FF807FC00
03F003F800
01F001E000
006000C000
ENDCHAR
STARTCHAR plus
ENCODING 43
SWIDTH 584 0
DWIDTH 61 0
BBX 53 52 4 0
BITMAP
000007FF000000
000007FF000000
000007FF000000
000007FF000000
000007FF000000
000007FF000000
000007FF000000
000007FF000000
000007FF000000
000007FF000000
000007FF000000
000007FF000000
000007FF000000
000007FF000000
000007FF000000
000007FF000000
000007FF000000
000007FF000000
000007FF000000
000007FF000000
FFFFFFFFFFFFF8
FFFFFFFFFFFFF8
FFFFFFFFFFFFF8
FFFFFFFFFFFFF8
FFFFFFFFFFFFF8
FFFFFFFFFFFFF8
FFFFFFFFFFFFF8
FFFFFFFFFFFFF8
FFFFFFFFFFFFF8
FFFFFFFFFFFFF8
FFFFFFFFFFFFF8
FFFFFFFFFFFFF8
000007FF000000
000007FF000000
000007FF000000
000007FF000000
000007FF000000
000007FF000000
000007FF000000
000007FF000000
000007FF000000
000007FF000000
000007FF000000
000007FF000000
000007FF000000
000007FF000000
000007FF000000
000007FF000000
000007FF000000
000007FF000000
000007FF000000
000007FF000000
ENDCHAR
STARTCHAR comma
ENCODING 44
SWIDTH 278 0
DWIDTH 29 0
BBX 15 32 7 -17
BITMAP
FFFE
FFFE
FFFE
FFFE
FFFE
FFFE
FFFE
FFFE
FFFE
FFFE
FFFE
FFFE
FFFE
FFFE
FFFE
00FE
00FE
00FE
00FE
00FE
01FC
01FC
03FC
03F8
07F8
1FF0
7FE0
FFC0
FF80
FE00
FC00
E000
ENDCHAR
STARTCHAR hyphen
ENCODING 45
SWIDTH 333 0
DWIDTH 35 0
BBX 29 14 3 22
BITMAP
FFFFFFF8
FFFFFFF8
FFFFFFF8
FFFFFFF8
FFFFFFF8
FFFFFFF8
FFFFFFF8
FFFFFFF8
FFFFFFF8
FFFFFFF8
FFFFFFF8
FFFFFFF8
FFFFFFF8
FFFFFFF8
ENDCHAR
STARTCHAR period
ENCODING 46
SWIDTH 278 0
DWIDTH 29 0
BBX 15 15 7 0
BITMAP
FFFE
FFFE
FFFE
FFFE
FFFE
FFFE
FFFE
FFFE
FFFE
FFFE
FFFE
FFFE
FFFE
FFFE
FFFE
ENDCHAR
STARTCHAR slash
ENCODING 47
SWIDTH 278 0
DWIDTH 29 0
BBX 35 79 -3 -2
BITMAP
000001FFE0
000001FFE0
000003FFE0
000003FFC0
000003FFC0
000003FFC0
000007FF80
000007FF80
000007FF80
00000FFF80
00000FFF00
00000FFF00
00001FFF00
00001FFE00
00001FFE00
00001FFE00
00003FFC00
00003FFC00
00003FFC00
00007FFC00
00007FF800
00007FF800
0000FFF800
0000FFF000
0000FFF000
0000FFF000
0001FFE000
0001FFE000
0001FFE000
0003FFE000
0003FFC000
0003FFC000
0007FFC000
0007FF8000
0007FF8000
0007FF8000
000FFF0000
000FFF0000
000FFF0000
001FFF0000
001FFE0000
001FFE0000
003FFE0000
003FFC0000
003FFC0000
003FFC0000
007FF80000
007FF80000
007FF80000
00FFF80000
00FFF00000
00FFF00000
01FFF00000
01FFE00000
01FFE00000
01FFE00000
03FFC00000
03FFC00000
03FFC00000
07FFC00000
07FF800000
07FF800000
0FFF800000
0FFF000000
0FFF000000
0FFF000000
1FFE000000
1FFE000000
1FFE000000
3FFE000000
3FFC000000
3FFC000000
7FFC000000
7FF8000000
7FF8000000
7FF8000000
FFF0000000
FFF0000000
FFF0000000
ENDCHAR
STARTCHAR zero
ENCODING 48
SWIDTH 556 0
DWIDTH 58 0
BBX 51 76 3 -2
BITMAP
00000FFF000000
00007FFFE00000
0003FFFFFC0000
000FFFFFFF0000
001FFFFFFF8000
003FFFFFFFC000
007FFFFFFFE000
00FFFFFFFFF000
01FFFFFFFFF800
03FFFFFFFFF800
03FFFFFFFFFC00
07FFFFFFFFFE00
07FFFC03FFFE00
0FFFF000FFFF00
0FFFE0007FFF00
0FFFE0007FFF00
1FFFC0003FFF80
1FFFC0003FFF80
1FFF80001FFF80
3FFF80001FFFC0
3FFF80001FFFC0
3FFF00001FFFC0
3FFF00000FFFC0
7FFF00000FFFC0
7FFF00000FFFE0
7FFF00000FFFE0
7FFF00000FFFE0
7FFF00000FFFE0
7FFF00000FFFE0
7FFF00000FFFE0
7FFE00000FFFE0
7FFE00000FFFE0
7FFE00000FFFE0
FFFE00000FFFE0
FFFE00000FFFE0
FFFE000007FFE0
FFFE000007FFE0
FFFE000007FFE0
FFFE000007FFE0
FFFE000007FFE0
FFFE000007FFE0
FFFE00000FFFE0
FFFE00000FFFE0
7FFE00000FFFE0
7FFE00000FFFE0
7FFF00000FFFE0
7FFF00000FFFE0
7FFF00000FFFE0
7FFF00000FFFE0
7FFF00000FFFE0
7FFF00000FFFE0
7FFF00000FFFE0
7FFF00000FFFC0
3FFF00000FFFC0
3FFF00001FFFC0
3FFF80001FFFC0
3FFF80001FFFC0
1FFF80001FFF80
1FFFC0003FFF80
1FFFC0003FFF80
0FFFE0007FFF00
0FFFE0007FFF00
0FFFF000FFFF00
07FFFC03FFFE00
07FFFFFFFFFE00
03FFFFFFFFFC00
03FFFFFFFFF800
01FFFFFFFFF800
00FFFFFFFFF000
007FFFFFFFE000
003FFFFFFFC000
001FFFFFFF8000
000FFFFFFE0000
0003FFFFFC0000
0000FFFFE00000
00000FFE000000
ENDCHAR
STARTCHAR one
ENCODING 49
SWIDTH 556 0
DWIDTH 58 0
BBX 32 74 7 0
BITMAP
00000FFF
00000FFF
00000FFF
00000FFF
00001FFF
00001FFF
00003FFF
00007FFF
0000FFFF
0001FFFF
0003FFFF
001FFFFF
01FFFFFF
FFFFFFFF
FFFFFFFF
FFFFFFFF
FFFFFFFF
FFFFFFFF
FFFFFFFF
FFFFFFFF
FFFFFFFF
FFFFFFFF
FFFFFFFF
00003FFF
00003FFF
00003FFF
00003FFF
00003FFF
00003FFF
00003FFF
00003FFF
00003FFF
00003FFF
00003FFF
00003FFF
00003FFF
00003FFF
00003FFF
00003FFF
00003FFF
00003FFF
00003FFF
00003FFF
00003FFF
00003FFF
00003FFF
00003FFF
00003FFF
00003FFF
00003FFF
00003FFF
00003FFF
00003FFF
00003FFF
00003FFF
00003FFF
00003FFF
00003FFF
00003FFF
00003FFF
00003FFF
00003FFF
00003FFF
00003FFF
00003FFF
00003FFF
00003FFF
00003FFF
00003FFF
00003FFF
00003FFF
00003FFF
00003FFF
00003FFF
ENDCHAR
STARTCHAR two
ENCODING 50
SWIDTH 556 0
DWIDTH 58 0
BBX 50 74 3 0
BITMAP
00001FFE000000
0001FFFFE00000
0007FFFFF80000
001FFFFFFE0000
003FFFFFFF8000
00FFFFFFFFC000
01FFFFFFFFE000
03FFFFFFFFF000
03FFFFFFFFF800
07FFFFFFFFFC00
0FFFFFFFFFFE00
0FFFFFFFFFFE00
1FFFFE1FFFFF00
1FFFF003FFFF00
3FFFC000FFFF80
3FFF80007FFF80
3FFF80003FFF80
7FFF00003FFF80
7FFF00001FFFC0
7FFE00001FFFC0
7FFE00001FFFC0
7FFE00001FFFC0
7FFE00001FFFC0
7FFE00001FFFC0
7FFE00001FFFC0
7FFE00001FFFC0
000000001FFFC0
000000001FFFC0
000000003FFFC0
000000003FFF80
000000007FFF80
000000007FFF80
00000000FFFF00
00000001FFFF00
00000003FFFE00
00000007FFFE00
0000000FFFFC00
0000003FFFFC00
0000007FFFF800
000000FFFFF000
000001FFFFE000
000007FFFFC000
00000FFFFF8000
00003FFFFF0000
00007FFFFE0000
0000FFFFF80000
0003FFFFF00000
0007FFFFE00000
000FFFFF800000
001FFFFF000000
003FFFFC000000
007FFFF8000000
00FFFFE0000000
01FFFFC0000000
03FFFF80000000
07FFFE00000000
07FFFC00000000
0FFFF800000000
0FFFF000000000
1FFFE000000000
3FFFC000000000
3FFFFFFFFFFFC0
3FFFFFFFFFFFC0
7FFFFFFFFFFFC0
7FFFFFFFFFFFC0
7FFFFFFFFFFFC0
7FFFFFFFFFFFC0
FFFFFFFFFFFFC0
FFFFFFFFFFFFC0
FFFFFFFFFFFFC0
FFFFFFFFFFFFC0
FFFFFFFFFFFFC0
FFFFFFFFFFFFC0
FFFFFFFFFFFFC0
ENDCHAR
STARTCHAR three
ENCODING 51
SWIDTH 556 0
DWIDTH 58 0
BBX 51 76 3 -2
BITMAP
00000FFE000000
0000FFFFE00000
0007FFFFF80000
001FFFFFFE0000
003FFFFFFF8000
00FFFFFFFFC000
01FFFFFFFFE000
03FFFFFFFFF000
03FFFFFFFFF800
07FFFFFFFFFC00
0FFFFFFFFFFC00
0FFFFFFFFFFE00
1FFFF007FFFE00
1FFFC003FFFE00
3FFF8000FFFF00
3FFF0000FFFF00
3FFF00007FFF00
3FFE00007FFF00
7FFE00007FFF00
7FFE00003FFF00
7FFE00003FFF00
7FFE00003FFF00
7FFE00003FFF00
7FFE00003FFF00
000000007FFF00
000000007FFF00
000000007FFE00
00000000FFFE00
00000001FFFC00
00000003FFFC00
0000001FFFF800
00001FFFFFF000
00001FFFFFE000
00001FFFFF8000
00001FFFFF0000
00001FFFFFC000
00001FFFFFE000
00001FFFFFF800
00001FFFFFFC00
00001FFFFFFE00
00001FFFFFFE00
000007FFFFFF00
00000007FFFF80
00000001FFFF80
000000007FFF80
000000003FFFC0
000000003FFFC0
000000001FFFC0
000000001FFFC0
000000001FFFE0
000000000FFFE0
FFFC00000FFFE0
FFFC00000FFFE0
FFFC00000FFFE0
FFFC00000FFFE0
FFFC00001FFFC0
FFFE00001FFFC0
FFFE00001FFFC0
7FFE00003FFFC0
7FFF00003FFFC0
7FFF00007FFF80
7FFF8000FFFF80
3FFFC001FFFF80
3FFFF007FFFF00
1FFFFFFFFFFE00
1FFFFFFFFFFE00
0FFFFFFFFFFC00
07FFFFFFFFF800
07FFFFFFFFF000
03FFFFFFFFE000
01FFFFFFFFC000
007FFFFFFF8000
003FFFFFFE0000
000FFFFFF80000
0001FFFFE00000
00001FFE000000
ENDCHAR
STARTCHAR four
ENCODING 52
SWIDTH 556 0
DWIDTH 58 0
BBX 52 74 3 0
BITMAP
0000001FFFE000
0000003FFFE000
0000007FFFE000
0000007FFFE000
000000FFFFE000
000000FFFFE000
000001FFFFE000
000003FFFFE000
000003FFFFE000
000007FFFFE000
000007FFFFE000
00000FFFFFE000
00001FFFFFE000
00001FFFFFE000
00003FFFFFE000
00003FF7FFE000
00007FF7FFE000
0000FFE7FFE000
0000FFE7FFE000
0001FFC7FFE000
0001FF87FFE000
0003FF87FFE000
0007FF07FFE000
0007FF07FFE000
000FFE07FFE000
001FFE07FFE000
001FFC07FFE000
003FF807FFE000
003FF807FFE000
007FF007FFE000
00FFF007FFE000
00FFE007FFE000
01FFC007FFE000
01FFC007FFE000
03FF8007FFE000
07FF8007FFE000
07FF0007FFE000
0FFF0007FFE000
0FFE0007FFE000
1FFC0007FFE000
3FFC0007FFE000
3FF80007FFE000
7FF80007FFE000
7FF00007FFE000
FFE00007FFE000
FFE00007FFE000
FFFFFFFFFFFFF0
FFFFFFFFFFFFF0
FFFFFFFFFFFFF0
FFFFFFFFFFFFF0
FFFFFFFFFFFFF0
FFFFFFFFFFFFF0
FFFFFFFFFFFFF0
FFFFFFFFFFFFF0
FFFFFFFFFFFFF0
FFFFFFFFFFFFF0
FFFFFFFFFFFFF0
00000007FFE000
00000007FFE000
00000007FFE000
00000007FFE000
00000007FFE000
00000007FFE000
00000007FFE000
00000007FFE000
00000007FFE000
00000007FFE000
00000007FFE000
00000007FFE000
00000007FFE000
00000007FFE000
00000007FFE000
00000007FFE000
00000007FFE000
ENDCHAR
STARTCHAR five
ENCODING 53
SWIDTH 556 0
DWIDTH 58 0
BBX 51 75 3 -2
BITMAP
01FFFFFFFFFF00
01FFFFFFFFFF00
01FFFFFFFFFF00
01FFFFFFFFFF00
01FFFFFFFFFF00
03FFFFFFFFFF00
03FFFFFFFFFF00
03FFFFFFFFFF00
03FFFFFFFFFF00
03FFFFFFFFFF00
03FFFFFFFFFF00
03FFFFFFFFFF00
03FFC000000000
07FF8000000000
07FF8000000000
07FF8000000000
07FF8000000000
07FF8000000000
07FF8000000000
07FF8000000000
07FF0000000000
0FFF0000000000
0FFF0000000000
0FFF0000000000
0FFF001C000000
0FFF07FFE00000
0FFE3FFFFC0000
0FFE7FFFFF0000
0FFFFFFFFF8000
1FFFFFFFFFE000
1FFFFFFFFFF000
1FFFFFFFFFF800
1FFFFFFFFFFC00
1FFFFFFFFFFC00
1FFFFFFFFFFE00
1FFFFFFFFFFF00
1FFFF80FFFFF00
3FFFE003FFFF80
3FFF8000FFFF80
3FFF00007FFF80
3FFF00007FFFC0
000000003FFFC0
000000003FFFC0
000000001FFFC0
000000001FFFC0
000000001FFFE0
000000001FFFE0
000000000FFFE0
000000000FFFE0
000000000FFFE0
000000000FFFE0
000000000FFFE0
000000001FFFC0
FFFC00001FFFC0
FFFE00001FFFC0
FFFE00001FFFC0
FFFE00003FFFC0
FFFE00003FFF80
7FFF00007FFF80
7FFF80007FFF80
7FFF8000FFFF00
3FFFC001FFFF00
3FFFF007FFFE00
1FFFFFFFFFFE00
1FFFFFFFFFFC00
0FFFFFFFFFF800
07FFFFFFFFF800
07FFFFFFFFF000
03FFFFFFFFE000
00FFFFFFFFC000
007FFFFFFF0000
003FFFFFFE0000
000FFFFFF80000
0001FFFFC00000
00003FFC000000
ENDCHAR
STARTCHAR six
ENCODING 54
SWIDTH 556 0
DWIDTH 58 0
BBX 51 76 3 -2
BITMAP
000003FF800000
00003FFFF80000
0001FFFFFE0000
0003FFFFFF8000
000FFFFFFFC000
001FFFFFFFF000
003FFFFFFFF000
007FFFFFFFF800
00FFFFFFFFFC00
01FFFFFFFFFE00
03FFFFFFFFFE00
03FFFFFFFFFF00
07FFFC01FFFF00
07FFF8007FFF80
0FFFF0003FFF80
0FFFE0003FFF80
1FFFC0001FFF80
1FFFC0001FFF80
1FFF80001FFFC0
3FFF8000000000
3FFF0000000000
3FFF0000000000
3FFF0000000000
7FFF0000000000
7FFE0000000000
7FFE0000000000
7FFE00FFC00000
7FFE07FFF80000
7FFE1FFFFF0000
7FFE7FFFFF8000
7FFEFFFFFFE000
FFFFFFFFFFF000
FFFFFFFFFFF800
FFFFFFFFFFFC00
FFFFFFFFFFFE00
FFFFFFFFFFFE00
FFFFFFFFFFFF00
FFFFFFFFFFFF00
FFFFF803FFFF80
FFFFF000FFFF80
FFFFC0007FFFC0
FFFF80003FFFC0
FFFF80001FFFC0
FFFF00001FFFE0
FFFF00000FFFE0
FFFE00000FFFE0
7FFE00000FFFE0
7FFE00000FFFE0
7FFE00000FFFE0
7FFE000007FFE0
7FFE000007FFE0
7FFE000007FFE0
7FFE00000FFFE0
7FFE00000FFFE0
3FFE00000FFFE0
3FFF00000FFFE0
3FFF00000FFFC0
3FFF00001FFFC0
1FFF80001FFFC0
1FFF80001FFFC0
1FFFC0003FFF80
0FFFE0007FFF80
0FFFF000FFFF00
07FFFC03FFFF00
07FFFFFFFFFE00
03FFFFFFFFFE00
01FFFFFFFFFC00
01FFFFFFFFF800
00FFFFFFFFF000
007FFFFFFFE000
003FFFFFFFC000
001FFFFFFF8000
0007FFFFFF0000
0001FFFFFC0000
00007FFFF00000
000007FF000000
ENDCHAR
STARTCHAR seven
ENCODING 55
SWIDTH 556 0
DWIDTH 58 0
BBX 52 73 3 0
BITMAP
FFFFFFFFFFFFF0
FFFFFFFFFFFFF0
FFFFFFFFFFFFF0
FFFFFFFFFFFFF0
FFFFFFFFFFFFF0
FFFFFFFFFFFFF0
FFFFFFFFFFFFF0
FFFFFFFFFFFFF0
FFFFFFFFFFFFF0
FFFFFFFFFFFFF0
FFFFFFFFFFFFF0
FFFFFFFFFFFFF0
FFFFFFFFFFFFE0
000000000FFFC0
000000001FFF80
000000003FFF00
000000007FFE00
00000000FFFE00
00000000FFFC00
00000001FFF800
00000003FFF000
00000007FFF000
00000007FFE000
0000000FFFC000
0000001FFFC000
0000001FFF8000
0000003FFF0000
0000007FFF0000
0000007FFE0000
000000FFFC0000
000000FFFC0000
000001FFF80000
000003FFF80000
000003FFF00000
000007FFF00000
000007FFE00000
00000FFFE00000
00000FFFC00000
00001FFFC00000
00001FFF800000
00003FFF800000
00003FFF000000
00003FFF000000
00007FFF000000
00007FFE000000
0000FFFE000000
0000FFFC000000
0001FFFC000000
0001FFFC000000
0001FFF8000000
0003FFF8000000
0003FFF8000000
0003FFF0000000
0007FFF0000000
0007FFF0000000
0007FFF0000000
0007FFE0000000
000FFFE0000000
000FFFE0000000
000FFFE0000000
000FFFE0000000
000FFFC0000000
001FFFC0000000
001FFFC0000000
001FFFC0000000
001FFFC0000000
001FFFC0000000
001FFFC0000000
003FFF80000000
003FFF80000000
003FFF80000000
003FFF80000000
003FFF80000000
ENDCHAR
STARTCHAR eight
ENCODING 56
SWIDTH 556 0
DWIDTH 58 0
BBX 51 76 3 -2
BITMAP
00000FFF000000
0000FFFFF00000
0003FFFFFC0000
000FFFFFFF0000
001FFFFFFF8000
007FFFFFFFE000
00FFFFFFFFF000
01FFFFFFFFF800
03FFFFFFFFFC00
03FFFFFFFFFC00
07FFFFFFFFFE00
07FFFFFFFFFE00
0FFFFC03FFFF00
0FFFF000FFFF00
1FFFE0007FFF00
1FFFC0003FFF80
1FFF80003FFF80
1FFF80001FFF80
1FFF80001FFF80
1FFF80001FFF80
1FFF80001FFF80
1FFF80001FFF80
1FFF80001FFF80
1FFF80001FFF80
1FFF80003FFF00
1FFFC0003FFF00
0FFFE0007FFF00
0FFFE0007FFE00
07FFF801FFFE00
07FFFE07FFFC00
03FFFFFFFFF800
01FFFFFFFFF000
00FFFFFFFFE000
007FFFFFFFC000
001FFFFFFF8000
003FFFFFFFE000
00FFFFFFFFF000
01FFFFFFFFFC00
03FFFFFFFFFE00
07FFFFFFFFFF00
0FFFFFFFFFFF00
1FFFFC07FFFF80
1FFFF001FFFFC0
3FFFE0007FFFC0
3FFFC0003FFFC0
7FFF80001FFFE0
7FFF80001FFFE0
7FFF00000FFFE0
7FFF00000FFFE0
7FFF00000FFFE0
FFFE00000FFFE0
FFFE00000FFFE0
FFFE000007FFE0
FFFE000007FFE0
FFFE00000FFFE0
FFFF00000FFFE0
7FFF00000FFFE0
7FFF00000FFFE0
7FFF80001FFFE0
7FFF80001FFFC0
7FFFC0003FFFC0
3FFFE0007FFFC0
3FFFF000FFFF80
1FFFFC03FFFF80
1FFFFFFFFFFF00
0FFFFFFFFFFF00
0FFFFFFFFFFE00
07FFFFFFFFFC00
03FFFFFFFFF800
01FFFFFFFFF000
00FFFFFFFFE000
007FFFFFFFC000
001FFFFFFF0000
0007FFFFFC0000
0001FFFFF00000
00000FFF000000
ENDCHAR
STARTCHAR nine
ENCODING 57
SWIDTH 556 0
DWIDTH 58 0
BBX 51 76 3 -2
BITMAP
00000FFE000000
0000FFFFE00000
0007FFFFF80000
001FFFFFFE0000
003FFFFFFF0000
00FFFFFFFF8000
01FFFFFFFFE000
03FFFFFFFFE000
03FFFFFFFFF000
07FFFFFFFFF800
0FFFFFFFFFFC00
0FFFFFFFFFFC00
1FFFFC07FFFE00
1FFFF001FFFE00
3FFFC000FFFF00
3FFF80007FFF00
7FFF80003FFF00
7FFF00001FFF80
7FFF00001FFF80
7FFE00000FFF80
7FFE00000FFFC0
FFFE00000FFFC0
FFFE00000FFFC0
FFFE00000FFFC0
FFFE00000FFFC0
FFFE00000FFFE0
FFFE00000FFFE0
FFFE00000FFFE0
FFFE00000FFFE0
FFFE00000FFFE0
FFFE00000FFFE0
7FFF00001FFFE0
7FFF00001FFFE0
7FFF80003FFFE0
7FFF80007FFFE0
3FFFC000FFFFE0
3FFFF001FFFFE0
3FFFFC07FFFFE0
1FFFFFFFFFFFE0
0FFFFFFFFFFFE0
0FFFFFFFFFFFE0
07FFFFFFFFFFE0
03FFFFFFFFFFE0
01FFFFFFF7FFE0
00FFFFFFF7FFE0
007FFFFFE7FFE0
003FFFFFC7FFE0
000FFFFF07FFE0
0001FFFC07FFE0
000007800FFFC0
000000000FFFC0
000000000FFFC0
000000000FFFC0
000000000FFFC0
000000001FFF80
000000001FFF80
000000001FFF80
3FFF00003FFF80
3FFF00003FFF00
3FFF80007FFF00
3FFF8000FFFE00
1FFFC000FFFE00
1FFFE003FFFC00
1FFFF007FFFC00
0FFFFFFFFFF800
0FFFFFFFFFF800
07FFFFFFFFF000
03FFFFFFFFE000
03FFFFFFFFC000
01FFFFFFFF8000
00FFFFFFFF0000
007FFFFFFE0000
001FFFFFF80000
0007FFFFF00000
0001FFFF800000
00001FFC000000
ENDCHAR
STARTCHAR colon
ENCODING 58
SWIDTH 333 0
DWIDTH 35 0
BBX 15 53 10 0
BITMAP
FFFE
FFFE
FFFE
FFFE
FFFE
FFFE
FFFE
FFFE
FFFE
FFFE
FFFE
FFFE
FFFE
FFFE
FFFE
0000
0000
0000
0000
0000
0000
0000
0000
0000
0000
0000
0000
0000
0000
0000
0000
0000
0000
0000
0000
0000
0000
0000
FFFE
FFFE
FFFE
FFFE
FFFE
FFFE
FFFE
FFFE
FFFE
FFFE
FFFE
FFFE
FFFE
FFFE
FFFE
ENDCHAR
STARTCHAR semicolon
ENCODING 59
SWIDTH 333 0
DWIDTH 35 0
BBX 15 70 10 -17
BITMAP
FFFE
FFFE
FFFE
FFFE
FFFE
FFFE
FFFE
FFFE
FFFE
FFFE
FFFE
FFFE
FFFE
FFFE
FFFE
0000
0000
0000
0000
0000
0000
0000
0000
0000
0000
0000
0000
0000
0000
0000
0000
0000
0000
0000
0000
0000
0000
0000
FFFE
FFFE
FFFE
FFFE
FFFE
FFFE
FFFE
FFFE
FFFE
FFFE
FFFE
FFFE
FFFE
FFFE
FFFE
00FE
00FE
00FE
00FE
00FC
01FC
01FC
03F8
03F8
07F0
1FF0
7FE0
FFC0
FF80
FE00
F800
E000
ENDCHAR
STARTCHAR less
ENCODING 60
SWIDTH 584 0
DWIDTH 61 0
BBX 53 54 4 -1
BITMAP
00000000000018
00000000000078
000000000003F8
00000000000FF8
00000000003FF8
0000000001FFF8
0000000007FFF8
000000001FFFF8
00000000FFFFF8
00000003FFFFF8
0000000FFFFFF8
0000007FFFFFF0
000001FFFFFF80
00000FFFFFFE00
00003FFFFFF000
0000FFFFFFC000
0007FFFFFF0000
001FFFFFF80000
007FFFFFE00000
03FFFFFF800000
0FFFFFFC000000
3FFFFFF0000000
FFFFFF80000000
FFFFFE00000000
FFFFF800000000
FFFFC000000000
FFFF0000000000
FFFF0000000000
FFFFE000000000
FFFFF800000000
FFFFFF00000000
FFFFFFC0000000
3FFFFFF0000000
0FFFFFFE000000
01FFFFFF800000
007FFFFFE00000
000FFFFFFC0000
0003FFFFFF0000
0000FFFFFFE000
00001FFFFFF800
000007FFFFFE00
000001FFFFFFC0
0000003FFFFFF0
0000000FFFFFF8
00000003FFFFF8
000000007FFFF8
000000001FFFF8
0000000007FFF8
0000000000FFF8
00000000003FF8
000000000007F8
000000000001F8
00000000000078
00000000000008
ENDCHAR
STARTCHAR equal
ENCODING 61
SWIDTH 584 0
DWIDTH 61 0
BBX 53 35 4 9
BITMAP
FFFFFFFFFFFFF8
FFFFFFFFFFFFF8
FFFFFFFFFFFFF8
FFFFFFFFFFFFF8
FFFFFFFFFFFFF8
FFFFFFFFFFFFF8
FFFFFFFFFFFFF8
FFFFFFFFFFFFF8
FFFFFFFFFFFFF8
FFFFFFFFFFFFF8
FFFFFFFFFFFFF8
FFFFFFFFFFFFF8
00000000000000
00000000000000
00000000000000
00000000000000
00000000000000
00000000000000
00000000000000
00000000000000
00000000000000
00000000000000
00000000000000
FFFFFFFFFFFFF8
FFFFFFFFFFFFF8
FFFFFFFFFFFFF8
FFFFFFFFFFFFF8
FFFFFFFFFFFFF8
FFFFFFFFFFFFF8
FFFFFFFFFFFFF8
FFFFFFFFFFFFF8
FFFFFFFFFFFFF8
FFFFFFFFFFFFF8
FFFFFFFFFFFFF8
FFFFFFFFFFFFF8
ENDCHAR
STARTCHAR greater
ENCODING 62
SWIDTH 584 0
DWIDTH 61 0
BBX 53 54 4 -1
BITMAP
C0000000000000
F0000000000000
FC000000000000
FF800000000000
FFE00000000000
FFF80000000000
FFFF0000000000
FFFFC000000000
FFFFF000000000
FFFFFE00000000
FFFFFF80000000
7FFFFFF0000000
1FFFFFFC000000
03FFFFFF000000
00FFFFFFE00000
001FFFFFF80000
0007FFFFFE0000
0001FFFFFFC000
00003FFFFFF000
00000FFFFFFC00
000003FFFFFF80
0000007FFFFFE0
0000001FFFFFF8
00000003FFFFF8
00000000FFFFF8
000000003FFFF8
0000000007FFF8
000000000FFFF8
000000003FFFF8
00000000FFFFF8
00000007FFFFF8
0000001FFFFFF8
000000FFFFFFE0
000003FFFFFF00
00000FFFFFFC00
00007FFFFFF000
0001FFFFFF8000
0007FFFFFE0000
003FFFFFF00000
00FFFFFFC00000
07FFFFFF000000
1FFFFFF8000000
7FFFFFE0000000
FFFFFF80000000
FFFFFC00000000
FFFFF000000000
FFFFC000000000
FFFE0000000000
FFF80000000000
FFE00000000000
FF000000000000
FC000000000000
E0000000000000
80000000000000
ENDCHAR
STARTCHAR question
ENCODING 63
SWIDTH 611 0
DWIDTH 64 0
BBX 52 76 6 0
BITMAP
00000FFE000000
0000FFFFF00000
0007FFFFFE0000
001FFFFFFF8000
003FFFFFFFE000
00FFFFFFFFF000
01FFFFFFFFF800
03FFFFFFFFFC00
07FFFFFFFFFE00
07FFFFFFFFFF00
0FFFFFFFFFFF80
1FFFFFFFFFFF80
1FFFFF0FFFFFC0
3FFFF001FFFFC0
3FFFE0007FFFE0
3FFFC0003FFFE0
7FFF80001FFFE0
7FFF80001FFFE0
7FFF00000FFFF0
7FFF00000FFFF0
FFFF00000FFFF0
FFFE00000FFFF0
FFFE00000FFFF0
FFFE00000FFFF0
000000000FFFF0
000000000FFFF0
000000000FFFE0
000000001FFFE0
000000003FFFE0
000000003FFFC0
000000007FFFC0
00000000FFFF80
00000001FFFF80
00000007FFFF00
0000000FFFFE00
0000001FFFFC00
0000003FFFF800
000000FFFFF000
000000FFFFE000
000001FFFFC000
000003FFFF8000
000007FFFE0000
000007FFFC0000
000007FFF80000
00000FFFF00000
00000FFFE00000
00000FFFC00000
00000FFFC00000
00001FFFC00000
00001FFF800000
00001FFF800000
00001FFF800000
00001FFF800000
00001FFF800000
00000000000000
00000000000000
00000000000000
00000000000000
00000000000000
00000000000000
00000000000000
00001FFFC00000
00001FFFC00000
00001FFFC00000
00001FFFC00000
00001FFFC00000
00001FFFC00000
00001FFFC00000
00001FFFC00000
00001FFFC00000
00001FFFC00000
00001FFFC00000
00001FFFC00000
00001FFFC00000
00001FFFC00000
00001FFFC00000
ENDCHAR
STARTCHAR at
ENCODING 64
SWIDTH 975 0
DWIDTH 101 0
BBX 77 79 12 -2
BITMAP
000000003FFE00000000
00000003FFFFF0000000
0000003FFFFFFE000000
000000FFFFFFFF800000
000003FFFFFFFFE00000
00000FFFFFFFFFF80000
00003FFFFFFFFFFE0000
00007FFFFFFFFFFF0000
0000FFFFF83FFFFF8000
0003FFFF00007FFFE000
0007FFF800000FFFF000
000FFFC0000001FFF800
001FFF800000007FFC00
003FFE000000003FFC00
007FFC000000001FFE00
007FF80000000007FF00
00FFF00000000003FF80
01FFE00000000001FF80
03FFC00000000001FFC0
03FF80003FF00000FFC0
07FF0001FFFC07FC7FE0
07FF0007FFFF07FC7FE0
0FFE000FFFFF8FFC3FE0
0FFC003FFFFFCFF83FF0
1FFC007FFFFFEFF81FF0
1FF800FFFFFFEFF81FF0
1FF801FFFFFFFFF81FF8
3FF803FFFFFFFFF00FF8
3FF003FFFFFFFFF00FF8
3FF007FFF81FFFF00FF8
7FF00FFFE007FFF00FF8
7FE00FFF8003FFE00FF8
7FE01FFF0001FFE007F8
7FE01FFE0001FFE007F8
7FE01FFE0000FFE007F8
FFE03FFC0000FFE007F8
FFE03FFC0000FFC007F8
FFE03FF80000FFC00FF8
FFE07FF80000FFC00FF8
FFE07FF00000FFC00FF0
FFE07FF00000FF800FF0
FFE07FF00000FF800FF0
FFE07FF00000FF800FF0
FFE07FF00001FF801FE0
7FE07FF00001FF001FE0
7FE07FF00003FF003FC0
7FE07FF80003FF003FC0
7FF07FF80007FF007F80
7FF07FF8000FFF007F80
3FF07FFC001FFE00FF00
3FF03FFE003FFE01FE00
3FF83FFF81FFFE07FE00
3FF81FFFFFFFFF1FFC00
1FF81FFFFFFFFFFFF800
1FFC0FFFFFFFFFFFF000
0FFC0FFFFFFFFFFFE000
0FFE07FFFFFFFFFF8000
07FF03FFFFF7FFFF0000
07FF01FFFFE7FFFC0000
03FF80FFFF87FFF80000
03FFC03FFF03FFC00000
01FFE00FFC01FF000000
00FFF00000000001FF00
00FFF80000000003FF00
007FFC000000000FFE00
003FFF000000001FFC00
001FFF800000007FF800
000FFFE0000000FFF000
0007FFFC000007FFE000
0003FFFF80003FFFC000
0000FFFFFC07FFFF8000
00007FFFFFFFFFFF0000
00003FFFFFFFFFFC0000
00000FFFFFFFFFF80000
000003FFFFFFFFE00000
000000FFFFFFFF800000
0000003FFFFFFE000000
00000003FFFFF0000000
000000003FFE00000000
ENDCHAR
STARTCHAR A
ENCODING 65
SWIDTH 722 0
DWIDTH 75 0
BBX 71 75 2 0
BITMAP
0000001FFFF8000000
0000003FFFF8000000
0000003FFFFC000000
0000007FFFFC000000
0000007FFFFC000000
0000007FFFFE000000
000000FFFFFE000000
000000FFFFFE000000
000000FFFFFF000000
000001FFFFFF000000
000001FFFFFF000000
000001FFFFFF800000
000003FFFFFF800000
000003FFFFFF800000
000003FFFFFFC00000
000007FFFFFFC00000
000007FFFFFFC00000
00000FFFEFFFE00000
00000FFFEFFFE00000
00000FFFEFFFF00000
00001FFFC7FFF00000
00001FFFC7FFF00000
00001FFFC7FFF80000
00003FFF83FFF80000
00003FFF83FFF80000
00003FFF83FFFC0000
00007FFF01FFFC0000
00007FFF01FFFC0000
00007FFF01FFFE0000
0000FFFE01FFFE0000
0000FFFE00FFFE0000
0000FFFE00FFFF0000
0001FFFC00FFFF0000
0001FFFC007FFF0000
0003FFFC007FFF8000
0003FFFC007FFF8000
0003FFF8003FFFC000
0007FFF8003FFFC000
0007FFF8003FFFC000
0007FFF0001FFFE000
000FFFF0001FFFE000
000FFFF0001FFFE000
000FFFE0001FFFF000
001FFFE0000FFFF000
001FFFE0000FFFF000
001FFFC0000FFFF800
003FFFC00007FFF800
003FFFFFFFFFFFF800
007FFFFFFFFFFFFC00
007FFFFFFFFFFFFC00
007FFFFFFFFFFFFC00
00FFFFFFFFFFFFFE00
00FFFFFFFFFFFFFE00
00FFFFFFFFFFFFFE00
01FFFFFFFFFFFFFF00
01FFFFFFFFFFFFFF00
01FFFFFFFFFFFFFF80
03FFFFFFFFFFFFFF80
03FFFFFFFFFFFFFF80
03FFFFFFFFFFFFFFC0
07FFF80000007FFFC0
07FFF80000003FFFC0
07FFF80000003FFFE0
0FFFF00000003FFFE0
0FFFF00000001FFFE0
1FFFF00000001FFFF0
1FFFE00000001FFFF0
1FFFE00000000FFFF0
3FFFE00000000FFFF8
3FFFC00000000FFFF8
3FFFC000000007FFF8
7FFFC000000007FFFC
7FFF8000000007FFFC
7FFF8000000003FFFC
FFFF8000000003FFFE
ENDCHAR
STARTCHAR B
ENCODING 66
SWIDTH 722 0
DWIDTH 75 0
BBX 62 75 8 0
BITMAP
FFFFFFFFFFE00000
FFFFFFFFFFFE0000
FFFFFFFFFFFF8000
FFFFFFFFFFFFE000
FFFFFFFFFFFFF000
FFFFFFFFFFFFF800
FFFFFFFFFFFFFC00
FFFFFFFFFFFFFE00
FFFFFFFFFFFFFF00
FFFFFFFFFFFFFF80
FFFFFFFFFFFFFF80
FFFFFFFFFFFFFFC0
FFFFFFFFFFFFFFC0
FFFE000003FFFFC0
FFFE0000007FFFE0
FFFE0000003FFFE0
FFFE0000001FFFE0
FFFE0000000FFFE0
FFFE0000000FFFE0
FFFE0000000FFFE0
FFFE0000000FFFE0
FFFE0000000FFFE0
FFFE0000000FFFE0
FFFE0000000FFFE0
FFFE0000000FFFE0
FFFE0000001FFFC0
FFFE0000003FFFC0
FFFE0000007FFFC0
FFFE000001FFFF80
FFFFFFFFFFFFFF00
FFFFFFFFFFFFFF00
FFFFFFFFFFFFFE00
FFFFFFFFFFFFFC00
FFFFFFFFFFFFF000
FFFFFFFFFFFFC000
FFFFFFFFFFFFF000
FFFFFFFFFFFFFC00
FFFFFFFFFFFFFE00
FFFFFFFFFFFFFF80
FFFFFFFFFFFFFF80
FFFFFFFFFFFFFFC0
FFFFFFFFFFFFFFE0
FFFE000001FFFFE0
FFFE0000007FFFF0
FFFE0000001FFFF0
FFFE0000000FFFF8
FFFE00000007FFF8
FFFE00000007FFF8
FFFE00000003FFF8
FFFE00000003FFF8
FFFE00000003FFFC
FFFE00000003FFFC
FFFE00000003FFFC
FFFE00000003FFFC
FFFE00000003FFFC
FFFE00000007FFF8
FFFE00000007FFF8
FFFE00000007FFF8
FFFE0000000FFFF8
FFFE0000001FFFF8
FFFE0000003FFFF0
FFFE000001FFFFF0
FFFFFFFFFFFFFFE0
FFFFFFFFFFFFFFE0
FFFFFFFFFFFFFFC0
FFFFFFFFFFFFFFC0
FFFFFFFFFFFFFF80
FFFFFFFFFFFFFF00
FFFFFFFFFFFFFE00
FFFFFFFFFFFFFC00
FFFFFFFFFFFFF800
FFFFFFFFFFFFE000
FFFFFFFFFFFF8000
FFFFFFFFFFFC0000
FFFFFFFFFF800000
ENDCHAR
STARTCHAR C
ENCODING 67
SWIDTH 722 0
DWIDTH 75 0
BBX 66 79 5 -2
BITMAP
0000000FFF80000000
000001FFFFF8000000
00000FFFFFFF000000
00003FFFFFFFC00000
0000FFFFFFFFF00000
0001FFFFFFFFFC0000
0007FFFFFFFFFE0000
000FFFFFFFFFFF0000
001FFFFFFFFFFFC000
003FFFFFFFFFFFE000
007FFFFFFFFFFFE000
00FFFFFFFFFFFFF000
01FFFFFFFFFFFFF800
01FFFFFFFFFFFFFC00
03FFFFF0007FFFFC00
07FFFFC0001FFFFE00
07FFFF000007FFFE00
0FFFFE000003FFFF00
0FFFFC000001FFFF00
1FFFF8000000FFFF80
1FFFF0000000FFFF80
1FFFF00000007FFF80
3FFFE00000007FFFC0
3FFFE00000003FFFC0
3FFFC00000003FFFC0
7FFFC00000003FFFC0
7FFF800000001FFFC0
7FFF80000000000000
7FFF80000000000000
FFFF80000000000000
FFFF00000000000000
FFFF00000000000000
FFFF00000000000000
FFFF00000000000000
FFFF00000000000000
FFFF00000000000000
FFFF00000000000000
FFFF00000000000000
FFFF00000000000000
FFFF00000000000000
FFFF00000000000000
FFFF00000000000000
FFFF00000000000000
FFFF00000000000000
FFFF00000000000000
FFFF00000000000000
FFFF00000000000000
FFFF00000000000000
FFFF00000000000000
FFFF80000000000000
7FFF80000000000000
7FFF800000001FFFC0
7FFF800000003FFFC0
7FFFC00000003FFFC0
7FFFC00000003FFF80
3FFFE00000007FFF80
3FFFE00000007FFF80
3FFFF0000000FFFF80
1FFFF0000000FFFF00
1FFFF8000001FFFF00
0FFFFC000003FFFE00
0FFFFE000007FFFE00
07FFFF00000FFFFC00
07FFFFC0003FFFFC00
03FFFFF000FFFFF800
03FFFFFFFFFFFFF800
01FFFFFFFFFFFFF000
00FFFFFFFFFFFFE000
007FFFFFFFFFFFC000
003FFFFFFFFFFFC000
001FFFFFFFFFFF8000
000FFFFFFFFFFF0000
0007FFFFFFFFFC0000
0003FFFFFFFFF80000
0000FFFFFFFFE00000
00003FFFFFFFC00000
00000FFFFFFE000000
000001FFFFF8000000
0000001FFF00000000
ENDCHAR
STARTCHAR D
ENCODING 68
SWIDTH 722 0
DWIDTH 75 0
BBX 63 75 8 0
BITMAP
FFFFFFFFFE000000
FFFFFFFFFFE00000
FFFFFFFFFFFC0000
FFFFFFFFFFFF0000
FFFFFFFFFFFFC000
FFFFFFFFFFFFE000
FFFFFFFFFFFFF800
FFFFFFFFFFFFFC00
FFFFFFFFFFFFFE00
FFFFFFFFFFFFFE00
FFFFFFFFFFFFFF00
FFFFFFFFFFFFFF80
FFFFFFFFFFFFFFC0
FFFE00001FFFFFC0
FFFE000003FFFFE0
FFFE000000FFFFE0
FFFE0000007FFFF0
FFFE0000003FFFF0
FFFE0000001FFFF0
FFFE0000000FFFF8
FFFE0000000FFFF8
FFFE00000007FFF8
FFFE00000007FFFC
FFFE00000007FFFC
FFFE00000003FFFC
FFFE00000003FFFC
FFFE00000003FFFE
FFFE00000001FFFE
FFFE00000001FFFE
FFFE00000001FFFE
FFFE00000001FFFE
FFFE00000001FFFE
FFFE00000001FFFE
FFFE00000001FFFE
FFFE00000001FFFE
FFFE00000001FFFE
FFFE00000001FFFE
FFFE00000001FFFE
FFFE00000001FFFE
FFFE00000001FFFE
FFFE00000001FFFE
FFFE00000001FFFE
FFFE00000001FFFE
FFFE00000001FFFE
FFFE00000001FFFE
FFFE00000001FFFC
FFFE00000003FFFC
FFFE00000003FFFC
FFFE00000003FFFC
FFFE00000003FFFC
FFFE00000007FFF8
FFFE00000007FFF8
FFFE0000000FFFF8
FFFE0000000FFFF8
FFFE0000001FFFF0
FFFE0000001FFFF0
FFFE0000003FFFE0
FFFE0000007FFFE0
FFFE000000FFFFE0
FFFE000001FFFFC0
FFFE000007FFFFC0
FFFE00001FFFFF80
FFFFFFFFFFFFFF00
FFFFFFFFFFFFFF00
FFFFFFFFFFFFFE00
FFFFFFFFFFFFFC00
FFFFFFFFFFFFF800
FFFFFFFFFFFFF000
FFFFFFFFFFFFE000
FFFFFFFFFFFFC000
FFFFFFFFFFFF0000
FFFFFFFFFFFE0000
FFFFFFFFFFF80000
FFFFFFFFFFC00000
FFFFFFFFFC000000
ENDCHAR
STARTCHAR E
ENCODING 69
SWIDTH 667 0
DWIDTH 69 0
BBX 57 75 8 0
BITMAP
FFFFFFFFFFFFFE00
FFFFFFFFFFFFFE00
FFFFFFFFFFFFFE00
FFFFFFFFFFFFFE00
FFFFFFFFFFFFFE00
FFFFFFFFFFFFFE00
FFFFFFFFFFFFFE00
FFFFFFFFFFFFFE00
FFFFFFFFFFFFFE00
FFFFFFFFFFFFFE00
FFFFFFFFFFFFFE00
FFFFFFFFFFFFFE00
FFFFFFFFFFFFFE00
FFFE000000000000
FFFE000000000000
FFFE000000000000
FFFE000000000000
FFFE000000000000
FFFE000000000000
FFFE000000000000
FFFE000000000000
FFFE000000000000
FFFE000000000000
FFFE000000000000
FFFE000000000000
FFFE000000000000
FFFE000000000000
FFFE000000000000
FFFE000000000000
FFFFFFFFFFFFF000
FFFFFFFFFFFFF000
FFFFFFFFFFFFF000
FFFFFFFFFFFFF000
FFFFFFFFFFFFF000
FFFFFFFFFFFFF000
FFFFFFFFFFFFF000
FFFFFFFFFFFFF000
FFFFFFFFFFFFF000
FFFFFFFFFFFFF000
FFFFFFFFFFFFF000
FFFFFFFFFFFFF000
FFFFFFFFFFFFF000
FFFE000000000000
FFFE000000000000
FFFE000000000000
FFFE000000000000
FFFE000000000000
FFFE000000000000
FFFE000000000000
FFFE000000000000
FFFE000000000000
FFFE000000000000
FFFE000000000000
FFFE000000000000
FFFE000000000000
FFFE000000000000
FFFE000000000000
FFFE000000000000
FFFE000000000000
FFFE000000000000
FFFE000000000000
FFFE000000000000
FFFFFFFFFFFFFF80
FFFFFFFFFFFFFF80
FFFFFFFFFFFFFF80
FFFFFFFFFFFFFF80
FFFFFFFFFFFFFF80
FFFFFFFFFFFFFF80
FFFFFFFFFFFFFF80
FFFFFFFFFFFFFF80
FFFFFFFFFFFFFF80
FFFFFFFFFFFFFF80
FFFFFFFFFFFFFF80
FFFFFFFFFFFFFF80
FFFFFFFFFFFFFF80
ENDCHAR
STARTCHAR F
ENCODING 70
SWIDTH 611 0
DWIDTH 64 0
BBX 53 75 8 0
BITMAP
FFFFFFFFFFFFF8
FFFFFFFFFFFFF8
FFFFFFFFFFFFF8
FFFFFFFFFFFFF8
FFFFFFFFFFFFF8
FFFFFFFFFFFFF8
FFFFFFFFFFFFF8
FFFFFFFFFFFFF8
FFFFFFFFFFFFF8
FFFFFFFFFFFFF8
FFFFFFFFFFFFF8
FFFFFFFFFFFFF8
FFFFFFFFFFFFF8
FFFF0000000000
FFFF0000000000
FFFF0000000000
FFFF0000000000
FFFF0000000000
FFFF0000000000
FFFF0000000000
FFFF0000000000
FFFF0000000000
FFFF0000000000
FFFF0000000000
FFFF0000000000
FFFF0000000000
FFFF0000000000
FFFF0000000000
FFFF0000000000
FFFF0000000000
FFFFFFFFFFFF00
FFFFFFFFFFFF00
FFFFFFFFFFFF00
FFFFFFFFFFFF00
FFFFFFFFFFFF00
FFFFFFFFFFFF00
FFFFFFFFFFFF00
FFFFFFFFFFFF00
FFFFFFFFFFFF00
FFFFFFFFFFFF00
FFFFFFFFFFFF00
FFFFFFFFFFFF00
FFFFFFFFFFFF00
FFFF0000000000
FFFF0000000000
FFFF0000000000
FFFF0000000000
FFFF0000000000
FFFF0000000000
FFFF0000000000
FFFF0000000000
FFFF0000000000
FFFF0000000000
FFFF0000000000
FFFF0000000000
FFFF0000000000
FFFF0000000000
FFFF0000000000
FFFF0000000000
FFFF0000000000
FFFF0000000000
FFFF0000000000
FFFF0000000000
FFFF0000000000
FFFF0000000000
FFFF0000000000
FFFF0000000000
FFFF0000000000
FFFF0000000000
FFFF0000000000
FFFF0000000000
FFFF0000000000
FFFF0000000000
FFFF0000000000
FFFF0000000000
ENDCHAR
STARTCHAR G
ENCODING 71
SWIDTH 778 0
DWIDTH 81 0
BBX 69 79 5 -2
BITMAP
00000007FFE0000000
0000007FFFFF000000
000003FFFFFFE00000
00001FFFFFFFF80000
00007FFFFFFFFE0000
0000FFFFFFFFFF8000
0003FFFFFFFFFFC000
0007FFFFFFFFFFE000
000FFFFFFFFFFFF800
001FFFFFFFFFFFFC00
003FFFFFFFFFFFFE00
007FFFFFFFFFFFFE00
00FFFFFFFFFFFFFF00
01FFFFFF007FFFFF80
01FFFFF8000FFFFF80
03FFFFE00003FFFFC0
07FFFF800000FFFFC0
07FFFF0000007FFFE0
0FFFFE0000003FFFE0
0FFFFC0000001FFFF0
1FFFF80000001FFFF0
1FFFF00000000FFFF0
1FFFF00000000FFFF8
3FFFE000000007FFF8
3FFFC000000007FFF8
3FFFC0000000000000
7FFFC0000000000000
7FFF80000000000000
7FFF80000000000000
7FFF80000000000000
FFFF00000000000000
FFFF00000000000000
FFFF00000000000000
FFFF00000000000000
FFFF00000000000000
FFFF00000000000000
FFFF000003FFFFFFF8
FFFF000003FFFFFFF8
FFFF000003FFFFFFF8
FFFF000003FFFFFFF8
FFFF000003FFFFFFF8
FFFF000003FFFFFFF8
FFFF000003FFFFFFF8
FFFF000003FFFFFFF8
FFFF000003FFFFFFF8
FFFF000003FFFFFFF8
FFFF000003FFFFFFF8
FFFF000003FFFFFFF8
FFFF000003FFFFFFF8
FFFF8000000001FFF8
7FFF8000000001FFF8
7FFF8000000001FFF8
7FFF8000000003FFF8
7FFFC000000003FFF8
3FFFC000000003FFF8
3FFFE000000007FFF8
3FFFE000000007FFF8
1FFFF00000000FFFF8
1FFFF80000001FFFF8
1FFFF80000001FFFF8
0FFFFC0000003FFFF8
0FFFFF0000007FFFF8
07FFFF800001FFFFF8
03FFFFE00003FFFFF8
03FFFFF8000FFFFFF8
01FFFFFF80FFFFFFF8
00FFFFFFFFFFFFFFF8
00FFFFFFFFFFFFFFF8
007FFFFFFFFFFF7FF8
003FFFFFFFFFFF7FF8
001FFFFFFFFFFE3FF8
000FFFFFFFFFFC3FF8
0003FFFFFFFFF83FF8
0001FFFFFFFFE03FF8
00007FFFFFFFC03FF8
00001FFFFFFF003FF8
000007FFFFFC001FF8
000000FFFFF0000000
0000000FFF00000000
ENDCHAR
STARTCHAR H
ENCODING 72
SWIDTH 722 0
DWIDTH 75 0
BBX 61 75 7 0
BITMAP
FFFF00000007FFF8
FFFF00000007FFF8
FFFF00000007FFF8
FFFF00000007FFF8
FFFF00000007FFF8
FFFF00000007FFF8
FFFF00000007FFF8
FFFF00000007FFF8
FFFF00000007FFF8
FFFF00000007FFF8
FFFF00000007FFF8
FFFF00000007FFF8
FFFF00000007FFF8
FFFF00000007FFF8
FFFF00000007FFF8
FFFF00000007FFF8
FFFF00000007FFF8
FFFF00000007FFF8
FFFF00000007FFF8
FFFF00000007FFF8
FFFF00000007FFF8
FFFF00000007FFF8
FFFF00000007FFF8
FFFF00000007FFF8
FFFF00000007FFF8
FFFF00000007FFF8
FFFF00000007FFF8
FFFF00000007FFF8
FFFFFFFFFFFFFFF8
FFFFFFFFFFFFFFF8
FFFFFFFFFFFFFFF8
FFFFFFFFFFFFFFF8
FFFFFFFFFFFFFFF8
FFFFFFFFFFFFFFF8
FFFFFFFFFFFFFFF8
FFFFFFFFFFFFFFF8
FFFFFFFFFFFFFFF8
FFFFFFFFFFFFFFF8
FFFFFFFFFFFFFFF8
FFFFFFFFFFFFFFF8
FFFFFFFFFFFFFFF8
FFFF00000007FFF8
FFFF00000007FFF8
FFFF00000007FFF8
FFFF00000007FFF8
FFFF00000007FFF8
FFFF00000007FFF8
FFFF00000007FFF8
FFFF00000007FFF8
FFFF00000007FFF8
FFFF00000007FFF8
FFFF00000007FFF8
FFFF00000007FFF8
FFFF00000007FFF8
FFFF00000007FFF8
FFFF00000007FFF8
FFFF00000007FFF8
FFFF00000007FFF8
FFFF00000007FFF8
FFFF00000007FFF8
FFFF00000007FFF8
FFFF00000007FFF8
FFFF00000007FFF8
FFFF00000007FFF8
FFFF00000007FFF8
FFFF00000007FFF8
FFFF00000007FFF8
FFFF00000007FFF8
FFFF00000007FFF8
FFFF00000007FFF8
FFFF00000007FFF8
FFFF00000007FFF8
FFFF00000007FFF8
FFFF00000007FFF8
FFFF00000007FFF8
ENDCHAR
STARTCHAR I
ENCODING 73
SWIDTH 278 0
DWIDTH 29 0
BBX 15 75 7 0
BITMAP
FFFE
FFFE
FFFE
FFFE
FFFE
FFFE
FFFE
FFFE
FFFE
FFFE
FFFE
FFFE
FFFE
FFFE
FFFE
FFFE
FFFE
FFFE
FFFE
FFFE
FFFE
FFFE
FFFE
FFFE
FFFE
FFFE
FFFE
FFFE
FFFE
FFFE
FFFE
FFFE
FFFE
FFFE
FFFE
FFFE
FFFE
FFFE
FFFE
FFFE
FFFE
FFFE
FFFE
FFFE
FFFE
FFFE
FFFE
FFFE
FFFE
FFFE
FFFE
FFFE
FFFE
FFFE
FFFE
FFFE
FFFE
FFFE
FFFE
FFFE
FFFE
FFFE
FFFE
FFFE
FFFE
FFFE
FFFE
FFFE
FFFE
FFFE
FFFE
FFFE
FFFE
FFFE
FFFE
ENDCHAR
STARTCHAR J
ENCODING 74
SWIDTH 556 0
DWIDTH 58 0
BBX 48 77 2 -2
BITMAP
000000007FFF
000000007FFF
000000007FFF
000000007FFF
000000007FFF
000000007FFF
000000007FFF
000000007FFF
000000007FFF
000000007FFF
000000007FFF
000000007FFF
000000007FFF
000000007FFF
000000007FFF
000000007FFF
000000007FFF
000000007FFF
000000007FFF
000000007FFF
000000007FFF
000000007FFF
000000007FFF
000000007FFF
000000007FFF
000000007FFF
000000007FFF
000000007FFF
000000007FFF
000000007FFF
000000007FFF
000000007FFF
000000007FFF
000000007FFF
000000007FFF
000000007FFF
000000007FFF
000000007FFF
000000007FFF
000000007FFF
000000007FFF
000000007FFF
000000007FFF
000000007FFF
000000007FFF
000000007FFF
000000007FFF
FFFE00007FFF
FFFE00007FFF
FFFE00007FFF
FFFE00007FFF
FFFE00007FFF
FFFE00007FFF
FFFE00007FFF
FFFE00007FFF
7FFE00007FFF
7FFE00007FFF
7FFF00007FFF
7FFF0000FFFF
7FFF0000FFFF
7FFF8000FFFF
7FFF8001FFFE
3FFFC003FFFE
3FFFE007FFFE
3FFFFFFFFFFE
1FFFFFFFFFFC
1FFFFFFFFFFC
0FFFFFFFFFF8
0FFFFFFFFFF8
07FFFFFFFFF0
03FFFFFFFFE0
01FFFFFFFFC0
00FFFFFFFF80
007FFFFFFE00
001FFFFFFC00
0003FFFFE000
00003FFE0000
ENDCHAR
STARTCHAR K
ENCODING 75
SWIDTH 722 0
DWIDTH 75 0
BBX 66 75 9 0
BITMAP
FFFF0000000FFFFF00
FFFF0000001FFFFE00
FFFF0000003FFFFC00
FFFF0000007FFFF800
FFFF000000FFFFF000
FFFF000001FFFFE000
FFFF000003FFFFC000
FFFF000007FFFF8000
FFFF00000FFFFF0000
FFFF00001FFFFE0000
FFFF00003FFFFC0000
FFFF00007FFFF80000
FFFF0000FFFFF00000
FFFF0000FFFFE00000
FFFF0001FFFFC00000
FFFF0003FFFF800000
FFFF0007FFFF000000
FFFF000FFFFE000000
FFFF001FFFFC000000
FFFF003FFFF8000000
FFFF007FFFF0000000
FFFF00FFFFE0000000
FFFF01FFFFC0000000
FFFF03FFFF80000000
FFFF07FFFF00000000
FFFF0FFFFE00000000
FFFF1FFFFC00000000
FFFF3FFFF800000000
FFFF3FFFF000000000
FFFF7FFFE000000000
FFFFFFFFC000000000
FFFFFFFFC000000000
FFFFFFFFE000000000
FFFFFFFFF000000000
FFFFFFFFF800000000
FFFFFFFFF800000000
FFFFFFFFFC00000000
FFFFFFFFFE00000000
FFFFFFFFFF00000000
FFFFFFFFFF00000000
FFFFFFFFFF80000000
FFFFFFFFFFC0000000
FFFFFFFFFFC0000000
FFFFFCFFFFE0000000
FFFFF87FFFF0000000
FFFFF07FFFF8000000
FFFFE03FFFF8000000
FFFFC01FFFFC000000
FFFF801FFFFE000000
FFFF000FFFFF000000
FFFF0007FFFF000000
FFFF0003FFFF800000
FFFF0003FFFFC00000
FFFF0001FFFFC00000
FFFF0000FFFFE00000
FFFF0000FFFFF00000
FFFF00007FFFF80000
FFFF00003FFFF80000
FFFF00003FFFFC0000
FFFF00001FFFFE0000
FFFF00000FFFFF0000
FFFF000007FFFF0000
FFFF000007FFFF8000
FFFF000003FFFFC000
FFFF000001FFFFC000
FFFF000001FFFFE000
FFFF000000FFFFF000
FFFF0000007FFFF800
FFFF0000007FFFF800
FFFF0000003FFFFC00
FFFF0000001FFFFE00
FFFF0000000FFFFF00
FFFF0000000FFFFF00
FFFF00000007FFFF80
FFFF00000003FFFFC0
ENDCHAR
STARTCHAR L
ENCODING 76
SWIDTH 611 0
DWIDTH 64 0
BBX 53 75 8 0
BITMAP
FFFF0000000000
FFFF0000000000
FFFF0000000000
FFFF0000000000
FFFF0000000000
FFFF0000000000
FFFF0000000000
FFFF0000000000
FFFF0000000000
FFFF0000000000
FFFF0000000000
FFFF0000000000
FFFF0000000000
FFFF0000000000
FFFF0000000000
FFFF0000000000
FFFF0000000000
FFFF0000000000
FFFF0000000000
FFFF0000000000
FFFF0000000000
FFFF0000000000
FFFF0000000000
FFFF0000000000
FFFF0000000000
FFFF0000000000
FFFF0000000000
FFFF0000000000
FFFF0000000000
FFFF0000000000
FFFF0000000000
FFFF0000000000
FFFF0000000000
FFFF0000000000
FFFF0000000000
FFFF0000000000
FFFF0000000000
FFFF0000000000
FFFF0000000000
FFFF0000000000
FFFF0000000000
FFFF0000000000
FFFF0000000000
FFFF0000000000
FFFF0000000000
FFFF0000000000
FFFF0000000000
FFFF0000000000
FFFF0000000000
FFFF0000000000
FFFF0000000000
FFFF0000000000
FFFF0000000000
FFFF0000000000
FFFF0000000000
FFFF0000000000
FFFF0000000000
FFFF0000000000
FFFF0000000000
FFFF0000000000
FFFF0000000000
FFFFFFFFFFFFF8
FFFFFFFFFFFFF8
FFFFFFFFFFFFF8
FFFFFFFFFFFFF8
FFFFFFFFFFFFF8
FFFFFFFFFFFFF8
FFFFFFFFFFFFF8
FFFFFFFFFFFFF8
FFFFFFFFFFFFF8
FFFFFFFFFFFFF8
FFFFFFFFFFFFF8
FFFFFFFFFFFFF8
FFFFFFFFFFFFF8
FFFFFFFFFFFFF8
ENDCHAR
STARTCHAR M
ENCODING 77
SWIDTH 833 0
DWIDTH 87 0
BBX 73 75 7 0
BITMAP
FFFFFE0000003FFFFF80
FFFFFE0000003FFFFF80
FFFFFF0000007FFFFF80
FFFFFF0000007FFFFF80
FFFFFF0000007FFFFF80
FFFFFF0000007FFFFF80
FFFFFF0000007FFFFF80
FFFFFF800000FFFFFF80
FFFFFF800000FFFFFF80
FFFFFF800000FFFFFF80
FFFFFF800000FFFFFF80
FFFFFFC00001FFFFFF80
FFFFFFC00001FFFFFF80
FFFFFFC00001FFFFFF80
FFFFFFC00001FFBFFF80
FFFEFFE00001FFBFFF80
FFFEFFE00003FFBFFF80
FFFEFFE00003FFBFFF80
FFFEFFE00003FF3FFF80
FFFEFFE00003FF3FFF80
FFFE7FF00007FF3FFF80
FFFE7FF00007FF3FFF80
FFFE7FF00007FF3FFF80
FFFE7FF00007FE3FFF80
FFFE3FF8000FFE3FFF80
FFFE3FF8000FFE3FFF80
FFFE3FF8000FFE3FFF80
FFFE3FF8000FFC3FFF80
FFFE3FF8000FFC3FFF80
FFFE1FFC001FFC3FFF80
FFFE1FFC001FFC3FFF80
FFFE1FFC001FFC3FFF80
FFFE1FFC001FF83FFF80
FFFE0FFE003FF83FFF80
FFFE0FFE003FF83FFF80
FFFE0FFE003FF83FFF80
FFFE0FFE003FF03FFF80
FFFE0FFF003FF03FFF80
FFFE07FF007FF03FFF80
FFFE07FF007FF03FFF80
FFFE07FF007FF03FFF80
FFFE07FF007FE03FFF80
FFFE07FF80FFE03FFF80
FFFE03FF80FFE03FFF80
FFFE03FF80FFE03FFF80
FFFE03FF80FFC03FFF80
FFFE03FFC0FFC03FFF80
FFFE01FFC1FFC03FFF80
FFFE01FFC1FFC03FFF80
FFFE01FFC1FFC03FFF80
FFFE01FFE1FF803FFF80
FFFE01FFE3FF803FFF80
FFFE00FFE3FF803FFF80
FFFE00FFE3FF803FFF80
FFFE00FFE3FF003FFF80
FFFE00FFF3FF003FFF80
FFFE007FF7FF003FFF80
FFFE007FF7FF003FFF80
FFFE007FF7FF003FFF80
FFFE007FFFFE003FFF80
FFFE007FFFFE003FFF80
FFFE003FFFFE003FFF80
FFFE003FFFFE003FFF80
FFFE003FFFFC003FFF80
FFFE003FFFFC003FFF80
FFFE003FFFFC003FFF80
FFFE001FFFFC003FFF80
FFFE001FFFFC003FFF80
FFFE001FFFF8003FFF80
FFFE001FFFF8003FFF80
FFFE000FFFF8003FFF80
FFFE000FFFF8003FFF80
FFFE000FFFF0003FFF80
FFFE000FFFF0003FFF80
FFFE000FFFF0003FFF80
ENDCHAR
STARTCHAR N
ENCODING 78
SWIDTH 722 0
DWIDTH 75 0
BBX 61 75 7 0
BITMAP
FFFF80000003FFF8
FFFF80000003FFF8
FFFFC0000003FFF8
FFFFE0000003FFF8
FFFFE0000003FFF8
FFFFF0000003FFF8
FFFFF0000003FFF8
FFFFF8000003FFF8
FFFFF8000003FFF8
FFFFFC000003FFF8
FFFFFE000003FFF8
FFFFFE000003FFF8
FFFFFF000003FFF8
FFFFFF000003FFF8
FFFFFF800003FFF8
FFFFFF800003FFF8
FFFFFFC00003FFF8
FFFFFFE00003FFF8
FFFFFFE00003FFF8
FFFFFFF00003FFF8
FFFFFFF00003FFF8
FFFFFFF80003FFF8
FFFFFFF80003FFF8
FFFEFFFC0003FFF8
FFFE7FFE0003FFF8
FFFE7FFE0003FFF8
FFFE3FFF0003FFF8
FFFE3FFF0003FFF8
FFFE1FFF8003FFF8
FFFE1FFF8003FFF8
FFFE0FFFC003FFF8
FFFE07FFC003FFF8
FFFE07FFE003FFF8
FFFE03FFF003FFF8
FFFE03FFF003FFF8
FFFE01FFF803FFF8
FFFE01FFF803FFF8
FFFE00FFFC03FFF8
FFFE007FFC03FFF8
FFFE007FFE03FFF8
FFFE003FFF03FFF8
FFFE003FFF03FFF8
FFFE001FFF83FFF8
FFFE001FFF83FFF8
FFFE000FFFC3FFF8
FFFE0007FFC3FFF8
FFFE0007FFE3FFF8
FFFE0003FFF3FFF8
FFFE0003FFF3FFF8
FFFE0001FFFBFFF8
FFFE0001FFFBFFF8
FFFE0000FFFFFFF8
FFFE00007FFFFFF8
FFFE00007FFFFFF8
FFFE00003FFFFFF8
FFFE00003FFFFFF8
FFFE00001FFFFFF8
FFFE00001FFFFFF8
FFFE00000FFFFFF8
FFFE000007FFFFF8
FFFE000007FFFFF8
FFFE000003FFFFF8
FFFE000003FFFFF8
FFFE000001FFFFF8
FFFE000001FFFFF8
FFFE000000FFFFF8
FFFE0000007FFFF8
FFFE0000007FFFF8
FFFE0000003FFFF8
FFFE0000003FFFF8
FFFE0000001FFFF8
FFFE0000001FFFF8
FFFE0000000FFFF8
FFFE00000007FFF8
FFFE00000007FFF8
ENDCHAR
STARTCHAR O
ENCODING 79
SWIDTH 778 0
DWIDTH 81 0
BBX 71 79 5 -2
BITMAP
00000003FFC0000000
0000007FFFFC000000
000003FFFFFFC00000
00001FFFFFFFF00000
00007FFFFFFFFC0000
0001FFFFFFFFFF0000
0003FFFFFFFFFF8000
0007FFFFFFFFFFC000
001FFFFFFFFFFFF000
003FFFFFFFFFFFF800
007FFFFFFFFFFFFC00
00FFFFFFFFFFFFFE00
00FFFFFFFFFFFFFE00
01FFFFFF01FFFFFF00
03FFFFF0003FFFFF80
07FFFFC00007FFFFC0
07FFFF800003FFFFC0
0FFFFE000000FFFFE0
0FFFFC0000007FFFE0
1FFFF80000003FFFF0
1FFFF00000001FFFF0
1FFFF00000001FFFF0
3FFFE00000000FFFF8
3FFFE00000000FFFF8
3FFFC000000007FFF8
7FFFC000000007FFFC
7FFF8000000003FFFC
7FFF8000000003FFFC
7FFF8000000003FFFC
FFFF0000000001FFFE
FFFF0000000001FFFE
FFFF0000000001FFFE
FFFF0000000001FFFE
FFFF0000000001FFFE
FFFE0000000000FFFE
FFFE0000000000FFFE
FFFE0000000000FFFE
FFFE0000000000FFFE
FFFE0000000000FFFE
FFFE0000000000FFFE
FFFE0000000000FFFE
FFFE0000000000FFFE
FFFE0000000000FFFE
FFFE0000000000FFFE
FFFE0000000000FFFE
FFFF0000000001FFFE
FFFF0000000001FFFE
FFFF0000000001FFFE
FFFF0000000001FFFE
FFFF0000000001FFFE
7FFF8000000003FFFC
7FFF8000000003FFFC
7FFF8000000003FFFC
7FFFC000000007FFFC
3FFFC000000007FFF8
3FFFE000000007FFF8
3FFFE00000000FFFF8
1FFFF00000001FFFF0
1FFFF00000001FFFF0
1FFFF80000003FFFF0
0FFFFC0000007FFFE0
0FFFFE000000FFFFE0
07FFFF800003FFFFC0
07FFFFC00007FFFF80
03FFFFF0001FFFFF80
01FFFFFF01FFFFFF00
01FFFFFFFFFFFFFE00
00FFFFFFFFFFFFFE00
007FFFFFFFFFFFFC00
003FFFFFFFFFFFF800
001FFFFFFFFFFFF000
0007FFFFFFFFFFC000
0003FFFFFFFFFF8000
0001FFFFFFFFFE0000
00007FFFFFFFFC0000
00001FFFFFFFF00000
000007FFFFFF800000
000000FFFFFC000000
00000007FF80000000
ENDCHAR
STARTCHAR P
ENCODING 80
SWIDTH 667 0
DWIDTH 69 0
BBX 57 75 8 0
BITMAP
FFFFFFFFFF000000
FFFFFFFFFFE00000
FFFFFFFFFFFC0000
FFFFFFFFFFFE0000
FFFFFFFFFFFF8000
FFFFFFFFFFFFC000
FFFFFFFFFFFFE000
FFFFFFFFFFFFF000
FFFFFFFFFFFFF800
FFFFFFFFFFFFF800
FFFFFFFFFFFFFC00
FFFFFFFFFFFFFE00
FFFFFFFFFFFFFE00
FFFF00003FFFFE00
FFFF000007FFFF00
FFFF000001FFFF00
FFFF000000FFFF00
FFFF000000FFFF80
FFFF0000007FFF80
FFFF0000007FFF80
FFFF0000007FFF80
FFFF0000003FFF80
FFFF0000003FFF80
FFFF0000003FFF80
FFFF0000003FFF80
FFFF0000003FFF80
FFFF0000007FFF80
FFFF0000007FFF80
FFFF0000007FFF80
FFFF0000007FFF80
FFFF000000FFFF00
FFFF000001FFFF00
FFFF000003FFFF00
FFFF000007FFFE00
FFFF00003FFFFE00
FFFFFFFFFFFFFE00
FFFFFFFFFFFFFC00
FFFFFFFFFFFFF800
FFFFFFFFFFFFF800
FFFFFFFFFFFFF000
FFFFFFFFFFFFE000
FFFFFFFFFFFFC000
FFFFFFFFFFFF8000
FFFFFFFFFFFF0000
FFFFFFFFFFFE0000
FFFFFFFFFFF80000
FFFFFFFFFFC00000
FFFFFFFFFC000000
FFFF000000000000
FFFF000000000000
FFFF000000000000
FFFF000000000000
FFFF000000000000
FFFF000000000000
FFFF000000000000
FFFF000000000000
FFFF000000000000
FFFF000000000000
FFFF000000000000
FFFF000000000000
FFFF000000000000
FFFF000000000000
FFFF000000000000
FFFF000000000000
FFFF000000000000
FFFF000000000000
FFFF000000000000
FFFF000000000000
FFFF000000000000
FFFF000000000000
FFFF000000000000
FFFF000000000000
FFFF000000000000
FFFF000000000000
FFFF000000000000
ENDCHAR
STARTCHAR Q
ENCODING 81
SWIDTH 778 0
DWIDTH 81 0
BBX 71 82 5 -5
BITMAP
00000003FFC0000000
0000007FFFFC000000
000003FFFFFFC00000
00001FFFFFFFF00000
00007FFFFFFFFC0000
0001FFFFFFFFFF0000
0003FFFFFFFFFF8000
0007FFFFFFFFFFC000
001FFFFFFFFFFFF000
003FFFFFFFFFFFF800
007FFFFFFFFFFFFC00
00FFFFFFFFFFFFFE00
00FFFFFFFFFFFFFE00
01FFFFFF01FFFFFF00
03FFFFF0003FFFFF80
07FFFFC00007FFFFC0
07FFFF800003FFFFC0
0FFFFE000000FFFFE0
0FFFFC0000007FFFE0
1FFFF80000003FFFF0
1FFFF00000001FFFF0
1FFFF00000001FFFF0
3FFFE00000000FFFF8
3FFFE00000000FFFF8
3FFFC000000007FFF8
7FFFC000000007FFFC
7FFF8000000003FFFC
7FFF8000000003FFFC
7FFF8000000003FFFC
FFFF0000000001FFFE
FFFF0000000001FFFE
FFFF0000000001FFFE
FFFF0000000001FFFE
FFFF0000000001FFFE
FFFE0000000000FFFE
FFFE0000000000FFFE
FFFE0000000000FFFE
FFFE0000000000FFFE
FFFE0000000000FFFE
FFFE0000000000FFFE
FFFE0000000000FFFE
FFFE0000000000FFFE
FFFE0000000000FFFE
FFFE0000000000FFFE
FFFE0000000001FFFE
FFFF0000000001FFFE
FFFF0000000001FFFE
FFFF0000000001FFFE
FFFF0000000801FFFE
FFFF0000001C01FFFE
7FFF8000003E03FFFC
7FFF8000007F03FFFC
7FFF800000FF83FFFC
7FFFC00001FFC7FFFC
3FFFC00003FFE7FFF8
3FFFE00003FFFFFFF8
3FFFE00007FFFFFFF8
1FFFF00007FFFFFFF0
1FFFF00003FFFFFFF0
1FFFF80001FFFFFFF0
0FFFFC0000FFFFFFE0
0FFFFE00007FFFFFE0
07FFFF80003FFFFFC0
07FFFFC0000FFFFFC0
03FFFFF0003FFFFF80
01FFFFFF03FFFFFF00
01FFFFFFFFFFFFFF00
00FFFFFFFFFFFFFF80
007FFFFFFFFFFFFFC0
003FFFFFFFFFFFFFE0
001FFFFFFFFFFFFFF0
0007FFFFFFFFFFFFF8
0003FFFFFFFFFFFFFC
0001FFFFFFFFFFFFFE
00007FFFFFFFFDFFFE
00001FFFFFFFF0FFFC
000007FFFFFF807FF8
000000FFFFFC003FF0
00000007FF80001FE0
000000000000000FC0
000000000000000780
000000000000000300
ENDCHAR
STARTCHAR R
ENCODING 82
SWIDTH 722 0
DWIDTH 75 0
BBX 62 75 8 0
BITMAP
FFFFFFFFFFF00000
FFFFFFFFFFFF0000
FFFFFFFFFFFFC000
FFFFFFFFFFFFF000
FFFFFFFFFFFFF800
FFFFFFFFFFFFFC00
FFFFFFFFFFFFFE00
FFFFFFFFFFFFFF00
FFFFFFFFFFFFFF80
FFFFFFFFFFFFFFC0
FFFFFFFFFFFFFFC0
FFFFFFFFFFFFFFE0
FFFFFFFFFFFFFFE0
FFFE000001FFFFF0
FFFE0000007FFFF0
FFFE0000001FFFF0
FFFE0000001FFFF8
FFFE0000000FFFF8
FFFE00000007FFF8
FFFE00000007FFF8
FFFE00000007FFF8
FFFE00000007FFF8
FFFE00000003FFF8
FFFE00000003FFF8
FFFE00000003FFF8
FFFE00000007FFF8
FFFE00000007FFF8
FFFE00000007FFF8
FFFE00000007FFF0
FFFE0000000FFFF0
FFFE0000000FFFF0
FFFE0000001FFFE0
FFFE0000003FFFE0
FFFE000000FFFFC0
FFFFFFFFFFFFFFC0
FFFFFFFFFFFFFF80
FFFFFFFFFFFFFF00
FFFFFFFFFFFFFE00
FFFFFFFFFFFFFC00
FFFFFFFFFFFFF000
FFFFFFFFFFFFC000
FFFFFFFFFFFFF000
FFFFFFFFFFFFFC00
FFFFFFFFFFFFFE00
FFFFFFFFFFFFFF00
FFFFFFFFFFFFFF80
FFFFFFFFFFFFFF80
FFFE000007FFFFC0
FFFE000000FFFFC0
FFFE0000007FFFC0
FFFE0000003FFFC0
FFFE0000003FFFE0
FFFE0000001FFFE0
FFFE0000001FFFE0
FFFE0000001FFFE0
FFFE0000001FFFE0
FFFE0000001FFFE0
FFFE0000001FFFE0
FFFE0000001FFFE0
FFFE0000001FFFE0
FFFE0000001FFFE0
FFFE0000001FFFE0
FFFE0000000FFFE0
FFFE0000000FFFE0
FFFE0000000FFFE0
FFFE0000000FFFE0
FFFE0000000FFFE0
FFFE0000000FFFE0
FFFE0000000FFFE0
FFFE0000000FFFF0
FFFE0000000FFFF0
FFFE0000000FFFF0
FFFE0000000FFFF8
FFFE00000007FFFC
FFFE00000007FFFC
ENDCHAR
STARTCHAR S
ENCODING 83
SWIDTH 667 0
DWIDTH 69 0
BBX 61 79 4 -2
BITMAP
000001FFF8000000
00003FFFFF800000
0001FFFFFFF00000
0007FFFFFFFC0000
001FFFFFFFFF0000
003FFFFFFFFFC000
00FFFFFFFFFFE000
01FFFFFFFFFFF000
03FFFFFFFFFFF800
03FFFFFFFFFFFC00
07FFFFFFFFFFFE00
0FFFFFFFFFFFFE00
0FFFFFFFFFFFFF00
1FFFFF003FFFFF00
1FFFF80007FFFF80
3FFFE00001FFFF80
3FFFC000007FFFC0
3FFF8000003FFFC0
3FFF0000003FFFC0
7FFF0000001FFFE0
7FFF0000001FFFE0
7FFF0000000FFFE0
7FFF0000000FFFE0
7FFF0000000FFFE0
7FFF000000000000
7FFF800000000000
7FFF800000000000
3FFFC00000000000
3FFFF00000000000
3FFFFE0000000000
3FFFFFE000000000
1FFFFFFE00000000
1FFFFFFFE0000000
1FFFFFFFFE000000
0FFFFFFFFFE00000
07FFFFFFFFFC0000
07FFFFFFFFFF8000
03FFFFFFFFFFE000
01FFFFFFFFFFF800
007FFFFFFFFFFE00
003FFFFFFFFFFF00
000FFFFFFFFFFF80
0001FFFFFFFFFFC0
00003FFFFFFFFFC0
000003FFFFFFFFE0
0000003FFFFFFFF0
00000001FFFFFFF0
000000001FFFFFF0
0000000003FFFFF8
00000000007FFFF8
00000000001FFFF8
00000000000FFFF8
000000000007FFF8
000000000003FFF8
FFFE00000003FFF8
FFFE00000003FFF8
FFFE00000003FFF8
FFFF00000003FFF8
FFFF00000003FFF8
7FFF00000003FFF8
7FFF80000003FFF8
7FFFC0000007FFF8
7FFFE000000FFFF0
3FFFF000001FFFF0
3FFFFC00007FFFF0
1FFFFF8003FFFFE0
1FFFFFFFFFFFFFE0
0FFFFFFFFFFFFFC0
07FFFFFFFFFFFF80
07FFFFFFFFFFFF00
03FFFFFFFFFFFF00
01FFFFFFFFFFFE00
00FFFFFFFFFFF800
003FFFFFFFFFF000
001FFFFFFFFFC000
0007FFFFFFFF0000
0000FFFFFFFC0000
00001FFFFFE00000
000000FFFC000000
ENDCHAR
STARTCHAR T
ENCODING 84
SWIDTH 611 0
DWIDTH 64 0
BBX 61 75 1 0
BITMAP
FFFFFFFFFFFFFFF8
FFFFFFFFFFFFFFF8
FFFFFFFFFFFFFFF8
FFFFFFFFFFFFFFF8
FFFFFFFFFFFFFFF8
FFFFFFFFFFFFFFF8
FFFFFFFFFFFFFFF8
FFFFFFFFFFFFFFF8
FFFFFFFFFFFFFFF8
FFFFFFFFFFFFFFF8
FFFFFFFFFFFFFFF8
FFFFFFFFFFFFFFF8
FFFFFFFFFFFFFFF8
000001FFFE000000
000001FFFE000000
000001FFFE000000
000001FFFE000000
000001FFFE000000
000001FFFE000000
000001FFFE000000
000001FFFE000000
000001FFFE000000
000001FFFE000000
000001FFFE000000
000001FFFE000000
000001FFFE000000
000001FFFE000000
000001FFFE000000
000001FFFE000000
000001FFFE000000
000001FFFE000000
000001FFFE000000
000001FFFE000000
000001FFFE000000
000001FFFE000000
000001FFFE000000
000001FFFE000000
000001FFFE000000
000001FFFE000000
000001FFFE000000
000001FFFE000000
000001FFFE000000
000001FFFE000000
000001FFFE000000
000001FFFE000000
000001FFFE000000
000001FFFE000000
000001FFFE000000
000001FFFE000000
000001FFFE000000
000001FFFE000000
000001FFFE000000
000001FFFE000000
000001FFFE000000
000001FFFE000000
000001FFFE000000
000001FFFE000000
000001FFFE000000
000001FFFE000000
000001FFFE000000
000001FFFE000000
000001FFFE000000
000001FFFE000000
000001FFFE000000
000001FFFE000000
000001FFFE000000
000001FFFE000000
000001FFFE000000
000001FFFE000000
000001FFFE000000
000001FFFE000000
000001FFFE000000
000001FFFE000000
000001FFFE000000
000001FFFE000000
ENDCHAR
STARTCHAR U
ENCODING 85
SWIDTH 722 0
DWIDTH 75 0
BBX 61 77 7 -2
BITMAP
FFFF00000007FFF8
FFFF00000007FFF8
FFFF00000007FFF8
FFFF00000007FFF8
FFFF00000007FFF8
FFFF00000007FFF8
FFFF00000007FFF8
FFFF00000007FFF8
FFFF00000007FFF8
FFFF00000007FFF8
FFFF00000007FFF8
FFFF00000007FFF8
FFFF00000007FFF8
FFFF00000007FFF8
FFFF00000007FFF8
FFFF00000007FFF8
FFFF00000007FFF8
FFFF00000007FFF8
FFFF00000007FFF8
FFFF00000007FFF8
FFFF00000007FFF8
FFFF00000007FFF8
FFFF00000007FFF8
FFFF00000007FFF8
FFFF00000007FFF8
FFFF00000007FFF8
FFFF00000007FFF8
FFFF00000007FFF8
FFFF00000007FFF8
FFFF00000007FFF8
FFFF00000007FFF8
FFFF00000007FFF8
FFFF00000007FFF8
FFFF00000007FFF8
FFFF00000007FFF8
FFFF00000007FFF8
FFFF00000007FFF8
FFFF00000007FFF8
FFFF00000007FFF8
FFFF00000007FFF8
FFFF00000007FFF8
FFFF00000007FFF8
FFFF00000007FFF8
FFFF00000007FFF8
FFFF00000007FFF8
FFFF00000007FFF8
FFFF00000007FFF8
FFFF00000007FFF8
FFFF00000007FFF8
FFFF00000007FFF8
7FFF00000007FFF8
7FFF80000007FFF8
7FFF80000007FFF8
7FFF8000000FFFF8
7FFF8000000FFFF0
7FFF8000000FFFF0
7FFFC000000FFFF0
7FFFC000001FFFF0
3FFFE000001FFFF0
3FFFF000003FFFE0
3FFFF800007FFFE0
3FFFFC0000FFFFE0
1FFFFF0003FFFFC0
1FFFFFE03FFFFFC0
0FFFFFFFFFFFFF80
0FFFFFFFFFFFFF80
07FFFFFFFFFFFF00
03FFFFFFFFFFFE00
01FFFFFFFFFFFC00
00FFFFFFFFFFF800
007FFFFFFFFFF000
003FFFFFFFFFE000
000FFFFFFFFF8000
0003FFFFFFFF0000
0000FFFFFFF80000
00001FFFFFC00000
000001FFF8000000
ENDCHAR
STARTCHAR V
ENCODING 86
SWIDTH 667 0
DWIDTH 69 0
BBX 65 75 2 0
BITMAP
FFFF800000007FFF80
FFFF800000007FFF80
7FFF80000000FFFF80
7FFFC0000000FFFF00
7FFFC0000000FFFF00
3FFFC0000000FFFF00
3FFFE0000001FFFE00
3FFFE0000001FFFE00
1FFFE0000001FFFE00
1FFFE0000003FFFC00
1FFFF0000003FFFC00
0FFFF0000003FFFC00
0FFFF0000003FFF800
0FFFF8000007FFF800
07FFF8000007FFF000
07FFF8000007FFF000
07FFF800000FFFF000
03FFFC00000FFFE000
03FFFC00000FFFE000
01FFFC00000FFFE000
01FFFE00001FFFC000
01FFFE00001FFFC000
00FFFE00001FFFC000
00FFFE00003FFF8000
00FFFF00003FFF8000
007FFF00003FFF8000
007FFF00003FFF0000
007FFF00007FFF0000
003FFF80007FFF0000
003FFF80007FFE0000
003FFF8000FFFE0000
001FFFC000FFFE0000
001FFFC000FFFC0000
001FFFC000FFFC0000
000FFFC001FFFC0000
000FFFE001FFF80000
000FFFE001FFF80000
0007FFE003FFF80000
0007FFF003FFF00000
0007FFF003FFF00000
0003FFF003FFF00000
0003FFF007FFE00000
0003FFF807FFE00000
0001FFF807FFE00000
0001FFF80FFFC00000
0001FFFC0FFFC00000
0000FFFC0FFFC00000
0000FFFC0FFF800000
0000FFFC1FFF800000
00007FFE1FFF800000
00007FFE1FFF000000
00007FFE3FFF000000
00003FFF3FFF000000
00003FFF3FFE000000
00003FFF3FFE000000
00001FFF7FFE000000
00001FFFFFFC000000
00001FFFFFFC000000
00000FFFFFFC000000
00000FFFFFF8000000
00000FFFFFF8000000
000007FFFFF8000000
000007FFFFF0000000
000007FFFFF0000000
000003FFFFF0000000
000003FFFFE0000000
000003FFFFE0000000
000001FFFFE0000000
000001FFFFC0000000
000001FFFFC0000000
000000FFFFC0000000
000000FFFF80000000
000000FFFF80000000
0000007FFF80000000
0000007FFF00000000
ENDCHAR
STARTCHAR W
ENCODING 87
SWIDTH 944 0
DWIDTH 98 0
BBX 94 75 2 0
BITMAP
FFFF000001FFFE000001FFFC
FFFF800001FFFF000001FFFC
FFFF800003FFFF000003FFFC
7FFF800003FFFF000003FFFC
7FFF800003FFFF000003FFF8
7FFFC00003FFFF000003FFF8
7FFFC00007FFFF800007FFF8
3FFFC00007FFFF800007FFF8
3FFFC00007FFFF800007FFF0
3FFFE00007FFFF800007FFF0
1FFFE00007FFFFC0000FFFF0
1FFFE00007FFFFC0000FFFE0
1FFFE0000FFFFFC0000FFFE0
1FFFE0000FFFFFC0000FFFE0
0FFFF0000FFFFFC0001FFFE0
0FFFF0000FFFFFE0001FFFC0
0FFFF0000FFFFFE0001FFFC0
07FFF0001FFFFFE0001FFFC0
07FFF8001FFFFFE0001FFF80
07FFF8001FFCFFE0003FFF80
07FFF8001FFCFFF0003FFF80
03FFF8001FFCFFF0003FFF80
03FFFC003FFCFFF0003FFF00
03FFFC003FFCFFF0007FFF00
01FFFC003FFC7FF8007FFF00
01FFFC003FF87FF8007FFE00
01FFFC003FF87FF8007FFE00
01FFFE007FF87FF800FFFE00
00FFFE007FF87FF800FFFE00
00FFFE007FF87FFC00FFFC00
00FFFE007FF03FFC00FFFC00
007FFF007FF03FFC00FFFC00
007FFF00FFF03FFC01FFFC00
007FFF00FFF03FFC01FFF800
007FFF00FFF03FFE01FFF800
003FFF00FFF01FFE01FFF800
003FFF80FFE01FFE03FFF000
003FFF80FFE01FFE03FFF000
003FFF81FFE01FFE03FFF000
001FFF81FFE01FFF03FFF000
001FFFC1FFE00FFF03FFE000
001FFFC1FFC00FFF07FFE000
000FFFC1FFC00FFF07FFE000
000FFFC3FFC00FFF07FFC000
000FFFC3FFC00FFF87FFC000
000FFFE3FF8007FF8FFFC000
0007FFE3FF8007FF8FFFC000
0007FFE3FF8007FF8FFF8000
0007FFE7FF8007FF8FFF8000
0003FFE7FF8007FFCFFF8000
0003FFF7FF0003FFDFFF0000
0003FFF7FF0003FFDFFF0000
0003FFF7FF0003FFDFFF0000
0001FFF7FF0003FFDFFF0000
0001FFFFFF0003FFDFFE0000
0001FFFFFE0001FFFFFE0000
0000FFFFFE0001FFFFFE0000
0000FFFFFE0001FFFFFE0000
0000FFFFFE0001FFFFFC0000
0000FFFFFE0001FFFFFC0000
00007FFFFC0000FFFFFC0000
00007FFFFC0000FFFFF80000
00007FFFFC0000FFFFF80000
00003FFFFC0000FFFFF80000
00003FFFFC0000FFFFF80000
00003FFFF800007FFFF00000
00003FFFF800007FFFF00000
00001FFFF800007FFFF00000
00001FFFF800007FFFE00000
00001FFFF800003FFFE00000
00001FFFF000003FFFE00000
00000FFFF000003FFFE00000
00000FFFF000003FFFC00000
00000FFFF000003FFFC00000
000007FFE000001FFFC00000
ENDCHAR
STARTCHAR X
ENCODING 88
SWIDTH 667 0
DWIDTH 69 0
BBX 66 75 2 0
BITMAP
7FFFF0000003FFFF00
3FFFF0000003FFFE00
3FFFF8000007FFFE00
1FFFF800000FFFFC00
0FFFFC00000FFFF800
0FFFFC00001FFFF800
07FFFE00001FFFF000
07FFFF00003FFFF000
03FFFF00003FFFE000
01FFFF80007FFFC000
01FFFF8000FFFFC000
00FFFFC000FFFF8000
007FFFC001FFFF0000
007FFFE001FFFF0000
003FFFE003FFFE0000
003FFFF003FFFE0000
001FFFF007FFFC0000
000FFFF807FFF80000
000FFFFC0FFFF80000
0007FFFC1FFFF00000
0003FFFE1FFFE00000
0003FFFE3FFFE00000
0001FFFF3FFFC00000
0001FFFF7FFF800000
0000FFFFFFFF800000
00007FFFFFFF000000
00007FFFFFFF000000
00003FFFFFFE000000
00003FFFFFFC000000
00001FFFFFFC000000
00000FFFFFF8000000
00000FFFFFF0000000
000007FFFFF0000000
000003FFFFE0000000
000003FFFFE0000000
000001FFFFC0000000
000001FFFFC0000000
000001FFFFC0000000
000003FFFFE0000000
000003FFFFF0000000
000007FFFFF0000000
000007FFFFF8000000
00000FFFFFFC000000
00001FFFFFFC000000
00001FFFFFFE000000
00003FFFFFFE000000
00007FFFFFFF000000
00007FFFFFFF800000
0000FFFFFFFF800000
0000FFFFFFFFC00000
0001FFFF7FFFE00000
0003FFFF3FFFE00000
0003FFFE3FFFF00000
0007FFFC1FFFF00000
000FFFFC0FFFF80000
000FFFF80FFFFC0000
001FFFF807FFFC0000
003FFFF007FFFE0000
003FFFE003FFFF0000
007FFFE003FFFF0000
007FFFC001FFFF8000
00FFFFC001FFFF8000
01FFFF8000FFFFC000
01FFFF00007FFFE000
03FFFF00007FFFE000
07FFFE00003FFFF000
07FFFE00003FFFF800
0FFFFC00001FFFF800
0FFFF800001FFFFC00
1FFFF800000FFFFC00
3FFFF000000FFFFE00
3FFFF0000007FFFF00
7FFFE0000007FFFF00
FFFFE0000003FFFF80
FFFFC0000001FFFFC0
ENDCHAR
STARTCHAR Y
ENCODING 89
SWIDTH 667 0
DWIDTH 69 0
BBX 66 75 2 0
BITMAP
FFFFC0000000FFFFC0
FFFFE0000000FFFF80
7FFFE0000001FFFF80
7FFFF0000001FFFF00
3FFFF0000003FFFF00
1FFFF8000003FFFE00
1FFFF8000007FFFC00
0FFFFC000007FFFC00
0FFFFC00000FFFF800
07FFFC00000FFFF800
07FFFE00001FFFF000
03FFFE00001FFFF000
03FFFF00001FFFE000
01FFFF00003FFFE000
00FFFF80003FFFC000
00FFFF80007FFFC000
007FFFC0007FFF8000
007FFFC000FFFF8000
003FFFE000FFFF0000
003FFFE001FFFF0000
001FFFF001FFFE0000
001FFFF003FFFC0000
000FFFF803FFFC0000
0007FFF803FFF80000
0007FFFC07FFF80000
0003FFFC07FFF00000
0003FFFE0FFFF00000
0001FFFE0FFFE00000
0001FFFF1FFFE00000
0000FFFF1FFFC00000
0000FFFF3FFFC00000
00007FFFBFFF800000
00007FFFBFFF800000
00003FFFFFFF000000
00001FFFFFFF000000
00001FFFFFFE000000
00000FFFFFFC000000
00000FFFFFFC000000
000007FFFFF8000000
000007FFFFF8000000
000003FFFFF0000000
000003FFFFF0000000
000001FFFFE0000000
000000FFFFE0000000
000000FFFFC0000000
0000007FFFC0000000
0000007FFF80000000
0000007FFF80000000
0000007FFF80000000
0000007FFF80000000
0000007FFF80000000
0000007FFF80000000
0000007FFF80000000
0000007FFF80000000
0000007FFF80000000
0000007FFF80000000
0000007FFF80000000
0000007FFF80000000
0000007FFF80000000
0000007FFF80000000
0000007FFF80000000
0000007FFF80000000
0000007FFF80000000
0000007FFF80000000
0000007FFF80000000
0000007FFF80000000
0000007FFF80000000
0000007FFF80000000
0000007FFF80000000
0000007FFF80000000
0000007FFF80000000
0000007FFF80000000
0000007FFF80000000
0000007FFF80000000
0000007FFF80000000
ENDCHAR
STARTCHAR Z
ENCODING 90
SWIDTH 611 0
DWIDTH 64 0
BBX 58 75 3 0
BITMAP
7FFFFFFFFFFFFFC0
7FFFFFFFFFFFFFC0
7FFFFFFFFFFFFFC0
7FFFFFFFFFFFFFC0
7FFFFFFFFFFFFFC0
7FFFFFFFFFFFFFC0
7FFFFFFFFFFFFFC0
7FFFFFFFFFFFFFC0
7FFFFFFFFFFFFFC0
7FFFFFFFFFFFFFC0
7FFFFFFFFFFFFFC0
7FFFFFFFFFFFFFC0
7FFFFFFFFFFFFFC0
0000000003FFFF80
0000000007FFFF00
000000000FFFFE00
000000000FFFFC00
000000001FFFFC00
000000003FFFF800
000000007FFFF000
00000000FFFFE000
00000000FFFFC000
00000001FFFFC000
00000003FFFF8000
00000007FFFF0000
0000000FFFFE0000
0000000FFFFE0000
0000001FFFFC0000
0000003FFFF80000
0000007FFFF00000
000000FFFFE00000
000000FFFFE00000
000001FFFFC00000
000003FFFF800000
000007FFFF000000
00000FFFFE000000
00000FFFFE000000
00001FFFFC000000
00003FFFF8000000
00007FFFF0000000
00007FFFE0000000
0000FFFFE0000000
0001FFFFC0000000
0003FFFF80000000
0007FFFF00000000
0007FFFE00000000
000FFFFE00000000
001FFFFC00000000
003FFFF800000000
007FFFF000000000
007FFFF000000000
00FFFFE000000000
01FFFFC000000000
03FFFF8000000000
07FFFF0000000000
07FFFF0000000000
0FFFFE0000000000
1FFFFC0000000000
3FFFF80000000000
7FFFF00000000000
7FFFF00000000000
FFFFE00000000000
FFFFFFFFFFFFFFC0
FFFFFFFFFFFFFFC0
FFFFFFFFFFFFFFC0
FFFFFFFFFFFFFFC0
FFFFFFFFFFFFFFC0
FFFFFFFFFFFFFFC0
FFFFFFFFFFFFFFC0
FFFFFFFFFFFFFFC0
FFFFFFFFFFFFFFC0
FFFFFFFFFFFFFFC0
FFFFFFFFFFFFFFC0
FFFFFFFFFFFFFFC0
FFFFFFFFFFFFFFC0
ENDCHAR
STARTCHAR bracketleft
ENCODING 91
SWIDTH 333 0
DWIDTH 35 0
BBX 25 96 7 -20
BITMAP
FFFFFF80
FFFFFF80
FFFFFF80
FFFFFF80
FFFFFF80
FFFFFF80
FFFFFF80
FFFFFF80
FFFFFF80
FFFFFF80
FFF00000
FFF00000
FFF00000
FFF00000
FFF00000
FFF00000
FFF00000
FFF00000
FFF00000
FFF00000
FFF00000
FFF00000
FFF00000
FFF00000
FFF00000
FFF00000
FFF00000
FFF00000
FFF00000
FFF00000
FFF00000
FFF00000
FFF00000
FFF00000
FFF00000
FFF00000
FFF00000
FFF00000
FFF00000
FFF00000
FFF00000
FFF00000
FFF00000
FFF00000
FFF00000
FFF00000
FFF00000
FFF00000
FFF00000
FFF00000
FFF00000
FFF00000
FFF00000
FFF00000
FFF00000
FFF00000
FFF00000
FFF00000
FFF00000
FFF00000
FFF00000
FFF00000
FFF00000
FFF00000
FFF00000
FFF00000
FFF00000
FFF00000
FFF00000
FFF00000
FFF00000
FFF00000
FFF00000
FFF00000
FFF00000
FFF00000
FFF00000
FFF00000
FFF00000
FFF00000
FFF00000
FFF00000
FFF00000
FFF00000
FFF00000
FFF00000
FFFFFF80
FFFFFF80
FFFFFF80
FFFFFF80
FFFFFF80
FFFFFF80
FFFFFF80
FFFFFF80
FFFFFF80
FFFFFF80
ENDCHAR
STARTCHAR backslash
ENCODING 92
SWIDTH 278 0
DWIDTH 29 0
BBX 35 79 -3 -2
BITMAP
FFF0000000
FFF0000000
FFF0000000
7FF8000000
7FF8000000
7FF8000000
7FFC000000
3FFC000000
3FFC000000
3FFE000000
1FFE000000
1FFE000000
1FFE000000
0FFF000000
0FFF000000
0FFF000000
0FFF800000
07FF800000
07FF800000
07FFC00000
03FFC00000
03FFC00000
03FFC00000
01FFE00000
01FFE00000
01FFE00000
01FFF00000
00FFF00000
00FFF00000
00FFF80000
007FF80000
007FF80000
007FF80000
003FFC0000
003FFC0000
003FFC0000
003FFE0000
001FFE0000
001FFE0000
001FFF0000
000FFF0000
000FFF0000
000FFF0000
0007FF8000
0007FF8000
0007FF8000
0007FFC000
0003FFC000
0003FFC000
0003FFE000
0001FFE000
0001FFE000
0001FFE000
0000FFF000
0000FFF000
0000FFF000
0000FFF800
00007FF800
00007FF800
00007FFC00
00003FFC00
00003FFC00
00003FFC00
00001FFE00
00001FFE00
00001FFE00
00001FFF00
00000FFF00
00000FFF00
00000FFF80
000007FF80
000007FF80
000007FF80
000003FFC0
000003FFC0
000003FFC0
000003FFE0
000001FFE0
000001FFE0
ENDCHAR
STARTCHAR bracketright
ENCODING 93
SWIDTH 333 0
DWIDTH 35 0
BBX 26 96 2 -20
BITMAP
FFFFFFC0
FFFFFFC0
FFFFFFC0
FFFFFFC0
FFFFFFC0
FFFFFFC0
FFFFFFC0
FFFFFFC0
FFFFFFC0
FFFFFFC0
0007FFC0
0007FFC0
0007FFC0
0007FFC0
0007FFC0
0007FFC0
0007FFC0
0007FFC0
0007FFC0
0007FFC0
0007FFC0
0007FFC0
0007FFC0
0007FFC0
0007FFC0
0007FFC0
0007FFC0
0007FFC0
0007FFC0
0007FFC0
0007FFC0
0007FFC0
0007FFC0
0007FFC0
0007FFC0
0007FFC0
0007FFC0
0007FFC0
0007FFC0
0007FFC0
0007FFC0
0007FFC0
0007FFC0
0007FFC0
0007FFC0
0007FFC0
0007FFC0
0007FFC0
0007FFC0
0007FFC0
0007FFC0
0007FFC0
0007FFC0
0007FFC0
0007FFC0
0007FFC0
0007FFC0
0007FFC0
0007FFC0
0007FFC0
0007FFC0
0007FFC0
0007FFC0
0007FFC0
0007FFC0
0007FFC0
0007FFC0
0007FFC0
0007FFC0
0007FFC0
0007FFC0
0007FFC0
0007FFC0
0007FFC0
0007FFC0
0007FFC0
0007FFC0
0007FFC0
0007FFC0
0007FFC0
0007FFC0
0007FFC0
0007FFC0
0007FFC0
0007FFC0
0007FFC0
FFFFFFC0
FFFFFFC0
FFFFFFC0
FFFFFFC0
FFFFFFC0
FFFFFFC0
FFFFFFC0
FFFFFFC0
FFFFFFC0
FFFFFFC0
ENDCHAR
STARTCHAR asciicircum
ENCODING 94
SWIDTH 584 0
DWIDTH 61 0
BBX 47 39 7 34
BITMAP
00003FF80000
00007FF80000
00007FFC0000
0000FFFC0000
0000FFFE0000
0000FFFE0000
0001FFFF0000
0001FFFF0000
0003FFFF8000
0003FFFF8000
0007FFFFC000
0007FFFFC000
000FFEFFE000
000FFEFFE000
001FFC7FF000
001FFC7FF000
003FF83FF000
003FF83FF800
007FF03FF800
007FF01FFC00
00FFE01FFC00
00FFE00FFE00
01FFC00FFE00
01FFC007FF00
03FF8007FF00
03FF8003FF80
07FF8003FF80
07FF0001FFC0
0FFF0001FFC0
0FFE0001FFE0
0FFE0000FFE0
1FFC0000FFF0
1FFC00007FF0
3FF800007FF8
3FF800003FF8
7FF000003FFC
7FF000001FFC
FFE000001FFE
FFE000000FFE
ENDCHAR
STARTCHAR underscore
ENCODING 95
SWIDTH 556 0
DWIDTH 58 0
BBX 58 5 0 -13
BITMAP
FFFFFFFFFFFFFFC0
FFFFFFFFFFFFFFC0
FFFFFFFFFFFFFFC0
FFFFFFFFFFFFFFC0
FFFFFFFFFFFFFFC0
ENDCHAR
STARTCHAR grave
ENCODING 96
SWIDTH 333 0
DWIDTH 35 0
BBX 25 15 -2 63
BITMAP
FFFF0000
7FFF8000
3FFF8000
1FFFC000
0FFFE000
07FFE000
03FFF000
01FFF000
00FFF800
007FFC00
003FFC00
001FFE00
000FFF00
0007FF00
0003FF80
ENDCHAR
STARTCHAR a
ENCODING 97
SWIDTH 556 0
DWIDTH 58 0
BBX 52 58 3 -1
BITMAP
00001FFF800000
0001FFFFF80000
000FFFFFFF0000
003FFFFFFFC000
007FFFFFFFE000
00FFFFFFFFF000
01FFFFFFFFF800
03FFFFFFFFFC00
07FFFFFFFFFE00
07FFFFFFFFFE00
0FFFFFFFFFFF00
0FFFFFFFFFFF00
1FFFF001FFFF00
1FFFE000FFFF00
1FFFC0007FFF80
3FFF80003FFF80
3FFF80003FFF80
3FFF00003FFF80
3FFF00003FFF80
000000003FFF80
000000003FFF80
00000000FFFF80
00000007FFFF80
000001FFFFFF80
0000FFFFFFFF80
000FFFFFFFFF80
007FFFFFFFFF80
00FFFFFFFFFF80
03FFFFFFFFFF80
07FFFFFFFFFF80
0FFFFFFFBFFF80
1FFFFFFC3FFF80
1FFFFFC03FFF80
3FFFF8003FFF80
3FFFC0003FFF80
7FFF80003FFF80
7FFF00003FFF80
7FFE00003FFF80
FFFE00003FFF80
FFFE00003FFF80
FFFE00003FFF80
FFFE00007FFF80
FFFE00007FFF80
FFFE0000FFFF80
FFFE0001FFFF80
FFFF0007FFFF80
7FFF801FFFFF80
7FFFF9FFFFFF80
7FFFFFFFFFFF80
3FFFFFFFFFFF80
3FFFFFFFDFFF80
1FFFFFFF9FFF80
1FFFFFFF1FFF80
0FFFFFFE1FFFC0
03FFFFFC1FFFE0
01FFFFF00FFFF0
007FFFC00FFFF0
000FFC00000000
ENDCHAR
STARTCHAR b
ENCODING 98
SWIDTH 611 0
DWIDTH 64 0
BBX 54 76 6 -1
BITMAP
FFFE0000000000
FFFE0000000000
FFFE0000000000
FFFE0000000000
FFFE0000000000
FFFE0000000000
FFFE0000000000
FFFE0000000000
FFFE0000000000
FFFE0000000000
FFFE0000000000
FFFE0000000000
FFFE0000000000
FFFE0000000000
FFFE0000000000
FFFE0000000000
FFFE0000000000
FFFE0000000000
FFFE001FF00000
FFFE01FFFE0000
FFFE07FFFFC000
FFFE0FFFFFE000
FFFE1FFFFFF800
FFFE3FFFFFFC00
FFFE7FFFFFFE00
FFFEFFFFFFFF00
FFFFFFFFFFFF00
FFFFFFFFFFFF80
FFFFFFFFFFFFC0
FFFFFFFFFFFFC0
FFFFFFFFFFFFE0
FFFFFC00FFFFE0
FFFFF0007FFFF0
FFFFE0001FFFF0
FFFFC0000FFFF0
FFFF80000FFFF8
FFFF800007FFF8
FFFF000007FFF8
FFFF000003FFF8
FFFE000003FFFC
FFFE000003FFFC
FFFE000001FFFC
FFFE000001FFFC
FFFE000001FFFC
FFFC000001FFFC
FFFC000001FFFC
FFFC000001FFFC
FFFC000001FFFC
FFFC000001FFFC
FFFC000001FFFC
FFFC000001FFFC
FFFE000001FFFC
FFFE000001FFFC
FFFE000003FFFC
FFFE000003FFF8
FFFE000003FFF8
FFFF000003FFF8
FFFF000007FFF8
FFFF800007FFF0
FFFFC0000FFFF0
FFFFC0001FFFF0
FFFFF0003FFFE0
FFFFF8007FFFE0
FFFFFE01FFFFE0
FFFFFFFFFFFFC0
FFFFFFFFFFFFC0
FFFFFFFFFFFF80
FFFFFFFFFFFF00
FFFFFFFFFFFE00
FFFEFFFFFFFE00
FFFE7FFFFFFC00
FFFE3FFFFFF000
FFFE1FFFFFE000
FFFE07FFFF8000
FFFE01FFFE0000
0000003FF00000
ENDCHAR
STARTCHAR c
ENCODING 99
SWIDTH 556 0
DWIDTH 58 0
BBX 50 58 4 -1
BITMAP
00000FFF000000
0000FFFFF00000
0003FFFFFC0000
000FFFFFFF0000
003FFFFFFFC000
007FFFFFFFE000
00FFFFFFFFF000
01FFFFFFFFF800
03FFFFFFFFFC00
07FFFFFFFFFE00
07FFFFFFFFFE00
0FFFFFFFFFFF00
1FFFFF07FFFF00
1FFFF801FFFF80
3FFFE0007FFF80
3FFFC0007FFFC0
3FFFC0003FFFC0
7FFF80001FFFC0
7FFF00001FFFC0
7FFF00001FFFC0
7FFF00000FFFC0
FFFE0000000000
FFFE0000000000
FFFE0000000000
FFFE0000000000
FFFE0000000000
FFFE0000000000
FFFE0000000000
FFFE0000000000
FFFE0000000000
FFFE0000000000
FFFE0000000000
FFFE0000000000
FFFE0000000000
FFFE0000000000
FFFE0000000000
FFFE00000FFFC0
FFFE00000FFFC0
FFFF00001FFFC0
7FFF00001FFFC0
7FFF80001FFFC0
7FFF80003FFF80
7FFFC0007FFF80
3FFFE000FFFF80
3FFFF001FFFF00
1FFFFC07FFFF00
1FFFFFFFFFFE00
0FFFFFFFFFFC00
0FFFFFFFFFFC00
07FFFFFFFFF800
03FFFFFFFFF000
01FFFFFFFFE000
00FFFFFFFFC000
007FFFFFFF8000
001FFFFFFE0000
0007FFFFF80000
0001FFFFE00000
00001FFE000000
ENDCHAR
STARTCHAR d
ENCODING 100
SWIDTH 611 0
DWIDTH 64 0
BBX 53 76 4 -1
BITMAP
0000000001FFF8
0000000001FFF8
0000000001FFF8
0000000001FFF8
0000000001FFF8
0000000001FFF8
0000000001FFF8
0000000001FFF8
0000000001FFF8
0000000001FFF8
0000000001FFF8
0000000001FFF8
0000000001FFF8
0000000001FFF8
0000000001FFF8
0000000001FFF8
0000000001FFF8
0000000001FFF8
00003FE001FFF8
0001FFFE01FFF8
000FFFFF01FFF8
001FFFFFC1FFF8
007FFFFFE1FFF8
00FFFFFFF1FFF8
01FFFFFFF9FFF8
03FFFFFFFDFFF8
07FFFFFFFDFFF8
07FFFFFFFFFFF8
0FFFFFFFFFFFF8
1FFFFFFFFFFFF8
1FFFFFFFFFFFF8
3FFFFC00FFFFF8
3FFFF0003FFFF8
3FFFE0001FFFF8
7FFFC0000FFFF8
7FFF80000FFFF8
7FFF800007FFF8
FFFF000003FFF8
FFFF000003FFF8
FFFF000003FFF8
FFFE000001FFF8
FFFE000001FFF8
FFFE000001FFF8
FFFE000001FFF8
FFFE000001FFF8
FFFE000001FFF8
FFFE000001FFF8
FFFE000001FFF8
FFFE000001FFF8
FFFE000001FFF8
FFFE000001FFF8
FFFE000001FFF8
FFFE000001FFF8
FFFE000001FFF8
FFFF000001FFF8
FFFF000003FFF8
7FFF000003FFF8
7FFF800007FFF8
7FFF800007FFF8
7FFFC0000FFFF8
3FFFE0001FFFF8
3FFFF0003FFFF8
1FFFF8007FFFF8
1FFFFE03FFFFF8
0FFFFFFFFFFFF8
0FFFFFFFFFFFF8
07FFFFFFFFFFF8
07FFFFFFFFFFF8
03FFFFFFFDFFF8
01FFFFFFFDFFF8
00FFFFFFF9FFF8
007FFFFFF1FFF8
001FFFFFC1FFF8
000FFFFF81FFF8
0003FFFE01FFF8
00003FF0000000
ENDCHAR
STARTCHAR e
ENCODING 101
SWIDTH 556 0
DWIDTH 58 0
BBX 53 58 2 -1
BITMAP
000007FF800000
00007FFFF80000
0003FFFFFE0000
000FFFFFFF8000
001FFFFFFFE000
003FFFFFFFF000
007FFFFFFFF800
00FFFFFFFFFC00
01FFFFFFFFFE00
03FFFFFFFFFE00
07FFFFFFFFFF00
07FFFFFFFFFF80
0FFFFE03FFFF80
0FFFF800FFFFC0
1FFFE0003FFFC0
1FFFC0001FFFE0
3FFFC0000FFFE0
3FFF80000FFFE0
3FFF800007FFF0
7FFF000007FFF0
7FFF000007FFF0
7FFF000003FFF0
7FFF000003FFF0
7FFE000003FFF8
7FFFFFFFFFFFF8
7FFFFFFFFFFFF8
FFFFFFFFFFFFF8
FFFFFFFFFFFFF8
FFFFFFFFFFFFF8
FFFFFFFFFFFFF8
FFFFFFFFFFFFF8
7FFFFFFFFFFFF8
7FFFFFFFFFFFF8
7FFE0000000000
7FFE0000000000
7FFE0000000000
7FFE0000000000
7FFF0000000000
7FFF0000000000
3FFF0000000000
3FFF800007FFF0
3FFF800007FFF0
1FFFC0000FFFF0
1FFFE0000FFFE0
1FFFF8003FFFE0
0FFFFE00FFFFC0
0FFFFFFFFFFFC0
07FFFFFFFFFF80
03FFFFFFFFFF00
01FFFFFFFFFF00
01FFFFFFFFFE00
00FFFFFFFFFC00
003FFFFFFFF800
001FFFFFFFE000
000FFFFFFFC000
0003FFFFFF0000
00007FFFF80000
000007FF800000
ENDCHAR
STARTCHAR f
ENCODING 102
SWIDTH 333 0
DWIDTH 35 0
BBX 32 76 1 0
BITMAP
00001FFF
0000FFFF
0003FFFF
0007FFFF
000FFFFF
001FFFFF
003FFFFF
003FFFFF
007FFFFF
007FFFFF
007FFFFF
00FFFFFF
00FFFF00
00FFFE00
00FFFE00
00FFFE00
00FFFE00
00FFFE00
00FFFE00
00FFFE00
00FFFE00
FFFFFFFF
FFFFFFFF
FFFFFFFF
FFFFFFFF
FFFFFFFF
FFFFFFFF
FFFFFFFF
FFFFFFFF
FFFFFFFF
FFFFFFFF
00FFFE00
00FFFE00
00FFFE00
00FFFE00
00FFFE00
00FFFE00
00FFFE00
00FFFE00
00FFFE00
00FFFE00
00FFFE00
00FFFE00
00FFFE00
00FFFE00
00FFFE00
00FFFE00
00FFFE00
00FFFE00
00FFFE00
00FFFE00
00FFFE00
00FFFE00
00FFFE00
00FFFE00
00FFFE00
00FFFE00
00FFFE00
00FFFE00
00FFFE00
00FFFE00
00FFFE00
00FFFE00
00FFFE00
00FFFE00
00FFFE00
00FFFE00
00FFFE00
00FFFE00
00FFFE00
00FFFE00
00FFFE00
00FFFE00
00FFFE00
00FFFE00
00FFFE00
ENDCHAR
STARTCHAR g
ENCODING 103
SWIDTH 611 0
DWIDTH 64 0
BBX 54 80 4 -23
BITMAP
00003FF0000000
0001FFFE000000
0007FFFF80FFFC
001FFFFFE0FFFC
003FFFFFF0FFFC
007FFFFFF8FFFC
00FFFFFFF8FFFC
01FFFFFFFCFFFC
03FFFFFFFEFFFC
07FFFFFFFEFFFC
07FFFFFFFFFFFC
0FFFFFFFFFFFFC
0FFFFFFFFFFFFC
1FFFFC01FFFFFC
1FFFF8007FFFFC
3FFFF0003FFFFC
3FFFE0001FFFFC
3FFFC0000FFFFC
7FFF80000FFFFC
7FFF800007FFFC
7FFF800007FFFC
7FFF000003FFFC
7FFF000003FFFC
FFFF000003FFFC
FFFF000001FFFC
FFFE000001FFFC
FFFE000001FFFC
FFFE000001FFFC
FFFE000001FFFC
FFFE000001FFFC
FFFE000001FFFC
FFFE000001FFFC
FFFE000001FFFC
FFFE000001FFFC
FFFF000001FFFC
7FFF000003FFFC
7FFF000003FFFC
7FFF000003FFFC
7FFF800003FFFC
7FFF800007FFFC
3FFFC00007FFFC
3FFFC0000FFFFC
3FFFE0001FFFFC
1FFFF0003FFFFC
1FFFFC00FFFFFC
1FFFFF87FFFFFC
0FFFFFFFFFFFFC
07FFFFFFFFFFFC
07FFFFFFFFFFFC
03FFFFFFFFFFFC
01FFFFFFFDFFFC
00FFFFFFFDFFFC
007FFFFFF9FFFC
003FFFFFF1FFFC
001FFFFFE1FFFC
0007FFFFC1FFFC
0001FFFF01FFFC
00001FF801FFF8
0000000001FFF8
0000000001FFF8
0000000001FFF8
0000000003FFF8
0000000003FFF8
7FFF800003FFF8
3FFFC00007FFF8
3FFFC00007FFF0
3FFFE0000FFFF0
3FFFF0003FFFF0
1FFFFC00FFFFE0
1FFFFFFFFFFFE0
0FFFFFFFFFFFC0
0FFFFFFFFFFF80
07FFFFFFFFFF00
03FFFFFFFFFE00
01FFFFFFFFFC00
00FFFFFFFFF800
003FFFFFFFE000
000FFFFFFF8000
0001FFFFFC0000
00001FFF800000
ENDCHAR
STARTCHAR h
ENCODING 104
SWIDTH 611 0
DWIDTH 64 0
BBX 50 75 7 0
BITMAP
FFFC0000000000
FFFC0000000000
FFFC0000000000
FFFC0000000000
FFFC0000000000
FFFC0000000000
FFFC0000000000
FFFC0000000000
FFFC0000000000
FFFC0000000000
FFFC0000000000
FFFC0000000000
FFFC0000000000
FFFC0000000000
FFFC0000000000
FFFC0000000000
FFFC0000000000
FFFC0000000000
FFFC003FF00000
FFFC01FFFE0000
FFFC07FFFF8000
FFFC1FFFFFE000
FFFC3FFFFFF000
FFFC7FFFFFF800
FFFCFFFFFFFC00
FFFDFFFFFFFE00
FFFDFFFFFFFE00
FFFFFFFFFFFF00
FFFFFFFFFFFF00
FFFFFFFFFFFF80
FFFFFE0FFFFF80
FFFFF001FFFF80
FFFFE0007FFF80
FFFFC0007FFFC0
FFFF80003FFFC0
FFFF00001FFFC0
FFFF00001FFFC0
FFFE00001FFFC0
FFFE00001FFFC0
FFFE00001FFFC0
FFFE00001FFFC0
FFFC00001FFFC0
FFFC00001FFFC0
FFFC00001FFFC0
FFFC00001FFFC0
FFFC00001FFFC0
FFFC00001FFFC0
FFFC00001FFFC0
FFFC00001FFFC0
FFFC00001FFFC0
FFFC00001FFFC0
FFFC00001FFFC0
FFFC00001FFFC0
FFFC00001FFFC0
FFFC00001FFFC0
FFFC00001FFFC0
FFFC00001FFFC0
FFFC00001FFFC0
FFFC00001FFFC0
FFFC00001FFFC0
FFFC00001FFFC0
FFFC00001FFFC0
FFFC00001FFFC0
FFFC00001FFFC0
FFFC00001FFFC0
FFFC00001FFFC0
FFFC00001FFFC0
FFFC00001FFFC0
FFFC00001FFFC0
FFFC00001FFFC0
FFFC00001FFFC0
FFFC00001FFFC0
FFFC00001FFFC0
FFFC00001FFFC0
FFFC00001FFFC0
ENDCHAR
STARTCHAR i
ENCODING 105
SWIDTH 278 0
DWIDTH 29 0
BBX 15 76 7 0
BITMAP
FFFE
FFFE
FFFE
FFFE
FFFE
FFFE
FFFE
FFFE
FFFE
FFFE
FFFE
FFFE
FFFE
FFFE
0000
0000
0000
0000
0000
0000
0000
FFFE
FFFE
FFFE
FFFE
FFFE
FFFE
FFFE
FFFE
FFFE
FFFE
FFFE
FFFE
FFFE
FFFE
FFFE
FFFE
FFFE
FFFE
FFFE
FFFE
FFFE
FFFE
FFFE
FFFE
FFFE
FFFE
FFFE
FFFE
FFFE
FFFE
FFFE
FFFE
FFFE
FFFE
FFFE
FFFE
FFFE
FFFE
FFFE
FFFE
FFFE
FFFE
FFFE
FFFE
FFFE
FFFE
FFFE
FFFE
FFFE
FFFE
FFFE
FFFE
FFFE
FFFE
FFFE
ENDCHAR
STARTCHAR j
ENCODING 106
SWIDTH 278 0
DWIDTH 29 0
BBX 22 99 0 -23
BITMAP
01FFFC
01FFFC
01FFFC
01FFFC
01FFFC
01FFFC
01FFFC
01FFFC
01FFFC
01FFFC
01FFFC
01FFFC
01FFFC
01FFFC
000000
000000
000000
000000
000000
000000
000000
01FFFC
01FFFC
01FFFC
01FFFC
01FFFC
01FFFC
01FFFC
01FFFC
01FFFC
01FFFC
01FFFC
01FFFC
01FFFC
01FFFC
01FFFC
01FFFC
01FFFC
01FFFC
01FFFC
01FFFC
01FFFC
01FFFC
01FFFC
01FFFC
01FFFC
01FFFC
01FFFC
01FFFC
01FFFC
01FFFC
01FFFC
01FFFC
01FFFC
01FFFC
01FFFC
01FFFC
01FFFC
01FFFC
01FFFC
01FFFC
01FFFC
01FFFC
01FFFC
01FFFC
01FFFC
01FFFC
01FFFC
01FFFC
01FFFC
01FFFC
01FFFC
01FFFC
01FFFC
01FFFC
01FFFC
01FFFC
01FFFC
01FFFC
01FFFC
01FFFC
01FFFC
01FFFC
01FFFC
01FFFC
01FFFC
03FFFC
FFFFF8
FFFFF8
FFFFF8
FFFFF8
FFFFF0
FFFFF0
FFFFE0
FFFFE0
FFFFC0
FFFF80
FFFE00
FFE000
ENDCHAR
STARTCHAR k
ENCODING 107
SWIDTH 556 0
DWIDTH 58 0
BBX 51 75 7 0
BITMAP
FFFE0000000000
FFFE0000000000
FFFE0000000000
FFFE0000000000
FFFE0000000000
FFFE0000000000
FFFE0000000000
FFFE0000000000
FFFE0000000000
FFFE0000000000
FFFE0000000000
FFFE0000000000
FFFE0000000000
FFFE0000000000
FFFE0000000000
FFFE0000000000
FFFE0000000000
FFFE0000000000
FFFE0000000000
FFFE0000000000
FFFE00007FFFC0
FFFE0000FFFFC0
FFFE0001FFFF80
FFFE0003FFFF00
FFFE0007FFFE00
FFFE000FFFFC00
FFFE001FFFF800
FFFE003FFFF000
FFFE003FFFE000
FFFE007FFFC000
FFFE00FFFF8000
FFFE01FFFF0000
FFFE03FFFE0000
FFFE07FFFE0000
FFFE0FFFFC0000
FFFE1FFFF80000
FFFE1FFFF00000
FFFE3FFFE00000
FFFE7FFFC00000
FFFEFFFF800000
FFFFFFFF000000
FFFFFFFF000000
FFFFFFFF000000
FFFFFFFF800000
FFFFFFFF800000
FFFFFFFFC00000
FFFFFFFFC00000
FFFFFFFFE00000
FFFFFFFFF00000
FFFFFFFFF00000
FFFFFFFFF80000
FFFFFFFFF80000
FFFFF7FFFC0000
FFFFE3FFFE0000
FFFFC3FFFE0000
FFFF81FFFF0000
FFFF00FFFF0000
FFFE00FFFF8000
FFFE007FFFC000
FFFE007FFFC000
FFFE003FFFE000
FFFE003FFFE000
FFFE001FFFF000
FFFE000FFFF800
FFFE000FFFF800
FFFE0007FFFC00
FFFE0007FFFC00
FFFE0003FFFE00
FFFE0003FFFF00
FFFE0001FFFF00
FFFE0001FFFF80
FFFE0000FFFF80
FFFE00007FFFC0
FFFE00007FFFE0
FFFE00003FFFE0
ENDCHAR
STARTCHAR l
ENCODING 108
SWIDTH 278 0
DWIDTH 29 0
BBX 15 75 7 0
BITMAP
FFFE
FFFE
FFFE
FFFE
FFFE
FFFE
FFFE
FFFE
FFFE
FFFE
FFFE
FFFE
FFFE
FFFE
FFFE
FFFE
FFFE
FFFE
FFFE
FFFE
FFFE
FFFE
FFFE
FFFE
FFFE
FFFE
FFFE
FFFE
FFFE
FFFE
FFFE
FFFE
FFFE
FFFE
FFFE
FFFE
FFFE
FFFE
FFFE
FFFE
FFFE
FFFE
FFFE
FFFE
FFFE
FFFE
FFFE
FFFE
FFFE
FFFE
FFFE
FFFE
FFFE
FFFE
FFFE
FFFE
FFFE
FFFE
FFFE
FFFE
FFFE
FFFE
FFFE
FFFE
FFFE
FFFE
FFFE
FFFE
FFFE
FFFE
FFFE
FFFE
FFFE
FFFE
FFFE
ENDCHAR
STARTCHAR m
ENCODING 109
SWIDTH 889 0
DWIDTH 92 0
BBX 79 57 7 0
BITMAP
0000007FE00000FF8000
000003FFFC0007FFF000
FFFC0FFFFE001FFFFC00
FFFC1FFFFF803FFFFF00
FFFC3FFFFFC0FFFFFF80
FFFC7FFFFFE0FFFFFFC0
FFFCFFFFFFE1FFFFFFE0
FFFDFFFFFFF3FFFFFFF0
FFFFFFFFFFFFFFFFFFF0
FFFFFFFFFFFFFFFFFFF8
FFFFFFFFFFFFFFFFFFF8
FFFFFFFFFFFFFFFFFFFC
FFFFF87FFFFFFC3FFFFC
FFFFC00FFFFFE007FFFC
FFFF8003FFFFC003FFFE
FFFF0001FFFF8001FFFE
FFFF0001FFFF0001FFFE
FFFE0001FFFF0000FFFE
FFFE0000FFFE0000FFFE
FFFE0000FFFE0000FFFE
FFFC0000FFFE0000FFFE
FFFC0000FFFE0000FFFE
FFFC0000FFFE0000FFFE
FFFC0000FFFE0000FFFE
FFFC0000FFFE0000FFFE
FFFC0000FFFE0000FFFE
FFFC0000FFFE0000FFFE
FFFC0000FFFE0000FFFE
FFFC0000FFFE0000FFFE
FFFC0000FFFE0000FFFE
FFFC0000FFFE0000FFFE
FFFC0000FFFE0000FFFE
FFFC0000FFFE0000FFFE
FFFC0000FFFE0000FFFE
FFFC0000FFFE0000FFFE
FFFC0000FFFE0000FFFE
FFFC0000FFFE0000FFFE
FFFC0000FFFE0000FFFE
FFFC0000FFFE0000FFFE
FFFC0000FFFE0000FFFE
FFFC0000FFFE0000FFFE
FFFC0000FFFE0000FFFE
FFFC0000FFFE0000FFFE
FFFC0000FFFE0000FFFE
FFFC0000FFFE0000FFFE
FFFC0000FFFE0000FFFE
FFFC0000FFFE0000FFFE
FFFC0000FFFE0000FFFE
FFFC0000FFFE0000FFFE
FFFC0000FFFE0000FFFE
FFFC0000FFFE0000FFFE
FFFC0000FFFE0000FFFE
FFFC0000FFFE0000FFFE
FFFC0000FFFE0000FFFE
FFFC0000FFFE0000FFFE
FFFC0000FFFE0000FFFE
FFFC0000FFFE0000FFFE
ENDCHAR
STARTCHAR n
ENCODING 110
SWIDTH 611 0
DWIDTH 64 0
BBX 50 57 7 0
BITMAP
0000003FF00000
000001FFFE0000
FFFC07FFFF8000
FFFC1FFFFFE000
FFFC3FFFFFF000
FFFC7FFFFFF800
FFFCFFFFFFFC00
FFFDFFFFFFFE00
FFFDFFFFFFFE00
FFFFFFFFFFFF00
FFFFFFFFFFFF00
FFFFFFFFFFFF80
FFFFFE0FFFFF80
FFFFF001FFFF80
FFFFE0007FFF80
FFFFC0007FFFC0
FFFF80003FFFC0
FFFF00001FFFC0
FFFF00001FFFC0
FFFE00001FFFC0
FFFE00001FFFC0
FFFE00001FFFC0
FFFE00001FFFC0
FFFC00001FFFC0
FFFC00001FFFC0
FFFC00001FFFC0
FFFC00001FFFC0
FFFC00001FFFC0
FFFC00001FFFC0
FFFC00001FFFC0
FFFC00001FFFC0
FFFC00001FFFC0
FFFC00001FFFC0
FFFC00001FFFC0
FFFC00001FFFC0
FFFC00001FFFC0
FFFC00001FFFC0
FFFC00001FFFC0
FFFC00001FFFC0
FFFC00001FFFC0
FFFC00001FFFC0
FFFC00001FFFC0
FFFC00001FFFC0
FFFC00001FFFC0
FFFC00001FFFC0
FFFC00001FFFC0
FFFC00001FFFC0
FFFC00001FFFC0
FFFC00001FFFC0
FFFC00001FFFC0
FFFC00001FFFC0
FFFC00001FFFC0
FFFC00001FFFC0
FFFC00001FFFC0
FFFC00001FFFC0
FFFC00001FFFC0
FFFC00001FFFC0
ENDCHAR
STARTCHAR o
ENCODING 111
SWIDTH 611 0
DWIDTH 64 0
BBX 56 58 4 -1
BITMAP
000003FFC00000
00003FFFFC0000
0001FFFFFF8000
0007FFFFFFE000
000FFFFFFFF000
003FFFFFFFFC00
007FFFFFFFFE00
00FFFFFFFFFF00
01FFFFFFFFFF80
03FFFFFFFFFFC0
07FFFFFFFFFFE0
0FFFFFFFFFFFE0
0FFFFFC3FFFFF0
1FFFFC003FFFF8
1FFFF0000FFFF8
3FFFE00007FFFC
3FFFC00003FFFC
7FFF800003FFFC
7FFF800001FFFE
7FFF000001FFFE
7FFF000000FFFE
FFFF000000FFFE
FFFE000000FFFF
FFFE0000007FFF
FFFE0000007FFF
FFFE0000007FFF
FFFE0000007FFF
FFFE0000007FFF
FFFE0000007FFF
FFFE0000007FFF
FFFE0000007FFF
FFFE0000007FFF
FFFE0000007FFF
FFFE0000007FFF
FFFE0000007FFF
FFFE000000FFFF
FFFF000000FFFE
FFFF000000FFFE
7FFF000001FFFE
7FFF800001FFFE
7FFF800003FFFC
3FFFC00003FFFC
3FFFE00007FFFC
1FFFF0000FFFF8
1FFFFC003FFFF8
0FFFFFC3FFFFF0
0FFFFFFFFFFFE0
07FFFFFFFFFFE0
03FFFFFFFFFFC0
01FFFFFFFFFF80
00FFFFFFFFFF00
007FFFFFFFFE00
003FFFFFFFFC00
001FFFFFFFF000
0007FFFFFFC000
0001FFFFFF0000
00003FFFFC0000
000003FFC00000
ENDCHAR
STARTCHAR p
ENCODING 112
SWIDTH 611 0
DWIDTH 64 0
BBX 54 79 6 -22
BITMAP
0000003FF00000
000001FFFE0000
FFFC07FFFFC000
FFFC0FFFFFE000
FFFC1FFFFFF800
FFFC3FFFFFFC00
FFFC7FFFFFFE00
FFFCFFFFFFFF00
FFFDFFFFFFFF00
FFFFFFFFFFFF80
FFFFFFFFFFFFC0
FFFFFFFFFFFFC0
FFFFFFFFFFFFE0
FFFFFC00FFFFE0
FFFFF0007FFFF0
FFFFE0001FFFF0
FFFFC0000FFFF0
FFFF80000FFFF8
FFFF800007FFF8
FFFF000007FFF8
FFFF000003FFF8
FFFE000003FFFC
FFFE000003FFFC
FFFE000001FFFC
FFFE000001FFFC
FFFE000001FFFC
FFFE000001FFFC
FFFC000001FFFC
FFFC000001FFFC
FFFC000001FFFC
FFFC000001FFFC
FFFC000001FFFC
FFFE000001FFFC
FFFE000001FFFC
FFFE000001FFFC
FFFE000003FFFC
FFFE000003FFF8
FFFF000003FFF8
FFFF000003FFF8
FFFF000007FFF8
FFFF800007FFF8
FFFFC0000FFFF0
FFFFC0001FFFF0
FFFFF0003FFFF0
FFFFF8007FFFE0
FFFFFE01FFFFE0
FFFFFFFFFFFFC0
FFFFFFFFFFFFC0
FFFFFFFFFFFF80
FFFFFFFFFFFF00
FFFEFFFFFFFE00
FFFEFFFFFFFE00
FFFE7FFFFFFC00
FFFE3FFFFFF000
FFFE1FFFFFE000
FFFE07FFFF8000
FFFE01FFFE0000
FFFE003FF00000
FFFE0000000000
FFFE0000000000
FFFE0000000000
FFFE0000000000
FFFE0000000000
FFFE0000000000
FFFE0000000000
FFFE0000000000
FFFE0000000000
FFFE0000000000
FFFE0000000000
FFFE0000000000
FFFE0000000000
FFFE0000000000
FFFE0000000000
FFFE0000000000
FFFE0000000000
FFFE0000000000
FFFE0000000000
FFFE0000000000
FFFE0000000000
ENDCHAR
STARTCHAR q
ENCODING 113
SWIDTH 611 0
DWIDTH 64 0
BBX 53 79 4 -22
BITMAP
00001FF0000000
0001FFFE01FFF8
0007FFFF81FFF8
001FFFFFC1FFF8
003FFFFFF1FFF8
007FFFFFF1FFF8
00FFFFFFF9FFF8
01FFFFFFFDFFF8
03FFFFFFFFFFF8
07FFFFFFFFFFF8
0FFFFFFFFFFFF8
0FFFFFFFFFFFF8
1FFFFFFFFFFFF8
1FFFFC01FFFFF8
3FFFF0007FFFF8
3FFFE0003FFFF8
3FFFC0001FFFF8
7FFF80000FFFF8
7FFF800007FFF8
7FFF000007FFF8
7FFF000003FFF8
FFFF000003FFF8
FFFE000003FFF8
FFFE000001FFF8
FFFE000001FFF8
FFFE000001FFF8
FFFE000001FFF8
FFFE000001FFF8
FFFE000001FFF8
FFFE000001FFF8
FFFE000001FFF8
FFFE000001FFF8
FFFE000001FFF8
FFFE000001FFF8
FFFE000001FFF8
FFFE000001FFF8
FFFE000003FFF8
FFFF000003FFF8
7FFF000003FFF8
7FFF000007FFF8
7FFF800007FFF8
7FFFC0000FFFF8
3FFFC0001FFFF8
3FFFF0003FFFF8
1FFFF800FFFFF8
1FFFFF07FFFFF8
0FFFFFFFFFFFF8
0FFFFFFFFFFFF8
07FFFFFFFFFFF8
07FFFFFFFFFFF8
03FFFFFFFDFFF8
01FFFFFFFDFFF8
00FFFFFFF9FFF8
007FFFFFF1FFF8
001FFFFFE1FFF8
000FFFFF81FFF8
0003FFFE01FFF8
00003FF001FFF8
0000000001FFF8
0000000001FFF8
0000000001FFF8
0000000001FFF8
0000000001FFF8
0000000001FFF8
0000000001FFF8
0000000001FFF8
0000000001FFF8
0000000001FFF8
0000000001FFF8
0000000001FFF8
0000000001FFF8
0000000001FFF8
0000000001FFF8
0000000001FFF8
0000000001FFF8
0000000001FFF8
0000000001FFF8
0000000001FFF8
0000000001FFF8
ENDCHAR
STARTCHAR r
ENCODING 114
SWIDTH 389 0
DWIDTH 40 0
BBX 32 57 7 0
BITMAP
0000007F
000003FF
FFFC0FFF
FFFC1FFF
FFFC3FFF
FFFC7FFF
FFFC7FFF
FFFCFFFF
FFFDFFFF
FFFDFFFF
FFFFFFFF
FFFFFFFF
FFFFFFFF
FFFFFFFF
FFFFFFFF
FFFFFE00
FFFFF000
FFFFC000
FFFF8000
FFFF8000
FFFF0000
FFFE0000
FFFE0000
FFFE0000
FFFE0000
FFFC0000
FFFC0000
FFFC0000
FFFC0000
FFFC0000
FFFC0000
FFFC0000
FFFC0000
FFFC0000
FFFC0000
FFFC0000
FFFC0000
FFFC0000
FFFC0000
FFFC0000
FFFC0000
FFFC0000
FFFC0000
FFFC0000
FFFC0000
FFFC0000
FFFC0000
FFFC0000
FFFC0000
FFFC0000
FFFC0000
FFFC0000
FFFC0000
FFFC0000
FFFC0000
FFFC0000
FFFC0000
ENDCHAR
STARTCHAR s
ENCODING 115
SWIDTH 556 0
DWIDTH 58 0
BBX 51 58 3 -1
BITMAP
00003FFF000000
0003FFFFF00000
000FFFFFFE0000
003FFFFFFF8000
007FFFFFFFE000
00FFFFFFFFF000
01FFFFFFFFF800
03FFFFFFFFFC00
07FFFFFFFFFC00
0FFFFFFFFFFE00
0FFFFFFFFFFE00
1FFFF807FFFF00
1FFFC000FFFF00
1FFF80007FFF80
1FFF80003FFF80
3FFF00003FFF80
3FFF00001FFF80
3FFF80001FFF80
3FFF8000000000
3FFFE000000000
3FFFF800000000
3FFFFFC0000000
1FFFFFFC000000
1FFFFFFFE00000
1FFFFFFFFC0000
0FFFFFFFFF8000
07FFFFFFFFE000
07FFFFFFFFF800
03FFFFFFFFFC00
00FFFFFFFFFE00
007FFFFFFFFF00
001FFFFFFFFF80
0003FFFFFFFFC0
00007FFFFFFFC0
000007FFFFFFC0
0000003FFFFFE0
00000003FFFFE0
000000007FFFE0
000000001FFFE0
FFFE00000FFFE0
FFFE00000FFFE0
FFFF00000FFFE0
7FFF00000FFFE0
7FFF80000FFFE0
7FFFC0001FFFC0
7FFFE0003FFFC0
3FFFFC01FFFFC0
3FFFFFFFFFFF80
1FFFFFFFFFFF80
0FFFFFFFFFFF00
07FFFFFFFFFE00
07FFFFFFFFFC00
01FFFFFFFFF800
00FFFFFFFFF000
003FFFFFFFC000
000FFFFFFF0000
0001FFFFF80000
00001FFF800000
ENDCHAR
STARTCHAR t
ENCODING 116
SWIDTH 333 0
DWIDTH 35 0
BBX 31 71 1 -1
BITMAP
00FFFC00
00FFFC00
00FFFC00
00FFFC00
00FFFC00
00FFFC00
00FFFC00
00FFFC00
00FFFC00
00FFFC00
00FFFC00
00FFFC00
00FFFC00
00FFFC00
00FFFC00
FFFFFFFE
FFFFFFFE
FFFFFFFE
FFFFFFFE
FFFFFFFE
FFFFFFFE
FFFFFFFE
FFFFFFFE
FFFFFFFE
FFFFFFFE
00FFFC00
00FFFC00
00FFFC00
00FFFC00
00FFFC00
00FFFC00
00FFFC00
00FFFC00
00FFFC00
00FFFC00
00FFFC00
00FFFC00
00FFFC00
00FFFC00
00FFFC00
00FFFC00
00FFFC00
00FFFC00
00FFFC00
00FFFC00
00FFFC00
00FFFC00
00FFFC00
00FFFC00
00FFFC00
00FFFC00
00FFFC00
00FFFC00
00FFFC00
00FFFC00
00FFFC00
00FFFC00
00FFFC00
00FFFE00
00FFFF00
00FFFFFE
00FFFFFE
00FFFFFE
00FFFFFE
00FFFFFE
007FFFFE
007FFFFE
003FFFFE
001FFFFE
0007FFFE
0000FFFE
ENDCHAR
STARTCHAR u
ENCODING 117
SWIDTH 611 0
DWIDTH 64 0
BBX 50 56 7 -1
BITMAP
FFFC00001FFFC0
FFFC00001FFFC0
FFFC00001FFFC0
FFFC00001FFFC0
FFFC00001FFFC0
FFFC00001FFFC0
FFFC00001FFFC0
FFFC00001FFFC0
FFFC00001FFFC0
FFFC00001FFFC0
FFFC00001FFFC0
FFFC00001FFFC0
FFFC00001FFFC0
FFFC00001FFFC0
FFFC00001FFFC0
FFFC00001FFFC0
FFFC00001FFFC0
FFFC00001FFFC0
FFFC00001FFFC0
FFFC00001FFFC0
FFFC00001FFFC0
FFFC00001FFFC0
FFFC00001FFFC0
FFFC00001FFFC0
FFFC00001FFFC0
FFFC00001FFFC0
FFFC00001FFFC0
FFFC00001FFFC0
FFFC00001FFFC0
FFFC00001FFFC0
FFFC00001FFFC0
FFFC00001FFFC0
FFFC00001FFFC0
FFFC00001FFFC0
FFFC00001FFFC0
FFFE00001FFFC0
FFFE00003FFFC0
FFFE00003FFFC0
FFFE00003FFFC0
FFFF00007FFFC0
FFFF0000FFFFC0
FFFF8001FFFFC0
7FFFC007FFFFC0
7FFFFC3FFFFFC0
7FFFFFFFFFFFC0
3FFFFFFFFFFFC0
3FFFFFFFFFFFC0
3FFFFFFFEFFFC0
1FFFFFFFCFFFC0
0FFFFFFFCFFFC0
07FFFFFF8FFFC0
03FFFFFF0FFFC0
01FFFFFC0FFFC0
00FFFFF80FFFC0
003FFFE00FFFC0
0003FE00000000
ENDCHAR
STARTCHAR v
ENCODING 118
SWIDTH 556 0
DWIDTH 58 0
BBX 54 55 2 0
BITMAP
FFFF000001FFFC
FFFF000001FFFC
FFFF000003FFFC
7FFF800003FFF8
7FFF800003FFF8
7FFF800007FFF0
3FFF800007FFF0
3FFFC00007FFF0
3FFFC00007FFE0
1FFFC0000FFFE0
1FFFE0000FFFE0
1FFFE0000FFFC0
0FFFE0001FFFC0
0FFFE0001FFFC0
07FFF0001FFF80
07FFF0003FFF80
07FFF0003FFF00
03FFF8003FFF00
03FFF8003FFF00
03FFF8007FFE00
01FFF8007FFE00
01FFFC007FFE00
01FFFC00FFFC00
00FFFC00FFFC00
00FFFE00FFFC00
007FFE00FFF800
007FFE01FFF800
007FFE01FFF000
003FFF01FFF000
003FFF03FFF000
003FFF03FFE000
001FFF83FFE000
001FFF83FFE000
001FFF87FFC000
000FFF87FFC000
000FFFC7FFC000
0007FFCFFF8000
0007FFCFFF8000
0007FFCFFF0000
0003FFEFFF0000
0003FFFFFF0000
0003FFFFFE0000
0001FFFFFE0000
0001FFFFFE0000
0001FFFFFC0000
0000FFFFFC0000
0000FFFFFC0000
0000FFFFF80000
00007FFFF80000
00007FFFF80000
00003FFFF00000
00003FFFF00000
00003FFFE00000
00001FFFE00000
00001FFFE00000
ENDCHAR
STARTCHAR w
ENCODING 119
SWIDTH 778 0
DWIDTH 81 0
BBX 79 55 1 0
BITMAP
FFFF0000FFFE0000FFFE
FFFF0000FFFE0000FFFE
7FFF0000FFFE0001FFFC
7FFF0001FFFF0001FFFC
7FFF8001FFFF0001FFFC
3FFF8001FFFF0001FFF8
3FFF8001FFFF0001FFF8
3FFF8001FFFF0003FFF8
3FFF8003FFFF8003FFF8
1FFFC003FFFF8003FFF0
1FFFC003FFFF8003FFF0
1FFFC003FFFF8007FFF0
0FFFC003FFFF8007FFE0
0FFFC003FFFFC007FFE0
0FFFE007FFFFC007FFE0
0FFFE007FEFFC007FFC0
07FFE007FEFFC00FFFC0
07FFE007FEFFE00FFFC0
07FFF007FCFFE00FFFC0
03FFF00FFCFFE00FFF80
03FFF00FFC7FE00FFF80
03FFF00FFC7FE01FFF80
03FFF00FFC7FF01FFF00
01FFF80FF87FF01FFF00
01FFF81FF87FF01FFF00
01FFF81FF83FF03FFF00
00FFF81FF83FF03FFE00
00FFFC1FF83FF83FFE00
00FFFC1FF03FF83FFE00
00FFFC3FF01FF83FFC00
007FFC3FF01FF87FFC00
007FFC3FF01FFC7FFC00
007FFE3FE01FFC7FFC00
003FFE3FE01FFC7FF800
003FFE7FE00FFCFFF800
003FFE7FE00FFCFFF800
003FFF7FE00FFEFFF000
001FFF7FC00FFEFFF000
001FFF7FC007FEFFF000
001FFFFFC007FFFFF000
000FFFFFC007FFFFE000
000FFFFFC007FFFFE000
000FFFFF8007FFFFE000
000FFFFF8003FFFFC000
0007FFFF8003FFFFC000
0007FFFF8003FFFFC000
0007FFFF0003FFFFC000
0007FFFF0003FFFF8000
0003FFFF0001FFFF8000
0003FFFF0001FFFF8000
0003FFFF0001FFFF0000
0001FFFE0001FFFF0000
0001FFFE0000FFFF0000
0001FFFE0000FFFE0000
0001FFFE0000FFFE0000
ENDCHAR
STARTCHAR x
ENCODING 120
SWIDTH 556 0
DWIDTH 58 0
BBX 54 55 2 0
BITMAP
7FFFC0000FFFF8
7FFFE0000FFFF8
3FFFE0001FFFF0
1FFFF0003FFFE0
1FFFF8003FFFE0
0FFFF8007FFFC0
07FFFC007FFF80
07FFFC00FFFF80
03FFFE00FFFF00
01FFFF01FFFE00
01FFFF03FFFE00
00FFFF83FFFC00
007FFF87FFF800
007FFFC7FFF800
003FFFCFFFF000
001FFFEFFFE000
001FFFFFFFE000
000FFFFFFFC000
0007FFFFFF8000
0007FFFFFF8000
0003FFFFFF0000
0001FFFFFE0000
0001FFFFFC0000
0000FFFFFC0000
00007FFFF80000
00007FFFF00000
00003FFFF00000
00003FFFF00000
00007FFFF00000
00007FFFF80000
0000FFFFFC0000
0001FFFFFC0000
0001FFFFFE0000
0003FFFFFF0000
0007FFFFFF0000
0007FFFFFF8000
000FFFFFFFC000
001FFFFFFFE000
001FFFFFFFE000
003FFFDFFFF000
007FFFCFFFF800
007FFF8FFFF800
00FFFF07FFFC00
01FFFF03FFFE00
01FFFE03FFFE00
03FFFE01FFFF00
07FFFC01FFFF80
07FFF800FFFF80
0FFFF800FFFFC0
1FFFF0007FFFE0
1FFFF0003FFFE0
3FFFE0003FFFF0
7FFFE0001FFFF8
7FFFC0001FFFF8
FFFF80000FFFFC
ENDCHAR
STARTCHAR y
ENCODING 121
SWIDTH 556 0
DWIDTH 58 0
BBX 55 78 1 -23
BITMAP
FFFF000000FFFE
7FFF800001FFFE
7FFF800001FFFC
7FFF800001FFFC
3FFFC00003FFF8
3FFFC00003FFF8
3FFFC00003FFF8
1FFFC00003FFF0
1FFFE00007FFF0
1FFFE00007FFF0
0FFFE00007FFE0
0FFFF0000FFFE0
0FFFF0000FFFE0
07FFF0000FFFC0
07FFF0000FFFC0
07FFF8001FFFC0
03FFF8001FFF80
03FFF8001FFF80
01FFFC001FFF80
01FFFC003FFF00
01FFFC003FFF00
00FFFC003FFF00
00FFFE007FFE00
00FFFE007FFE00
007FFE007FFE00
007FFF007FFC00
007FFF00FFFC00
003FFF00FFF800
003FFF80FFF800
003FFF80FFF800
001FFF81FFF000
001FFF81FFF000
001FFFC1FFF000
000FFFC3FFE000
000FFFC3FFE000
000FFFE3FFE000
0007FFE3FFC000
0007FFE7FFC000
0003FFE7FFC000
0003FFF7FF8000
0003FFFFFF8000
0001FFFFFF8000
0001FFFFFF0000
0001FFFFFF0000
0000FFFFFF0000
0000FFFFFE0000
0000FFFFFE0000
00007FFFFE0000
00007FFFFC0000
00007FFFFC0000
00003FFFF80000
00003FFFF80000
00003FFFF80000
00001FFFF00000
00001FFFF00000
00000FFFF00000
00000FFFE00000
00000FFFE00000
00000FFFE00000
00000FFFC00000
00000FFFC00000
00000FFFC00000
00001FFF800000
00001FFF800000
00003FFF800000
0000FFFF000000
00FFFFFF000000
00FFFFFE000000
00FFFFFE000000
00FFFFFC000000
00FFFFFC000000
00FFFFF8000000
00FFFFF8000000
00FFFFF0000000
00FFFFE0000000
00FFFFC0000000
00FFFF00000000
00FFF800000000
ENDCHAR
STARTCHAR z
ENCODING 122
SWIDTH 500 0
DWIDTH 52 0
BBX 48 55 2 0
BITMAP
3FFFFFFFFFFE
3FFFFFFFFFFE
3FFFFFFFFFFE
3FFFFFFFFFFE
3FFFFFFFFFFE
3FFFFFFFFFFE
3FFFFFFFFFFE
3FFFFFFFFFFE
3FFFFFFFFFFE
3FFFFFFFFFFE
3FFFFFFFFFFE
3FFFFFFFFFFE
0000000FFFFC
0000001FFFFC
0000003FFFF8
0000007FFFF0
000000FFFFE0
000001FFFFC0
000003FFFF80
000003FFFF00
000007FFFE00
00000FFFFC00
00001FFFF800
00003FFFF000
00007FFFF000
0000FFFFE000
0001FFFFC000
0003FFFF8000
0003FFFF0000
0007FFFE0000
000FFFFC0000
001FFFF80000
003FFFF00000
007FFFE00000
00FFFFE00000
01FFFFC00000
03FFFF800000
03FFFF000000
07FFFE000000
0FFFFC000000
1FFFF8000000
3FFFF0000000
7FFFE0000000
FFFFFFFFFFFF
FFFFFFFFFFFF
FFFFFFFFFFFF
FFFFFFFFFFFF
FFFFFFFFFFFF
FFFFFFFFFFFF
FFFFFFFFFFFF
FFFFFFFFFFFF
FFFFFFFFFFFF
FFFFFFFFFFFF
FFFFFFFFFFFF
FFFFFFFFFFFF
ENDCHAR
STARTCHAR braceleft
ENCODING 123
SWIDTH 389 0
DWIDTH 40 0
BBX 33 96 5 -20
BITMAP
000007FF80
00003FFF80
0000FFFF80
0001FFFF80
0003FFFF80
0007FFFF80
000FFFFF80
001FFFFF80
001FFFFF80
001FFFC000
003FFF0000
003FFE0000
003FFE0000
003FFE0000
003FFE0000
003FFC0000
003FFC0000
003FFC0000
003FFC0000
003FFC0000
003FFC0000
003FFC0000
003FFC0000
003FFC0000
003FFC0000
003FFC0000
003FFC0000
003FFC0000
003FFC0000
003FFC0000
003FFC0000
003FFC0000
003FFC0000
003FFC0000
003FFC0000
003FFC0000
003FFC0000
003FFC0000
007FFC0000
007FFC0000
00FFFC0000
01FFF80000
07FFF80000
FFFFF00000
FFFFE00000
FFFFC00000
FFFF000000
FFFC000000
FFF0000000
FFFE000000
FFFF800000
FFFFC00000
FFFFE00000
1FFFF00000
03FFF80000
01FFF80000
00FFFC0000
007FFC0000
007FFC0000
003FFC0000
003FFC0000
003FFC0000
003FFC0000
003FFC0000
003FFC0000
003FFC0000
003FFC0000
003FFC0000
003FFC0000
003FFC0000
003FFC0000
003FFC0000
003FFC0000
003FFC0000
003FFC0000
003FFC0000
003FFC0000
003FFC0000
003FFC0000
003FFC0000
003FFC0000
003FFE0000
003FFE0000
003FFE0000
003FFE0000
003FFF0000
003FFFC000
001FFFFF80
001FFFFF80
000FFFFF80
0007FFFF80
0007FFFF80
0003FFFF80
0000FFFF80
00007FFF80
00000FFF80
ENDCHAR
STARTCHAR bar
ENCODING 124
SWIDTH 280 0
DWIDTH 29 0
BBX 11 79 9 -2
BITMAP
FFE0
FFE0
FFE0
FFE0
FFE0
FFE0
FFE0
FFE0
FFE0
FFE0
FFE0
FFE0
FFE0
FFE0
FFE0
FFE0
FFE0
FFE0
FFE0
FFE0
FFE0
FFE0
FFE0
FFE0
FFE0
FFE0
FFE0
FFE0
FFE0
FFE0
FFE0
FFE0
FFE0
FFE0
FFE0
FFE0
FFE0
FFE0
FFE0
FFE0
FFE0
FFE0
FFE0
FFE0
FFE0
FFE0
FFE0
FFE0
FFE0
FFE0
FFE0
FFE0
FFE0
FFE0
FFE0
FFE0
FFE0
FFE0
FFE0
FFE0
FFE0
FFE0
FFE0
FFE0
FFE0
FFE0
FFE0
FFE0
FFE0
FFE0
FFE0
FFE0
FFE0
FFE0
FFE0
FFE0
FFE0
FFE0
FFE0
ENDCHAR
STARTCHAR braceright
ENCODING 125
SWIDTH 389 0
DWIDTH 40 0
BBX 33 96 2 -20
BITMAP
FFF8000000
FFFF000000
FFFFC00000
FFFFE00000
FFFFF00000
FFFFF80000
FFFFFC0000
FFFFFC0000
FFFFFE0000
01FFFE0000
007FFE0000
003FFE0000
001FFF0000
001FFF0000
001FFF0000
001FFF0000
001FFF0000
001FFF0000
001FFF0000
001FFF0000
001FFF0000
001FFF0000
001FFF0000
001FFF0000
001FFF0000
001FFF0000
001FFF0000
001FFF0000
001FFF0000
001FFF0000
001FFF0000
001FFF0000
001FFF0000
001FFF0000
001FFF0000
001FFF0000
001FFF0000
001FFF0000
001FFF0000
000FFF8000
000FFFC000
000FFFE000
0007FFF800
0003FFFF80
0001FFFF80
0000FFFF80
00007FFF80
00000FFF80
000003FF80
00003FFF80
00007FFF80
0001FFFF80
0003FFFF80
0007FFFC00
0007FFF000
000FFFC000
000FFF8000
001FFF8000
001FFF0000
001FFF0000
001FFF0000
001FFF0000
001FFF0000
001FFF0000
001FFF0000
001FFF0000
001FFF0000
001FFF0000
001FFF0000
001FFF0000
001FFF0000
001FFF0000
001FFF0000
001FFF0000
001FFF0000
001FFF0000
001FFF0000
001FFF0000
001FFF0000
001FFF0000
001FFF0000
001FFF0000
001FFF0000
001FFF0000
003FFE0000
003FFE0000
00FFFE0000
FFFFFE0000
FFFFFC0000
FFFFFC0000
FFFFF80000
FFFFF00000
FFFFE00000
FFFFC00000
FFFF000000
FFF8000000
ENDCHAR
STARTCHAR asciitilde
ENCODING 126
SWIDTH 584 0
DWIDTH 61 0
BBX 48 18 6 17
BITMAP
007FC0000008
01FFF800001C
07FFFF00003C
0FFFFFC0003C
1FFFFFF0007E
3FFFFFFC00FE
3FFFFFFF83FF
7FFFFFFFFFFF
FFFFFFFFFFFF
7FFFFFFFFFFF
7FF3FFFFFFFE
7F801FFFFFFC
3F0003FFFFF8
3E0000FFFFF0
1C00007FFFE0
1800001FFFC0
18000003FF00
000000003000
ENDCHAR
STARTCHAR exclamdown
ENCODING 161
SWIDTH 333 0
DWIDTH 35 0
BBX 16 74 9 -19
BITMAP
7FFF
7FFF
7FFF
7FFF
7FFF
7FFF
7FFF
7FFF
7FFF
7FFF
7FFF
7FFF
7FFF
7FFF
7FFF
0000
0000
0000
0000
0000
0FF0
0FF0
0FF8
0FF8
0FF8
0FF8
0FF8
0FF8
0FF8
1FF8
1FF8
1FFC
1FFC
1FFC
1FFC
1FFC
1FFC
3FFC
3FFC
3FFE
3FFE
3FFE
3FFE
3FFE
3FFE
7FFE
7FFE
7FFE
7FFF
7FFF
7FFF
7FFF
7FFF
7FFF
FFFF
FFFF
FFFF
FFFF
FFFF
FFFF
FFFF
FFFF
FFFF
FFFF
FFFF
FFFF
FFFF
FFFF
FFFF
FFFF
FFFF
FFFF
FFFF
FFFF
ENDCHAR
STARTCHAR cent
ENCODING 162
SWIDTH 556 0
DWIDTH 58 0
BBX 50 78 4 -12
BITMAP
000000007E0000
000000007C0000
000000007C0000
00000000FC0000
00000000F80000
00000000F80000
00000000F80000
00000001F80000
00000001F00000
00000FFFF00000
0000FFFFF00000
0003FFFFFC0000
000FFFFFFF0000
003FFFFFFFC000
007FFFFFFFE000
00FFFFFFFFF000
01FFFFFFFFF800
03FFFFFFFFFC00
07FFFFFFFFFE00
07FFFFFFFFFE00
0FFFFFFFFFFF00
1FFFFF1FFFFF00
1FFFF81FFFFF80
3FFFE01F7FFF80
3FFFC03F7FFF80
3FFFC03E3FFFC0
7FFF803E1FFFC0
7FFF003E1FFFC0
7FFF007E1FFFC0
7FFF007C0FFFC0
FFFE007C000000
FFFE00FC000000
FFFE00F8000000
FFFE00F8000000
FFFE00F8000000
FFFE01F8000000
FFFE01F0000000
FFFE01F0000000
FFFE03F0000000
FFFE03E0000000
FFFE03E0000000
FFFE03E0000000
FFFE07E0000000
FFFE07C0000000
FFFE07C0000000
FFFE0FC00FFFC0
FFFE0F800FFFC0
FFFF0F801FFFC0
7FFF0F801FFFC0
7FFF9F801FFFC0
7FFF9F003FFF80
7FFFDF007FFF80
3FFFFF00FFFF80
3FFFFE01FFFF00
1FFFFE07FFFF00
1FFFFFFFFFFE00
0FFFFFFFFFFC00
0FFFFFFFFFFC00
07FFFFFFFFF800
03FFFFFFFFF000
01FFFFFFFFE000
00FFFFFFFFC000
007FFFFFFF8000
003FFFFFFE0000
000FFFFFF80000
0003FFFFE00000
0001FFFE000000
0003F000000000
0003E000000000
0003E000000000
0007E000000000
0007E000000000
0007C000000000
0007C000000000
000FC000000000
000F8000000000
000F8000000000
001F8000000000
ENDCHAR
STARTCHAR sterling
ENCODING 163
SWIDTH 556 0
DWIDTH 58 0
BBX 53 77 3 -2
BITMAP
000007FF800000
00007FFFF80000
0003FFFFFE0000
000FFFFFFF8000
001FFFFFFFE000
007FFFFFFFF000
00FFFFFFFFF800
01FFFFFFFFFC00
03FFFFFFFFFE00
07FFFFFFFFFF00
07FFFFFFFFFF00
0FFFFFFFFFFF80
0FFFFC00FFFF80
1FFFF0007FFFC0
1FFFE0001FFFC0
3FFFC0001FFFC0
3FFFC0000FFFE0
3FFF80000FFFE0
3FFF800007FFE0
3FFF000007FFE0
3FFF000007FFE0
3FFF000003FFE0
3FFF000003FFF0
3FFF000003FFF0
3FFF8000000000
3FFF8000000000
3FFF8000000000
1FFFC000000000
1FFFC000000000
1FFFE000000000
0FFFE000000000
0FFFE000000000
07FFF000000000
07FFF000000000
07FFF800000000
03FFF800000000
FFFFFFFFF00000
FFFFFFFFF00000
FFFFFFFFF00000
FFFFFFFFF00000
FFFFFFFFF00000
FFFFFFFFF00000
003FFF00000000
003FFF00000000
001FFF00000000
001FFF00000000
001FFF00000000
001FFF00000000
000FFF00000000
000FFF00000000
000FFF00000000
000FFF00000000
000FFE00000000
000FFE00000000
001FFE00000000
001FFC00000000
003FFC00000000
003FF800000000
007FF000000000
00FFE000000000
01FFC000000000
03FF8000000080
07FF07FC0003C0
0FFE7FFFC00FC0
1FFFFFFFF8FFC0
7FFFFFFFFFFFE0
7FFFFFFFFFFFE0
7FFFFFFFFFFFE0
3FFFFFFFFFFFF0
3FFFFFFFFFFFF0
1FFFFFFFFFFFF8
1FFFFFFFFFFFF8
0FFFFFFFFFFFF8
07F001FFFFFFE0
07C0001FFFFF80
02000007FFFC00
000000007FE000
ENDCHAR
STARTCHAR currency
ENCODING 164
SWIDTH 556 0
DWIDTH 58 0
BBX 58 58 0 8
BITMAP
0300000000003000
0780000000007800
0FC000000000FC00
1FE000000001FE00
3FF000000003FF00
7FF800000007FF80
FFFC003F000FFFC0
7FFE03FFF01FFF80
3FFF1FFFFE3FFF00
1FFFFFFFFFFFFE00
0FFFFFFFFFFFFC00
07FFFFFFFFFFF800
03FFFFFFFFFFF000
01FFFFFFFFFFE000
00FFFFFFFFFFC000
007FFFFFFFFF8000
003FFFFFFFFF0000
007FFFC0FFFF8000
007FFE003FFF8000
00FFFC000FFFC000
00FFF80007FFC000
00FFF00003FFC000
01FFF00003FFE000
01FFE00001FFE000
01FFE00001FFE000
01FFE00001FFE000
01FFC00000FFE000
01FFC00000FFE000
01FFC00000FFE000
01FFC00000FFE000
01FFC00000FFE000
01FFE00001FFE000
01FFE00001FFE000
01FFE00001FFE000
01FFF00003FFE000
00FFF00003FFC000
00FFF80007FFC000
00FFFC000FFFC000
007FFE001FFF8000
007FFF807FFF8000
003FFFFFFFFF0000
007FFFFFFFFF8000
00FFFFFFFFFFC000
01FFFFFFFFFFE000
03FFFFFFFFFFF000
07FFFFFFFFFFF800
0FFFFFFFFFFFFC00
1FFFFFFFFFFFFE00
3FFF3FFFFE3FFF00
7FFE07FFF81FFF80
FFFC00FFC00FFFC0
FFF800000007FFC0
7FF000000003FF80
3FE000000001FF00
1FC000000000FE00
0F80000000007C00
0700000000003800
0200000000001000
ENDCHAR
STARTCHAR yen
ENCODING 165
SWIDTH 556 0
DWIDTH 58 0
BBX 60 73 -1 0
BITMAP
FFFF00000007FFF0
7FFF0000000FFFE0
7FFF8000000FFFC0
3FFF8000001FFFC0
3FFFC000001FFF80
1FFFC000003FFF80
1FFFE000003FFF00
0FFFE000007FFF00
07FFF000007FFE00
07FFF000007FFE00
03FFF80000FFFC00
03FFF80000FFFC00
01FFFC0001FFF800
01FFFC0001FFF800
00FFFE0003FFF000
00FFFE0003FFF000
007FFF0007FFE000
007FFF0007FFE000
003FFF800FFFC000
003FFF800FFFC000
001FFFC01FFF8000
001FFFC01FFF8000
000FFFE01FFF0000
000FFFE03FFF0000
0007FFF03FFE0000
0007FFF07FFE0000
0003FFF87FFC0000
0003FFF8FFFC0000
0001FFF8FFF80000
0001FFFDFFF80000
0000FFFDFFF00000
1FFFFFFFFFFFFFC0
1FFFFFFFFFFFFFC0
1FFFFFFFFFFFFFC0
1FFFFFFFFFFFFFC0
1FFFFFFFFFFFFFC0
1FFFFFFFFFFFFFC0
00000FFFFF800000
00000FFFFF000000
000007FFFF000000
000007FFFE000000
000003FFFE000000
000003FFFC000000
000001FFFC000000
000000FFF8000000
1FFFFFFFFFFFFFC0
1FFFFFFFFFFFFFC0
1FFFFFFFFFFFFFC0
1FFFFFFFFFFFFFC0
1FFFFFFFFFFFFFC0
1FFFFFFFFFFFFFC0
000000FFF8000000
000000FFF8000000
000000FFF8000000
000000FFF8000000
000000FFF8000000
000000FFF8000000
000000FFF8000000
000000FFF8000000
000000FFF8000000
000000FFF8000000
000000FFF8000000
000000FFF8000000
000000FFF8000000
000000FFF8000000
000000FFF8000000
000000FFF8000000
000000FFF8000000
000000FFF8000000
000000FFF8000000
000000FFF8000000
000000FFF8000000
000000FFF8000000
ENDCHAR
STARTCHAR brokenbar
ENCODING 166
SWIDTH 280 0
DWIDTH 29 0
BBX 11 79 9 -2
BITMAP
FFE0
FFE0
FFE0
FFE0
FFE0
FFE0
FFE0
FFE0
FFE0
FFE0
FFE0
FFE0
FFE0
FFE0
FFE0
FFE0
FFE0
FFE0
FFE0
FFE0
FFE0
FFE0
FFE0
FFE0
FFE0
FFE0
FFE0
FFE0
FFE0
FFE0
0000
0000
0000
0000
0000
0000
0000
0000
0000
0000
0000
0000
0000
0000
0000
0000
0000
0000
0000
FFE0
FFE0
FFE0
FFE0
FFE0
FFE0
FFE0
FFE0
FFE0
FFE0
FFE0
FFE0
FFE0
FFE0
FFE0
FFE0
FFE0
FFE0
FFE0
FFE0
FFE0
FFE0
FFE0
FFE0
FFE0
FFE0
FFE0
FFE0
FFE0
FFE0
ENDCHAR
STARTCHAR section
ENCODING 167
SWIDTH 556 0
DWIDTH 58 0
BBX 50 95 4 -19
BITMAP
00000FFC000000
0000FFFFC00000
0003FFFFF80000
000FFFFFFC0000
001FFFFFFF0000
003FFFFFFF8000
007FFFFFFFC000
00FFFFFFFFC000
01FFFFFFFFE000
03FFFFFFFFF000
03FFFFFFFFF000
07FFF81FFFF000
07FFE003FFF800
07FFC001FFF800
0FFFC001FFF800
0FFF8000FFF800
0FFF8000FFFC00
0FFF8000FFFC00
0FFF80007FFC00
0FFFC000000000
0FFFC000000000
0FFFF000000000
0FFFF800000000
07FFFE00000000
07FFFF80000000
07FFFFE0000000
03FFFFF8000000
03FFFFFE000000
01FFFFFF800000
00FFFFFFE00000
007FFFFFF80000
00FFFFFFFE0000
01FFFFFFFF8000
07FFFFFFFFC000
0FFFFFFFFFF000
1FFFFFFFFFF800
3FFE7FFFFFFC00
3FFC1FFFFFFE00
7FF807FFFFFF00
7FF001FFFFFF00
FFF0007FFFFF80
FFF0001FFFFF80
FFF00007FFFFC0
FFF00001FFFFC0
FFF000007FFFC0
FFF800001FFFC0
FFFC00000FFFC0
FFFE000007FFC0
FFFF800007FFC0
FFFFE00007FFC0
FFFFF00007FFC0
7FFFFC0007FFC0
7FFFFF0007FF80
3FFFFFC007FF80
3FFFFFF00FFF00
1FFFFFFC1FFF00
0FFFFFFF3FFE00
07FFFFFFFFFC00
03FFFFFFFFF800
00FFFFFFFFF000
007FFFFFFFE000
001FFFFFFF8000
0007FFFFFF8000
0001FFFFFFC000
00007FFFFFE000
00001FFFFFF000
000007FFFFF000
000001FFFFF800
0000007FFFF800
0000001FFFFC00
00000007FFFC00
00000003FFFC00
00000001FFFE00
00000000FFFE00
000000007FFE00
000000007FFE00
1FFF00007FFE00
1FFF80007FFE00
1FFF80007FFE00
1FFF8000FFFC00
1FFFC000FFFC00
0FFFE001FFFC00
0FFFF003FFFC00
0FFFFC07FFF800
07FFFFFFFFF800
07FFFFFFFFF000
03FFFFFFFFE000
01FFFFFFFFE000
00FFFFFFFFC000
007FFFFFFF8000
003FFFFFFE0000
001FFFFFFC0000
0007FFFFF00000
0001FFFFC00000
00001FFC000000
ENDCHAR
STARTCHAR dieresis
ENCODING 168
SWIDTH 333 0
DWIDTH 35 0
BBX 33 12 1 64
BITMAP
FFF80FFF80
FFF80FFF80
FFF80FFF80
FFF80FFF80
FFF80FFF80
FFF80FFF80
FFF80FFF80
FFF80FFF80
FFF80FFF80
FFF80FFF80
FFF80FFF80
FFF80FFF80
ENDCHAR
STARTCHAR copyright
ENCODING 169
SWIDTH 737 0
DWIDTH 77 0
BBX 79 79 -1 -2
BITMAP
000000007FFC00000000
0000000FFFFFE0000000
0000007FFFFFFC000000
000001FFFFFFFF000000
00000FFFFFFFFFE00000
00001FFFFFFFFFF00000
00007FFFFFFFFFFC0000
0000FFFFFFFFFFFE0000
0003FFFFFFFFFFFF8000
0007FFFFE00FFFFFC000
000FFFFC0000FFFFE000
001FFFF000001FFFF000
003FFFC0000007FFF800
007FFF00000003FFFC00
00FFFE00000000FFFE00
01FFFC000000007FFE00
01FFF8000000003FFF00
03FFF0000FFC001FFF80
07FFE000FFFF800FFF80
07FFC003FFFFE007FFC0
0FFF800FFFFFF003FFE0
0FFF001FFFFFF803FFE0
1FFF003FFFFFFC01FFE0
1FFE007FFFFFFE00FFF0
1FFE00FFFFFFFF00FFF0
3FFC01FFFFFFFF807FF8
3FFC01FFF80FFF807FF8
3FF803FFE003FFC07FF8
7FF803FFC000FFC03FFC
7FF807FF80007FC03FFC
7FF007FF00007FE03FFC
7FF00FFF00003FE01FFC
FFF00FFE00003FE01FFC
FFF00FFE000000001FFE
FFF00FFE000000001FFE
FFE00FFC000000001FFE
FFE01FFC000000001FFE
FFE01FFC000000000FFE
FFE01FFC000000000FFE
FFE01FFC000000000FFE
FFE01FFC000000000FFE
FFE01FFC000000000FFE
FFE00FFC000000001FFE
FFE00FFE000000001FFE
FFF00FFE000000001FFE
FFF00FFE000000001FFE
FFF00FFF00003FE01FFC
7FF007FF00003FE01FFC
7FF007FF80003FE01FFC
7FF807FFC0007FE03FFC
7FF803FFE000FFC03FFC
7FF803FFF001FFC03FF8
3FFC01FFFC07FF807FF8
3FFC00FFFFFFFF807FF8
3FFE00FFFFFFFF00FFF0
1FFE007FFFFFFE00FFF0
1FFF003FFFFFFC01FFF0
0FFF001FFFFFF801FFE0
0FFF8007FFFFF003FFE0
07FFC003FFFFE007FFC0
07FFC0007FFF000FFFC0
03FFE0000FF8001FFF80
03FFF0000000003FFF00
01FFF8000000007FFF00
00FFFE00000000FFFE00
007FFF00000001FFFC00
003FFFC0000007FFF800
001FFFF000001FFFF000
000FFFFE0000FFFFE000
0007FFFFE00FFFFFC000
0003FFFFFFFFFFFF8000
0001FFFFFFFFFFFE0000
00007FFFFFFFFFFC0000
00003FFFFFFFFFF00000
00000FFFFFFFFFE00000
000003FFFFFFFF000000
0000007FFFFFFC000000
0000000FFFFFE0000000
000000007FFC00000000
ENDCHAR
STARTCHAR ordfeminine
ENCODING 170
SWIDTH 370 0
DWIDTH 38 0
BBX 34 49 2 28
BITMAP
000FFE0000
00FFFFC000
01FFFFF000
07FFFFF800
0FFFFFFC00
0FFFFFFE00
1FFFFFFE00
1FFF1FFF00
3FF003FF00
3FE003FF00
3FE001FF00
3FE001FF00
000003FF00
00003FFF00
001FFFFF00
01FFFFFF00
07FFFFFF00
0FFFFFFF00
1FFFFDFF00
3FFFC1FF00
7FF801FF00
7FE001FF00
7FE001FF00
FFC001FF00
FFC003FF00
FFC003FF00
FFC007FF00
FFE01FFF00
7FF9FFFF00
7FFFFFFF00
3FFFFFFF00
3FFFFDFF80
1FFFF1FFC0
07FFE0FFC0
00FF000000
0000000000
0000000000
0000000000
0000000000
0000000000
0000000000
7FFFFFFF80
7FFFFFFF80
7FFFFFFF80
7FFFFFFF80
7FFFFFFF80
7FFFFFFF80
7FFFFFFF80
7FFFFFFF80
ENDCHAR
STARTCHAR guillemotleft
ENCODING 171
SWIDTH 556 0
DWIDTH 58 0
BBX 40 42 9 7
BITMAP
0000400001
0000C00007
0003C0000F
0007C0001F
000FC0003F
001FC0007F
003FC000FF
007FC003FF
01FFC007FF
03FFC00FFF
07FFC01FFF
0FFFC03FFF
1FFF807FFE
3FFF00FFFC
FFFE03FFF0
FFF803FFE0
FFF003FFC0
FFE003FF80
FFC003FF00
FF8003FE00
FF0003FC00
FF0003FC00
FF8003FE00
FFC003FF00
FFE003FF80
FFF003FFE0
FFF803FFF0
FFFE01FFF8
3FFF00FFFC
1FFF807FFE
0FFFC03FFF
07FFC01FFF
03FFC007FF
01FFC003FF
007FC001FF
003FC000FF
001FC0007F
000FC0003F
0007C0000F
0003C00007
0000C00003
0000400001
ENDCHAR
STARTCHAR logicalnot
ENCODING 172
SWIDTH 584 0
DWIDTH 61 0
BBX 53 33 4 11
BITMAP
FFFFFFFFFFFFF8
FFFFFFFFFFFFF8
FFFFFFFFFFFFF8
FFFFFFFFFFFFF8
FFFFFFFFFFFFF8
FFFFFFFFFFFFF8
FFFFFFFFFFFFF8
FFFFFFFFFFFFF8
FFFFFFFFFFFFF8
FFFFFFFFFFFFF8
FFFFFFFFFFFFF8
FFFFFFFFFFFFF8
00000000007FF8
00000000007FF8
00000000007FF8
00000000007FF8
00000000007FF8
00000000007FF8
00000000007FF8
00000000007FF8
00000000007FF8
00000000007FF8
00000000007FF8
00000000007FF8
00000000007FF8
00000000007FF8
00000000007FF8
00000000007FF8
00000000007FF8
00000000007FF8
00000000007FF8
00000000007FF8
00000000007FF8
ENDCHAR
STARTCHAR registered
ENCODING 174
SWIDTH 737 0
DWIDTH 77 0
BBX 79 79 -1 -2
BITMAP
000000007FFC00000000
0000000FFFFFE0000000
0000007FFFFFFC000000
000003FFFFFFFF800000
00000FFFFFFFFFE00000
00003FFFFFFFFFF00000
00007FFFFFFFFFFC0000
0001FFFFFFFFFFFE0000
0003FFFFFFFFFFFF8000
0007FFFFE00FFFFFC000
000FFFFE0000FFFFE000
001FFFF000001FFFF000
003FFFC0000007FFF800
007FFF00000003FFFC00
00FFFE00000000FFFE00
01FFFC000000007FFF00
01FFF0000000003FFF00
03FFE0000000001FFF80
07FFC0FFFFFC000FFF80
07FFC0FFFFFFC007FFC0
0FFF80FFFFFFF003FFE0
0FFF00FFFFFFF803FFE0
1FFF00FFFFFFFC01FFE0
1FFE00FFFFFFFE00FFF0
3FFE00FFFFFFFF00FFF0
3FFC00FF801FFF007FF8
3FFC00FF8003FF007FF8
3FF800FF8001FF807FF8
7FF800FF8001FF803FFC
7FF800FF8001FF803FFC
7FF000FF8001FF803FFC
7FF000FF8001FF801FFC
FFF000FF8001FF801FFC
FFF000FF8001FF801FFC
FFF000FF8003FF801FFE
FFE000FF800FFF001FFE
FFE000FFFFFFFF001FFE
FFE000FFFFFFFF001FFE
FFE000FFFFFFFE001FFE
FFE000FFFFFFFC001FFE
FFE000FFFFFFF8001FFE
FFE000FFFFFFE0001FFE
FFE000FFFFFE00001FFE
FFE000FF87FE00001FFE
FFF000FF83FF00001FFE
FFF000FF83FF80001FFC
FFF000FF81FF80001FFC
7FF000FF80FFC0001FFC
7FF000FF80FFC0003FFC
7FF800FF807FE0003FFC
7FF800FF807FF0003FFC
7FF800FF803FF0007FF8
3FFC00FF803FF8007FF8
3FFC00FF801FF8007FF8
3FFE00FF801FFC00FFF0
1FFE00FF800FFC00FFF0
1FFF00FF800FFE01FFE0
0FFF00FF8007FF03FFE0
0FFF80FF8003FF03FFE0
07FFC0FF8003FF87FFC0
07FFE0FF8001FF8FFF80
03FFE0000000001FFF80
03FFF0000000003FFF00
01FFFC000000007FFE00
00FFFE00000000FFFE00
007FFF00000003FFFC00
003FFFC0000007FFF800
001FFFF000001FFFF000
000FFFFE0000FFFFE000
0007FFFFE00FFFFFC000
0003FFFFFFFFFFFF8000
0001FFFFFFFFFFFE0000
00007FFFFFFFFFFC0000
00003FFFFFFFFFF00000
00000FFFFFFFFFE00000
000003FFFFFFFF000000
0000007FFFFFFC000000
0000000FFFFFE0000000
000000007FFC00000000
ENDCHAR
STARTCHAR macron
ENCODING 175
SWIDTH 333 0
DWIDTH 35 0
BBX 36 8 -1 63
BITMAP
FFFFFFFFF0
FFFFFFFFF0
FFFFFFFFF0
FFFFFFFFF0
FFFFFFFFF0
FFFFFFFFF0
FFFFFFFFF0
FFFFFFFFF0
ENDCHAR
STARTCHAR degree
ENCODING 176
SWIDTH 400 0
DWIDTH 42 0
BBX 30 30 6 44
BITMAP
001FE000
00FFF800
01FFFE00
07FFFF00
0FFFFFC0
1FFFFFC0
1FE03FE0
3FC00FF0
7F0007F0
7F0003F8
7E0001F8
FC0001F8
FC0000FC
FC0000FC
FC0000FC
FC0000FC
FC0000FC
FC0000F8
FE0001F8
7E0001F8
7F0003F8
7F8007F0
3FC00FF0
1FF03FE0
1FFFFFC0
0FFFFF80
07FFFF00
01FFFE00
007FF800
000FC000
ENDCHAR
STARTCHAR plusminus
ENCODING 177
SWIDTH 584 0
DWIDTH 61 0
BBX 53 53 4 0
BITMAP
000007FF000000
000007FF000000
000007FF000000
000007FF000000
000007FF000000
000007FF000000
000007FF000000
000007FF000000
000007FF000000
000007FF000000
000007FF000000
000007FF000000
000007FF000000
FFFFFFFFFFFFF8
FFFFFFFFFFFFF8
FFFFFFFFFFFFF8
FFFFFFFFFFFFF8
FFFFFFFFFFFFF8
FFFFFFFFFFFFF8
FFFFFFFFFFFFF8
FFFFFFFFFFFFF8
FFFFFFFFFFFFF8
FFFFFFFFFFFFF8
FFFFFFFFFFFFF8
FFFFFFFFFFFFF8
000007FF000000
000007FF000000
000007FF000000
000007FF000000
000007FF000000
000007FF000000
000007FF000000
000007FF000000
000007FF000000
000007FF000000
000007FF000000
000007FF000000
000007FF000000
00000000000000
00000000000000
00000000000000
FFFFFFFFFFFFF8
FFFFFFFFFFFFF8
FFFFFFFFFFFFF8
FFFFFFFFFFFFF8
FFFFFFFFFFFFF8
FFFFFFFFFFFFF8
FFFFFFFFFFFFF8
FFFFFFFFFFFFF8
FFFFFFFFFFFFF8
FFFFFFFFFFFFF8
FFFFFFFFFFFFF8
FFFFFFFFFFFFF8
ENDCHAR
STARTCHAR twosuperior
ENCODING 178
SWIDTH 333 0
DWIDTH 35 0
BBX 33 45 1 29
BITMAP
000FF80000
007FFF0000
01FFFFC000
07FFFFF000
0FFFFFF800
0FFFFFFC00
1FFFFFFC00
3FFFFFFE00
3FFC1FFF00
7FF007FF00
7FE003FF00
7FC003FF00
7FC001FF80
7FC001FF80
7FC001FF80
FFC001FF80
000003FF00
000003FF00
000007FF00
000007FF00
00000FFE00
00001FFE00
00007FFC00
0000FFFC00
0001FFF800
0007FFF000
000FFFE000
003FFFC000
007FFF0000
00FFFE0000
01FFF80000
03FFE00000
07FFC00000
0FFF800000
1FFE000000
1FFC000000
3FFFFFFF80
3FFFFFFF80
7FFFFFFF80
7FFFFFFF80
7FFFFFFF80
FFFFFFFF80
FFFFFFFF80
FFFFFFFF80
FFFFFFFF80
ENDCHAR
STARTCHAR threesuperior
ENCODING 179
SWIDTH 333 0
DWIDTH 35 0
BBX 33 46 1 28
BITMAP
000FF80000
007FFF0000
01FFFFC000
07FFFFF000
0FFFFFF800
1FFFFFF800
1FFFFFFC00
3FFFFFFE00
3FF81FFE00
7FE00FFE00
7FC007FE00
7FC007FE00
7FC003FE00
7FC003FE00
000007FE00
000007FE00
000007FE00
00000FFC00
00003FF800
000FFFF800
000FFFE000
000FFFC000
000FFFF000
000FFFFC00
000FFFFE00
000FFFFE00
00001FFF00
000007FF00
000003FF80
000003FF80
000001FF80
FF8001FF80
FF8001FF80
FF8001FF80
FFC003FF80
FFC003FF00
7FE007FF00
7FF00FFF00
7FFFFFFE00
3FFFFFFE00
1FFFFFFC00
1FFFFFF800
0FFFFFF000
03FFFFC000
00FFFF0000
001FF80000
ENDCHAR
STARTCHAR acute
ENCODING 180
SWIDTH 333 0
DWIDTH 35 0
BBX 25 15 12 63
BITMAP
007FFF80
00FFFF00
01FFFC00
01FFF800
03FFF000
07FFE000
07FFC000
0FFF8000
0FFF0000
1FFE0000
3FFC0000
3FF80000
7FF00000
FFE00000
FFC00000
ENDCHAR
STARTCHAR mu
ENCODING 181
SWIDTH 611 0
DWIDTH 64 0
BBX 50 77 7 -22
BITMAP
FFFC00001FFFC0
FFFC00001FFFC0
FFFC00001FFFC0
FFFC00001FFFC0
FFFC00001FFFC0
FFFC00001FFFC0
FFFC00001FFFC0
FFFC00001FFFC0
FFFC00001FFFC0
FFFC00001FFFC0
FFFC00001FFFC0
FFFC00001FFFC0
FFFC00001FFFC0
FFFC00001FFFC0
FFFC00001FFFC0
FFFC00001FFFC0
FFFC00001FFFC0
FFFC00001FFFC0
FFFC00001FFFC0
FFFC00001FFFC0
FFFC00001FFFC0
FFFC00001FFFC0
FFFC00001FFFC0
FFFC00001FFFC0
FFFC00001FFFC0
FFFC00001FFFC0
FFFC00001FFFC0
FFFC00001FFFC0
FFFC00001FFFC0
FFFC00001FFFC0
FFFC00001FFFC0
FFFC00001FFFC0
FFFC00001FFFC0
FFFC00001FFFC0
FFFC00001FFFC0
FFFE00001FFFC0
FFFE00003FFFC0
FFFE00003FFFC0
FFFE00003FFFC0
FFFF00007FFFC0
FFFF0000FFFFC0
FFFF8001FFFFC0
FFFFC007FFFFC0
FFFFFC3FFFFFC0
FFFFFFFFFFFFC0
FFFFFFFFFFFFC0
FFFFFFFFFFFFC0
FFFFFFFFEFFFC0
FFFFFFFFCFFFC0
FFFFFFFFCFFFC0
FFFFFFFF8FFFC0
FFFFFFFF0FFFC0
FFFFFFFE0FFFC0
FFFDFFFC0FFFC0
FFFCFFF00FFFC0
FFFC3FC0000000
FFFC0000000000
FFFC0000000000
FFFC0000000000
FFFC0000000000
FFFC0000000000
FFFC0000000000
FFFC0000000000
FFFC0000000000
FFFC0000000000
FFFC0000000000
FFFC0000000000
FFFC0000000000
FFFC0000000000
FFFC0000000000
FFFC0000000000
FFFC0000000000
FFFC0000000000
FFFC0000000000
FFFC0000000000
FFFC0000000000
FFFC0000000000
ENDCHAR
STARTCHAR paragraph
ENCODING 182
SWIDTH 556 0
DWIDTH 58 0
BBX 57 93 -1 -19
BITMAP
00003FFFFFFFFF80
0007FFFFFFFFFF80
003FFFFFFFFFFF80
00FFFFFFFFFFFF80
01FFFFFFFFFFFF80
07FFFFFFFFFFFF80
0FFFFFFFFFFFFF80
1FFFFFFFFFFFFF80
1FFFFFFFFFFFFF80
3FFFFFFFE007FF80
3FFFFFFFE007FF80
7FFFFFFFE007FF80
7FFFFFFFE007FF80
7FFFFFFFE007FF80
7FFFFFFFE007FF80
FFFFFFFFE007FF80
FFFFFFFFE007FF80
FFFFFFFFE007FF80
FFFFFFFFE007FF80
FFFFFFFFE007FF80
FFFFFFFFE007FF80
FFFFFFFFE007FF80
7FFFFFFFE007FF80
7FFFFFFFE007FF80
7FFFFFFFE007FF80
7FFFFFFFE007FF80
3FFFFFFFE007FF80
3FFFFFFFE007FF80
1FFFFFFFE007FF80
0FFFFFFFE007FF80
07FFFFFFE007FF80
03FFFFFFE007FF80
01FFFFFFE007FF80
007FFFFFE007FF80
001FFFFFE007FF80
0007FFFFE007FF80
00001FFFE007FF80
000001FFE007FF80
000001FFE007FF80
000001FFE007FF80
000001FFE007FF80
000001FFE007FF80
000001FFE007FF80
000001FFE007FF80
000001FFE007FF80
000001FFE007FF80
000001FFE007FF80
000001FFE007FF80
000001FFE007FF80
000001FFE007FF80
000001FFE007FF80
000001FFE007FF80
000001FFE007FF80
000001FFE007FF80
000001FFE007FF80
000001FFE007FF80
000001FFE007FF80
000001FFE007FF80
000001FFE007FF80
000001FFE007FF80
000001FFE007FF80
000001FFE007FF80
000001FFE007FF80
000001FFE007FF80
000001FFE007FF80
000001FFE007FF80
000001FFE007FF80
000001FFE007FF80
000001FFE007FF80
000001FFE007FF80
000001FFE007FF80
000001FFE007FF80
000001FFE007FF80
000001FFE007FF80
000001FFE007FF80
000001FFE007FF80
000001FFE007FF80
000001FFE007FF80
000001FFE007FF80
000001FFE007FF80
000001FFE007FF80
000001FFE007FF80
000001FFE007FF80
000001FFE007FF80
000001FFE007FF80
000001FFE007FF80
000001FFE007FF80
000001FFE007FF80
000001FFE007FF80
000001FFE007FF80
000001FFE007FF80
000001FFE007FF80
000001FFE007FF80
ENDCHAR
STARTCHAR periodcentered
ENCODING 183
SWIDTH 278 0
DWIDTH 29 0
BBX 17 17 6 18
BITMAP
03E000
0FF800
1FFC00
3FFE00
7FFF00
7FFF00
FFFF80
FFFF80
FFFF80
FFFF80
FFFF80
7FFF00
7FFF00
3FFE00
3FFE00
0FF800
07E000
ENDCHAR
STARTCHAR cedilla
ENCODING 184
SWIDTH 333 0
DWIDTH 35 0
BBX 24 24 1 -24
BITMAP
003F00
007E00
007E00
00FC00
01F800
01F380
03FFF0
07FFFC
07FFFE
07FFFF
0307FF
0003FF
0001FF
0001FF
0001FF
0003FF
2003FF
7C0FFF
7FFFFE
FFFFFC
FFFFF8
FFFFF0
1FFFC0
01FF00
ENDCHAR
STARTCHAR onesuperior
ENCODING 185
SWIDTH 333 0
DWIDTH 35 0
BBX 22 45 3 29
BITMAP
0007FC
0007FC
000FFC
000FFC
001FFC
003FFC
007FFC
03FFFC
FFFFFC
FFFFFC
FFFFFC
FFFFFC
FFFFFC
FFFFFC
001FFC
001FFC
001FFC
001FFC
001FFC
001FFC
001FFC
001FFC
001FFC
001FFC
001FFC
001FFC
001FFC
001FFC
001FFC
001FFC
001FFC
001FFC
001FFC
001FFC
001FFC
001FFC
001FFC
001FFC
001FFC
001FFC
001FFC
001FFC
001FFC
001FFC
001FFC
ENDCHAR
STARTCHAR ordmasculine
ENCODING 186
SWIDTH 365 0
DWIDTH 38 0
BBX 36 49 1 28
BITMAP
0007FE0000
003FFFC000
00FFFFF000
03FFFFFC00
07FFFFFE00
0FFFFFFF00
1FFFFFFF80
1FFFFFFFC0
3FFC03FFC0
7FF801FFE0
7FF000FFE0
7FE0007FE0
FFE0007FF0
FFC0003FF0
FFC0003FF0
FFC0003FF0
FFC0003FF0
FFC0003FF0
FFC0003FF0
FFC0003FF0
FFC0003FF0
FFC0003FF0
FFE0007FF0
7FE0007FE0
7FF000FFE0
7FF801FFE0
3FFC03FFC0
1FFFFFFFC0
1FFFFFFF80
0FFFFFFF00
07FFFFFE00
03FFFFFC00
00FFFFF000
003FFFC000
0007FE0000
0000000000
0000000000
0000000000
0000000000
0000000000
0000000000
3FFFFFFFC0
3FFFFFFFC0
3FFFFFFFC0
3FFFFFFFC0
3FFFFFFFC0
3FFFFFFFC0
3FFFFFFFC0
3FFFFFFFC0
ENDCHAR
STARTCHAR guillemotright
ENCODING 187
SWIDTH 556 0
DWIDTH 58 0
BBX 40 42 9 7
BITMAP
8000020000
C000030000
F000038000
F80003E000
FC0003F000
FE0003F800
FF0003FC00
FF8003FE00
FFE003FF00
FFF003FFC0
FFF803FFE0
FFFC03FFF0
7FFE01FFF8
3FFF00FFFC
1FFF807FFE
07FFC03FFF
03FFC00FFF
01FFC007FF
00FFC003FF
007FC001FF
003FC000FF
003FC000FF
007FC001FF
01FFC003FF
03FFC007FF
07FFC00FFF
0FFFC03FFF
1FFF807FFE
3FFF00FFFC
7FFE01FFF8
FFF803FFF0
FFF003FFE0
FFE003FFC0
FFC003FF00
FF8003FE00
FF0003FC00
FE0003F800
F80003F000
F00003E000
E000038000
C000030000
8000020000
ENDCHAR
STARTCHAR onequarter
ENCODING 188
SWIDTH 834 0
DWIDTH 87 0
BBX 77 76 3 -2
BITMAP
0007FC00000001FE0000
0007FC00000001FE0000
000FFC00000003FC0000
000FFC00000003FC0000
001FFC00000007F80000
003FFC0000000FF80000
00FFFC0000000FF00000
3FFFFC0000001FE00000
FFFFFC0000001FE00000
FFFFFC0000003FC00000
FFFFFC0000003FC00000
FFFFFC0000007F800000
FFFFFC000000FF000000
FFFFFC000000FF000000
001FFC000001FE000000
001FFC000001FE000000
001FFC000003FC000000
001FFC000007FC000000
001FFC000007F8000000
001FFC00000FF0000000
001FFC00000FF0000000
001FFC00001FE0000000
001FFC00003FE0000000
001FFC00003FC0000000
001FFC00007F80000000
001FFC00007F80000000
001FFC0000FF00000000
001FFC0000FF00000000
001FFC0001FE00000000
001FFC0003FE00000000
001FFC0003FC000FFE00
001FFC0007F8001FFE00
001FFC0007F8001FFE00
001FFC000FF0003FFE00
001FFC001FF0007FFE00
001FFC001FE0007FFE00
001FFC003FC000FFFE00
001FFC003FC001FFFE00
001FFC007F8001FFFE00
001FFC007F8003FFFE00
001FFC00FF0003FBFE00
001FFC01FF0007F3FE00
001FFC01FE000FF3FE00
001FFC03FC000FE3FE00
001FFC03FC001FE3FE00
00000007F8003FC3FE00
0000000FF8003F83FE00
0000000FF0007F83FE00
0000001FE000FF03FE00
0000001FE000FE03FE00
0000003FC001FE03FE00
0000007FC003FC03FE00
0000007F8003F803FE00
000000FF8007F803FE00
000000FF000FF003FE00
000001FE000FF003FE00
000001FE001FE003FE00
000003FC001FC003FE00
000007FC001FFFFFFFF8
000007F8001FFFFFFFF8
00000FF0001FFFFFFFF8
00000FF0001FFFFFFFF8
00001FE0001FFFFFFFF8
00003FE0001FFFFFFFF8
00003FC0001FFFFFFFF8
00007F8000000003FE00
00007F8000000003FE00
0000FF0000000003FE00
0000FF0000000003FE00
0001FE0000000003FE00
0003FE0000000003FE00
0003FC0000000003FE00
0007F80000000003FE00
0007F80000000003FE00
000FF000000000000000
001FF000000000000000
ENDCHAR
STARTCHAR onehalf
ENCODING 189
SWIDTH 834 0
DWIDTH 87 0
BBX 80 76 3 -2
BITMAP
0007FC00000001FE0000
0007FC00000001FE0000
000FFC00000003FC0000
000FFC00000003FC0000
001FFC00000007F80000
003FFC0000000FF80000
00FFFC0000000FF00000
3FFFFC0000001FE00000
FFFFFC0000001FE00000
FFFFFC0000003FC00000
FFFFFC0000003FC00000
FFFFFC0000007F800000
FFFFFC000000FF000000
FFFFFC000000FF000000
001FFC000001FE000000
001FFC000001FE000000
001FFC000003FC000000
001FFC000007FC000000
001FFC000007F8000000
001FFC00000FF0000000
001FFC00000FF0000000
001FFC00001FE0000000
001FFC00003FE0000000
001FFC00003FC0000000
001FFC00007F80000000
001FFC00007F80000000
001FFC0000FF00000000
001FFC0000FF00000000
001FFC0001FE00000000
001FFC0003FE00000000
001FFC0003FC001FF000
001FFC0007F800FFFE00
001FFC0007F803FFFF80
001FFC000FF00FFFFFC0
001FFC001FF01FFFFFF0
001FFC001FE03FFFFFF8
001FFC003FC03FFFFFF8
001FFC003FC07FFFFFFC
001FFC007F807FF87FFC
001FFC007F80FFE00FFE
001FFC00FF00FFC007FE
001FFC01FF00FF8007FE
001FFC01FE00FF8003FE
001FFC03FC01FF8003FE
001FFC03FC01FF8003FE
00000007F801FF8007FE
0000000FF800000007FE
0000000FF000000007FE
0000001FE00000000FFE
0000001FE00000001FFE
0000003FC00000003FFC
0000007FC00000007FFC
0000007F80000000FFF8
000000FF80000003FFF0
000000FF00000007FFE0
000001FE0000001FFFC0
000001FE0000003FFF80
000003FC000000FFFF00
000007FC000001FFFC00
000007F8000003FFF000
00000FF0000007FFE000
00000FF000000FFF8000
00001FE000001FFF0000
00003FE000003FFC0000
00003FC000003FF80000
00007F8000007FFFFFFF
00007F800000FFFFFFFF
0000FF000000FFFFFFFF
0000FF000000FFFFFFFF
0001FE000001FFFFFFFF
0003FE000001FFFFFFFF
0003FC000001FFFFFFFF
0007F8000001FFFFFFFF
0007F8000001FFFFFFFF
000FF000000000000000
001FF000000000000000
ENDCHAR
STARTCHAR threequarters
ENCODING 190
SWIDTH 834 0
DWIDTH 87 0
BBX 81 76 2 -2
BITMAP
000FF80000000007F80000
00FFFF000000000FF00000
03FFFFC00000000FF00000
07FFFFE00000001FE00000
0FFFFFF00000001FE00000
1FFFFFF80000003FC00000
1FFFFFFC0000007FC00000
3FFFFFFC0000007F800000
3FF01FFE000000FF000000
7FE00FFE000000FF000000
7FC007FE000001FE000000
7FC007FE000003FE000000
7FC007FE000003FC000000
7F8007FE000007F8000000
000007FE000007F8000000
000007FE00000FF0000000
000007FE00000FF0000000
00000FFC00001FE0000000
00003FF800003FE0000000
000FFFF000003FC0000000
000FFFE000007F80000000
000FFFC000007F80000000
000FFFF00000FF00000000
000FFFF80001FF00000000
000FFFFC0001FE00000000
000FFFFE0003FC00000000
00001FFF0003FC00000000
000007FF0007F800000000
000003FF0007F800000000
000003FF800FF000000000
000003FF801FF000FFF000
FF8001FF801FE000FFF000
FF8001FF803FC001FFF000
FF8003FF803FC003FFF000
FF8003FF807F8003FFF000
FFC003FF00FF8007FFF000
FFE007FF00FF000FFFF000
7FF00FFF01FE000FFFF000
7FFFFFFE01FE001FFFF000
3FFFFFFC03FC001FFFF000
3FFFFFFC03FC003FBFF000
1FFFFFF807F8007FBFF000
0FFFFFF00FF8007F3FF000
03FFFFC00FF000FE3FF000
00FFFF001FE001FE3FF000
001FF8001FE001FC3FF000
000000003FC003F83FF000
000000007FC007F83FF000
000000007F8007F03FF000
00000000FF000FF03FF000
00000000FF001FE03FF000
00000001FE001FC03FF000
00000003FE003FC03FF000
00000003FC007F803FF000
00000007F8007F003FF000
00000007F800FF003FF000
0000000FF001FE003FF000
0000000FF001FE003FF000
0000001FE001FFFFFFFF80
0000003FE001FFFFFFFF80
0000003FC001FFFFFFFF80
0000007F8001FFFFFFFF80
0000007F8001FFFFFFFF80
000000FF0001FFFFFFFF80
000001FF0001FFFFFFFF80
000001FE000000003FF000
000003FC000000003FF000
000003FC000000003FF000
000007F8000000003FF000
000007F8000000003FF000
00000FF0000000003FF000
00001FF0000000003FF000
00001FE0000000003FF000
00003FC0000000003FF000
00003FC000000000000000
00007F8000000000000000
ENDCHAR
STARTCHAR questiondown
ENCODING 191
SWIDTH 611 0
DWIDTH 64 0
BBX 51 75 6 -20
BITMAP
00003FFF800000
00003FFF800000
00003FFF800000
00003FFF800000
00003FFF800000
00003FFF800000
00003FFF800000
00003FFF800000
00003FFF800000
00003FFF800000
00003FFF800000
00003FFF800000
00003FFF800000
00003FFF800000
00003FFF800000
00000000000000
00000000000000
00000000000000
00000000000000
00000000000000
00000000000000
00000000000000
00001FFF000000
00001FFF000000
00001FFF000000
00003FFF000000
00003FFF000000
00003FFF000000
00003FFF000000
00007FFF000000
00007FFF000000
0000FFFE000000
0001FFFE000000
0007FFFE000000
000FFFFC000000
001FFFF8000000
007FFFF8000000
00FFFFF0000000
01FFFFE0000000
03FFFFC0000000
07FFFF80000000
0FFFFE00000000
1FFFFC00000000
1FFFF000000000
3FFFE000000000
7FFFC000000000
7FFF8000000000
7FFF8000000000
FFFF0000000000
FFFF0000000000
FFFF0000000000
FFFE000007FFE0
FFFE000007FFE0
FFFE00000FFFE0
FFFE00000FFFE0
FFFF00000FFFE0
FFFF00000FFFE0
FFFF00001FFFE0
FFFF80001FFFC0
FFFF80003FFFC0
7FFFC0007FFFC0
7FFFF000FFFF80
3FFFFC07FFFF80
3FFFFFFFFFFF00
1FFFFFFFFFFF00
1FFFFFFFFFFE00
0FFFFFFFFFFC00
07FFFFFFFFFC00
03FFFFFFFFF800
01FFFFFFFFF000
00FFFFFFFFC000
003FFFFFFF8000
000FFFFFFE0000
0001FFFFF80000
00003FFF800000
ENDCHAR
STARTCHAR Agrave
ENCODING 192
SWIDTH 722 0
DWIDTH 75 0
BBX 71 98 2 0
BITMAP
0000FFFF0000000000
00007FFF8000000000
00003FFFC000000000
00001FFFC000000000
00000FFFE000000000
000007FFE000000000
000003FFF000000000
000001FFF800000000
000000FFF800000000
0000007FFC00000000
0000003FFE00000000
0000001FFE00000000
0000000FFF00000000
00000007FF80000000
00000003FF80000000
000000000000000000
000000000000000000
000000000000000000
000000000000000000
000000000000000000
000000000000000000
000000000000000000
000000000000000000
0000001FFFF8000000
0000003FFFF8000000
0000003FFFFC000000
0000007FFFFC000000
0000007FFFFC000000
0000007FFFFE000000
000000FFFFFE000000
000000FFFFFE000000
000000FFFFFF000000
000001FFFFFF000000
000001FFFFFF000000
000001FFFFFF800000
000003FFFFFF800000
000003FFFFFF800000
000003FFFFFFC00000
000007FFFFFFC00000
000007FFFFFFC00000
00000FFFEFFFE00000
00000FFFEFFFE00000
00000FFFEFFFF00000
00001FFFC7FFF00000
00001FFFC7FFF00000
00001FFFC7FFF80000
00003FFF83FFF80000
00003FFF83FFF80000
00003FFF83FFFC0000
00007FFF01FFFC0000
00007FFF01FFFC0000
00007FFF01FFFE0000
0000FFFE01FFFE0000
0000FFFE00FFFE0000
0000FFFE00FFFF0000
0001FFFC00FFFF0000
0001FFFC007FFF0000
0003FFFC007FFF8000
0003FFFC007FFF8000
0003FFF8003FFFC000
0007FFF8003FFFC000
0007FFF8003FFFC000
0007FFF0001FFFE000
000FFFF0001FFFE000
000FFFF0001FFFE000
000FFFE0001FFFF000
001FFFE0000FFFF000
001FFFE0000FFFF000
001FFFC0000FFFF800
003FFFC00007FFF800
003FFFFFFFFFFFF800
007FFFFFFFFFFFFC00
007FFFFFFFFFFFFC00
007FFFFFFFFFFFFC00
00FFFFFFFFFFFFFE00
00FFFFFFFFFFFFFE00
00FFFFFFFFFFFFFE00
01FFFFFFFFFFFFFF00
01FFFFFFFFFFFFFF00
01FFFFFFFFFFFFFF80
03FFFFFFFFFFFFFF80
03FFFFFFFFFFFFFF80
03FFFFFFFFFFFFFFC0
07FFF80000007FFFC0
07FFF80000003FFFC0
07FFF80000003FFFE0
0FFFF00000003FFFE0
0FFFF00000001FFFE0
1FFFF00000001FFFF0
1FFFE00000001FFFF0
1FFFE00000000FFFF0
3FFFE00000000FFFF8
3FFFC00000000FFFF8
3FFFC000000007FFF8
7FFFC000000007FFFC
7FFF8000000007FFFC
7FFF8000000003FFFC
FFFF8000000003FFFE
ENDCHAR
STARTCHAR Aacute
ENCODING 193
SWIDTH 722 0
DWIDTH 75 0
BBX 71 98 2 0
BITMAP
0000000001FFFE0000
0000000003FFFC0000
0000000003FFF80000
0000000007FFF00000
000000000FFFE00000
000000000FFFC00000
000000001FFF800000
000000003FFF000000
000000003FFE000000
000000007FFC000000
000000007FF8000000
00000000FFF0000000
00000001FFE0000000
00000001FFC0000000
00000003FF80000000
000000000000000000
000000000000000000
000000000000000000
000000000000000000
000000000000000000
000000000000000000
000000000000000000
000000000000000000
0000001FFFF8000000
0000003FFFF8000000
0000003FFFFC000000
0000007FFFFC000000
0000007FFFFC000000
0000007FFFFE000000
000000FFFFFE000000
000000FFFFFE000000
000000FFFFFF000000
000001FFFFFF000000
000001FFFFFF000000
000001FFFFFF800000
000003FFFFFF800000
000003FFFFFF800000
000003FFFFFFC00000
000007FFFFFFC00000
000007FFFFFFC00000
00000FFFEFFFE00000
00000FFFEFFFE00000
00000FFFEFFFF00000
00001FFFC7FFF00000
00001FFFC7FFF00000
00001FFFC7FFF80000
00003FFF83FFF80000
00003FFF83FFF80000
00003FFF83FFFC0000
00007FFF01FFFC0000
00007FFF01FFFC0000
00007FFF01FFFE0000
0000FFFE01FFFE0000
0000FFFE00FFFE0000
0000FFFE00FFFF0000
0001FFFC00FFFF0000
0001FFFC007FFF0000
0003FFFC007FFF8000
0003FFFC007FFF8000
0003FFF8003FFFC000
0007FFF8003FFFC000
0007FFF8003FFFC000
0007FFF0001FFFE000
000FFFF0001FFFE000
000FFFF0001FFFE000
000FFFE0001FFFF000
001FFFE0000FFFF000
001FFFE0000FFFF000
001FFFC0000FFFF800
003FFFC00007FFF800
003FFFFFFFFFFFF800
007FFFFFFFFFFFFC00
007FFFFFFFFFFFFC00
007FFFFFFFFFFFFC00
00FFFFFFFFFFFFFE00
00FFFFFFFFFFFFFE00
00FFFFFFFFFFFFFE00
01FFFFFFFFFFFFFF00
01FFFFFFFFFFFFFF00
01FFFFFFFFFFFFFF80
03FFFFFFFFFFFFFF80
03FFFFFFFFFFFFFF80
03FFFFFFFFFFFFFFC0
07FFF80000007FFFC0
07FFF80000003FFFC0
07FFF80000003FFFE0
0FFFF00000003FFFE0
0FFFF00000001FFFE0
1FFFF00000001FFFF0
1FFFE00000001FFFF0
1FFFE00000000FFFF0
3FFFE00000000FFFF8
3FFFC00000000FFFF8
3FFFC000000007FFF8
7FFFC000000007FFFC
7FFF8000000007FFFC
7FFF8000000003FFFC
FFFF8000000003FFFE
ENDCHAR
STARTCHAR Acircumflex
ENCODING 194
SWIDTH 722 0
DWIDTH 75 0
BBX 71 98 2 0
BITMAP
00000007FFE0000000
0000000FFFE0000000
0000001FFFF0000000
0000003FFFF8000000
0000003FFFFC000000
0000007FFFFC000000
000000FFFFFE000000
000001FFEFFF000000
000003FFC7FF800000
000003FF83FFC00000
000007FF81FFC00000
00000FFF01FFE00000
00001FFE00FFF00000
00001FFC007FF80000
00003FFC003FF80000
000000000000000000
000000000000000000
000000000000000000
000000000000000000
000000000000000000
000000000000000000
000000000000000000
000000000000000000
0000001FFFF8000000
0000003FFFF8000000
0000003FFFFC000000
0000007FFFFC000000
0000007FFFFC000000
0000007FFFFE000000
000000FFFFFE000000
000000FFFFFE000000
000000FFFFFF000000
000001FFFFFF000000
000001FFFFFF000000
000001FFFFFF800000
000003FFFFFF800000
000003FFFFFF800000
000003FFFFFFC00000
000007FFFFFFC00000
000007FFFFFFC00000
00000FFFEFFFE00000
00000FFFEFFFE00000
00000FFFEFFFF00000
00001FFFC7FFF00000
00001FFFC7FFF00000
00001FFFC7FFF80000
00003FFF83FFF80000
00003FFF83FFF80000
00003FFF83FFFC0000
00007FFF01FFFC0000
00007FFF01FFFC0000
00007FFF01FFFE0000
0000FFFE01FFFE0000
0000FFFE00FFFE0000
0000FFFE00FFFF0000
0001FFFC00FFFF0000
0001FFFC007FFF0000
0003FFFC007FFF8000
0003FFFC007FFF8000
0003FFF8003FFFC000
0007FFF8003FFFC000
0007FFF8003FFFC000
0007FFF0001FFFE000
000FFFF0001FFFE000
000FFFF0001FFFE000
000FFFE0001FFFF000
001FFFE0000FFFF000
001FFFE0000FFFF000
001FFFC0000FFFF800
003FFFC00007FFF800
003FFFFFFFFFFFF800
007FFFFFFFFFFFFC00
007FFFFFFFFFFFFC00
007FFFFFFFFFFFFC00
00FFFFFFFFFFFFFE00
00FFFFFFFFFFFFFE00
00FFFFFFFFFFFFFE00
01FFFFFFFFFFFFFF00
01FFFFFFFFFFFFFF00
01FFFFFFFFFFFFFF80
03FFFFFFFFFFFFFF80
03FFFFFFFFFFFFFF80
03FFFFFFFFFFFFFFC0
07FFF80000007FFFC0
07FFF80000003FFFC0
07FFF80000003FFFE0
0FFFF00000003FFFE0
0FFFF00000001FFFE0
1FFFF00000001FFFF0
1FFFE00000001FFFF0
1FFFE00000000FFFF0
3FFFE00000000FFFF8
3FFFC00000000FFFF8
3FFFC000000007FFF8
7FFFC000000007FFFC
7FFF8000000007FFFC
7FFF8000000003FFFC
FFFF8000000003FFFE
ENDCHAR
STARTCHAR Atilde
ENCODING 195
SWIDTH 722 0
DWIDTH 75 0
BBX 71 96 2 0
BITMAP
0000001E0000FE0000
000000FFE001FC0000
000003FFF801FC0000
000007FFFF07FC0000
00000FFFFFFFF80000
00001FFFFFFFF80000
00001FFFFFFFF00000
00003FFFFFFFF00000
00003FFFFFFFE00000
00007F80FFFFC00000
00007F001FFF800000
00007F0003FE000000
00007E000000000000
000000000000000000
000000000000000000
000000000000000000
000000000000000000
000000000000000000
000000000000000000
000000000000000000
000000000000000000
0000001FFFF8000000
0000003FFFF8000000
0000003FFFFC000000
0000007FFFFC000000
0000007FFFFC000000
0000007FFFFE000000
000000FFFFFE000000
000000FFFFFE000000
000000FFFFFF000000
000001FFFFFF000000
000001FFFFFF000000
000001FFFFFF800000
000003FFFFFF800000
000003FFFFFF800000
000003FFFFFFC00000
000007FFFFFFC00000
000007FFFFFFC00000
00000FFFEFFFE00000
00000FFFEFFFE00000
00000FFFEFFFF00000
00001FFFC7FFF00000
00001FFFC7FFF00000
00001FFFC7FFF80000
00003FFF83FFF80000
00003FFF83FFF80000
00003FFF83FFFC0000
00007FFF01FFFC0000
00007FFF01FFFC0000
00007FFF01FFFE0000
0000FFFE01FFFE0000
0000FFFE00FFFE0000
0000FFFE00FFFF0000
0001FFFC00FFFF0000
0001FFFC007FFF0000
0003FFFC007FFF8000
0003FFFC007FFF8000
0003FFF8003FFFC000
0007FFF8003FFFC000
0007FFF8003FFFC000
0007FFF0001FFFE000
000FFFF0001FFFE000
000FFFF0001FFFE000
000FFFE0001FFFF000
001FFFE0000FFFF000
001FFFE0000FFFF000
001FFFC0000FFFF800
003FFFC00007FFF800
003FFFFFFFFFFFF800
007FFFFFFFFFFFFC00
007FFFFFFFFFFFFC00
007FFFFFFFFFFFFC00
00FFFFFFFFFFFFFE00
00FFFFFFFFFFFFFE00
00FFFFFFFFFFFFFE00
01FFFFFFFFFFFFFF00
01FFFFFFFFFFFFFF00
01FFFFFFFFFFFFFF80
03FFFFFFFFFFFFFF80
03FFFFFFFFFFFFFF80
03FFFFFFFFFFFFFFC0
07FFF80000007FFFC0
07FFF80000003FFFC0
07FFF80000003FFFE0
0FFFF00000003FFFE0
0FFFF00000001FFFE0
1FFFF00000001FFFF0
1FFFE00000001FFFF0
1FFFE00000000FFFF0
3FFFE00000000FFFF8
3FFFC00000000FFFF8
3FFFC000000007FFF8
7FFFC000000007FFFC
7FFF8000000007FFFC
7FFF8000000003FFFC
FFFF8000000003FFFE
ENDCHAR
STARTCHAR Adieresis
ENCODING 196
SWIDTH 722 0
DWIDTH 75 0
BBX 71 96 2 0
BITMAP
00001FFF01FFF00000
00001FFF01FFF00000
00001FFF01FFF00000
00001FFF01FFF00000
00001FFF01FFF00000
00001FFF01FFF00000
00001FFF01FFF00000
00001FFF01FFF00000
00001FFF01FFF00000
00001FFF01FFF00000
00001FFF01FFF00000
00001FFF01FFF00000
000000000000000000
000000000000000000
000000000000000000
000000000000000000
000000000000000000
000000000000000000
000000000000000000
000000000000000000
000000000000000000
0000001FFFF8000000
0000003FFFF8000000
0000003FFFFC000000
0000007FFFFC000000
0000007FFFFC000000
0000007FFFFE000000
000000FFFFFE000000
000000FFFFFE000000
000000FFFFFF000000
000001FFFFFF000000
000001FFFFFF000000
000001FFFFFF800000
000003FFFFFF800000
000003FFFFFF800000
000003FFFFFFC00000
000007FFFFFFC00000
000007FFFFFFC00000
00000FFFEFFFE00000
00000FFFEFFFE00000
00000FFFEFFFF00000
00001FFFC7FFF00000
00001FFFC7FFF00000
00001FFFC7FFF80000
00003FFF83FFF80000
00003FFF83FFF80000
00003FFF83FFFC0000
00007FFF01FFFC0000
00007FFF01FFFC0000
00007FFF01FFFE0000
0000FFFE01FFFE0000
0000FFFE00FFFE0000
0000FFFE00FFFF0000
0001FFFC00FFFF0000
0001FFFC007FFF0000
0003FFFC007FFF8000
0003FFFC007FFF8000
0003FFF8003FFFC000
0007FFF8003FFFC000
0007FFF8003FFFC000
0007FFF0001FFFE000
000FFFF0001FFFE000
000FFFF0001FFFE000
000FFFE0001FFFF000
001FFFE0000FFFF000
001FFFE0000FFFF000
001FFFC0000FFFF800
003FFFC00007FFF800
003FFFFFFFFFFFF800
007FFFFFFFFFFFFC00
007FFFFFFFFFFFFC00
007FFFFFFFFFFFFC00
00FFFFFFFFFFFFFE00
00FFFFFFFFFFFFFE00
00FFFFFFFFFFFFFE00
01FFFFFFFFFFFFFF00
01FFFFFFFFFFFFFF00
01FFFFFFFFFFFFFF80
03FFFFFFFFFFFFFF80
03FFFFFFFFFFFFFF80
03FFFFFFFFFFFFFFC0
07FFF80000007FFFC0
07FFF80000003FFFC0
07FFF80000003FFFE0
0FFFF00000003FFFE0
0FFFF00000001FFFE0
1FFFF00000001FFFF0
1FFFE00000001FFFF0
1FFFE00000000FFFF0
3FFFE00000000FFFF8
3FFFC00000000FFFF8
3FFFC000000007FFF8
7FFFC000000007FFFC
7FFF8000000007FFFC
7FFF8000000003FFFC
FFFF8000000003FFFE
ENDCHAR
STARTCHAR Aring
ENCODING 197
SWIDTH 722 0
DWIDTH 75 0
BBX 71 100 2 0
BITMAP
00000001FF00000000
00000003FFC0000000
0000000FFFE0000000
0000001FFFF0000000
0000003FFFF8000000
0000003F83FC000000
0000007F01FC000000
0000007E00FC000000
0000007E007E000000
000000FC007E000000
000000FC007E000000
000000FC007E000000
0000007E007E000000
0000007E00FC000000
0000007F01FC000000
0000003F83FC000000
0000003FFFF8000000
0000001FFFF0000000
0000000FFFE0000000
00000007FFC0000000
00000001FF00000000
000000000000000000
000000000000000000
000000000000000000
000000000000000000
0000001FFFF8000000
0000003FFFF8000000
0000003FFFFC000000
0000007FFFFC000000
0000007FFFFC000000
0000007FFFFE000000
000000FFFFFE000000
000000FFFFFE000000
000000FFFFFF000000
000001FFFFFF000000
000001FFFFFF000000
000001FFFFFF800000
000003FFFFFF800000
000003FFFFFF800000
000003FFFFFFC00000
000007FFFFFFC00000
000007FFFFFFC00000
00000FFFEFFFE00000
00000FFFEFFFE00000
00000FFFEFFFF00000
00001FFFC7FFF00000
00001FFFC7FFF00000
00001FFFC7FFF80000
00003FFF83FFF80000
00003FFF83FFF80000
00003FFF83FFFC0000
00007FFF01FFFC0000
00007FFF01FFFC0000
00007FFF01FFFE0000
0000FFFE01FFFE0000
0000FFFE00FFFE0000
0000FFFE00FFFF0000
0001FFFC00FFFF0000
0001FFFC007FFF0000
0003FFFC007FFF8000
0003FFFC007FFF8000
0003FFF8003FFFC000
0007FFF8003FFFC000
0007FFF8003FFFC000
0007FFF0001FFFE000
000FFFF0001FFFE000
000FFFF0001FFFE000
000FFFE0001FFFF000
001FFFE0000FFFF000
001FFFE0000FFFF000
001FFFC0000FFFF800
003FFFC00007FFF800
003FFFFFFFFFFFF800
007FFFFFFFFFFFFC00
007FFFFFFFFFFFFC00
007FFFFFFFFFFFFC00
00FFFFFFFFFFFFFE00
00FFFFFFFFFFFFFE00
00FFFFFFFFFFFFFE00
01FFFFFFFFFFFFFF00
01FFFFFFFFFFFFFF00
01FFFFFFFFFFFFFF80
03FFFFFFFFFFFFFF80
03FFFFFFFFFFFFFF80
03FFFFFFFFFFFFFFC0
07FFF80000007FFFC0
07FFF80000003FFFC0
07FFF80000003FFFE0
0FFFF00000003FFFE0
0FFFF00000001FFFE0
1FFFF00000001FFFF0
1FFFE00000001FFFF0
1FFFE00000000FFFF0
3FFFE00000000FFFF8
3FFFC00000000FFFF8
3FFFC000000007FFF8
7FFFC000000007FFFC
7FFF8000000007FFFC
7FFF8000000003FFFC
FFFF8000000003FFFE
ENDCHAR
STARTCHAR AE
ENCODING 198
SWIDTH 1000 0
DWIDTH 104 0
BBX 98 75 1 0
BITMAP
0000001FFFFFFFFFFFFFFFFF80
0000003FFFFFFFFFFFFFFFFF80
0000003FFFFFFFFFFFFFFFFF80
0000007FFFFFFFFFFFFFFFFF80
0000007FFFFFFFFFFFFFFFFF80
0000007FFFFFFFFFFFFFFFFF80
000000FFFFFFFFFFFFFFFFFF80
000000FFFFFFFFFFFFFFFFFF80
000000FFFFFFFFFFFFFFFFFF80
000001FFFFFFFFFFFFFFFFFF80
000001FFFFFFFFFFFFFFFFFF80
000001FFFFFFFFFFFFFFFFFF80
000003FFFFFFFFFFFFFFFFFF80
000003FFF80FFFE00000000000
000007FFF00FFFE00000000000
000007FFF00FFFE00000000000
000007FFF00FFFE00000000000
00000FFFE00FFFE00000000000
00000FFFE00FFFE00000000000
00000FFFE00FFFE00000000000
00001FFFC00FFFE00000000000
00001FFFC00FFFE00000000000
00001FFFC00FFFE00000000000
00003FFF800FFFE00000000000
00003FFF800FFFE00000000000
00007FFF800FFFE00000000000
00007FFF000FFFE00000000000
00007FFF000FFFE00000000000
0000FFFF000FFFE00000000000
0000FFFE000FFFFFFFFFFFFC00
0000FFFE000FFFFFFFFFFFFC00
0001FFFE000FFFFFFFFFFFFC00
0001FFFC000FFFFFFFFFFFFC00
0001FFFC000FFFFFFFFFFFFC00
0003FFFC000FFFFFFFFFFFFC00
0003FFF8000FFFFFFFFFFFFC00
0007FFF8000FFFFFFFFFFFFC00
0007FFF0000FFFFFFFFFFFFC00
0007FFF0000FFFFFFFFFFFFC00
000FFFF0000FFFFFFFFFFFFC00
000FFFE0000FFFFFFFFFFFFC00
000FFFE0000FFFFFFFFFFFFC00
001FFFE0000FFFE00000000000
001FFFC0000FFFE00000000000
001FFFC0000FFFE00000000000
003FFFC0000FFFE00000000000
003FFF80000FFFE00000000000
003FFFFFFFFFFFE00000000000
007FFFFFFFFFFFE00000000000
007FFFFFFFFFFFE00000000000
00FFFFFFFFFFFFE00000000000
00FFFFFFFFFFFFE00000000000
00FFFFFFFFFFFFE00000000000
01FFFFFFFFFFFFE00000000000
01FFFFFFFFFFFFE00000000000
01FFFFFFFFFFFFE00000000000
03FFFFFFFFFFFFE00000000000
03FFFFFFFFFFFFE00000000000
03FFFFFFFFFFFFE00000000000
07FFF800000FFFE00000000000
07FFF800000FFFE00000000000
0FFFF000000FFFE00000000000
0FFFF000000FFFFFFFFFFFFFC0
0FFFF000000FFFFFFFFFFFFFC0
1FFFE000000FFFFFFFFFFFFFC0
1FFFE000000FFFFFFFFFFFFFC0
1FFFE000000FFFFFFFFFFFFFC0
3FFFC000000FFFFFFFFFFFFFC0
3FFFC000000FFFFFFFFFFFFFC0
3FFFC000000FFFFFFFFFFFFFC0
7FFF8000000FFFFFFFFFFFFFC0
7FFF8000000FFFFFFFFFFFFFC0
FFFF8000000FFFFFFFFFFFFFC0
FFFF0000000FFFFFFFFFFFFFC0
FFFF0000000FFFFFFFFFFFFFC0
ENDCHAR
STARTCHAR Ccedilla
ENCODING 199
SWIDTH 722 0
DWIDTH 75 0
BBX 66 101 5 -24
BITMAP
0000000FFF80000000
000001FFFFF8000000
00000FFFFFFF000000
00003FFFFFFFC00000
0000FFFFFFFFF00000
0001FFFFFFFFFC0000
0007FFFFFFFFFE0000
000FFFFFFFFFFF0000
001FFFFFFFFFFFC000
003FFFFFFFFFFFE000
007FFFFFFFFFFFE000
00FFFFFFFFFFFFF000
01FFFFFFFFFFFFF800
01FFFFFFFFFFFFFC00
03FFFFF0007FFFFC00
07FFFFC0001FFFFE00
07FFFF000007FFFE00
0FFFFE000003FFFF00
0FFFFC000001FFFF00
1FFFF8000000FFFF80
1FFFF0000000FFFF80
1FFFF00000007FFF80
3FFFE00000007FFFC0
3FFFE00000003FFFC0
3FFFC00000003FFFC0
7FFFC00000003FFFC0
7FFF800000001FFFC0
7FFF80000000000000
7FFF80000000000000
FFFF80000000000000
FFFF00000000000000
FFFF00000000000000
FFFF00000000000000
FFFF00000000000000
FFFF00000000000000
FFFF00000000000000
FFFF00000000000000
FFFF00000000000000
FFFF00000000000000
FFFF00000000000000
FFFF00000000000000
FFFF00000000000000
FFFF00000000000000
FFFF00000000000000
FFFF00000000000000
FFFF00000000000000
FFFF00000000000000
FFFF00000000000000
FFFF00000000000000
FFFF80000000000000
7FFF80000000000000
7FFF800000001FFFC0
7FFF800000003FFFC0
7FFFC00000003FFFC0
7FFFC00000003FFF80
3FFFE00000007FFF80
3FFFE00000007FFF80
3FFFF0000000FFFF80
1FFFF0000000FFFF00
1FFFF8000001FFFF00
0FFFFC000003FFFE00
0FFFFE000007FFFE00
07FFFF00000FFFFC00
07FFFFC0003FFFFC00
03FFFFF000FFFFF800
03FFFFFFFFFFFFF800
01FFFFFFFFFFFFF000
00FFFFFFFFFFFFE000
007FFFFFFFFFFFC000
003FFFFFFFFFFFC000
001FFFFFFFFFFF8000
000FFFFFFFFFFF0000
0007FFFFFFFFFC0000
0003FFFFFFFFF80000
0000FFFFFFFFE00000
00003FFFFFFFC00000
00000FFFFFFE000000
000001FFFFF8000000
0000001FFF00000000
0000001F8000000000
0000003F0000000000
0000003F0000000000
0000007E6000000000
000000FFFE00000000
000000FFFF00000000
000001FFFF80000000
000000FFFFC0000000
00000041FFC0000000
00000000FFE0000000
000000007FE0000000
000000007FE0000000
000000007FE0000000
000000007FE0000000
00000800FFC0000000
00000F81FFC0000000
00001FFFFF80000000
00001FFFFF80000000
00003FFFFF00000000
00003FFFFE00000000
000007FFF800000000
0000007FC000000000
ENDCHAR
STARTCHAR Egrave
ENCODING 200
SWIDTH 667 0
DWIDTH 69 0
BBX 57 98 8 0
BITMAP
01FFFE0000000000
00FFFF0000000000
007FFF8000000000
003FFF8000000000
001FFFC000000000
000FFFE000000000
0007FFE000000000
0003FFF000000000
0000FFF000000000
00007FF800000000
00003FFC00000000
00001FFC00000000
00000FFE00000000
000007FF00000000
000003FF00000000
0000000000000000
0000000000000000
0000000000000000
0000000000000000
0000000000000000
0000000000000000
0000000000000000
0000000000000000
FFFFFFFFFFFFFE00
FFFFFFFFFFFFFE00
FFFFFFFFFFFFFE00
FFFFFFFFFFFFFE00
FFFFFFFFFFFFFE00
FFFFFFFFFFFFFE00
FFFFFFFFFFFFFE00
FFFFFFFFFFFFFE00
FFFFFFFFFFFFFE00
FFFFFFFFFFFFFE00
FFFFFFFFFFFFFE00
FFFFFFFFFFFFFE00
FFFFFFFFFFFFFE00
FFFE000000000000
FFFE000000000000
FFFE000000000000
FFFE000000000000
FFFE000000000000
FFFE000000000000
FFFE000000000000
FFFE000000000000
FFFE000000000000
FFFE000000000000
FFFE000000000000
FFFE000000000000
FFFE000000000000
FFFE000000000000
FFFE000000000000
FFFE000000000000
FFFFFFFFFFFFF000
FFFFFFFFFFFFF000
FFFFFFFFFFFFF000
FFFFFFFFFFFFF000
FFFFFFFFFFFFF000
FFFFFFFFFFFFF000
FFFFFFFFFFFFF000
FFFFFFFFFFFFF000
FFFFFFFFFFFFF000
FFFFFFFFFFFFF000
FFFFFFFFFFFFF000
FFFFFFFFFFFFF000
FFFFFFFFFFFFF000
FFFE000000000000
FFFE000000000000
FFFE000000000000
FFFE000000000000
FFFE000000000000
FFFE000000000000
FFFE000000000000
FFFE000000000000
FFFE000000000000
FFFE000000000000
FFFE000000000000
FFFE000000000000
FFFE000000000000
FFFE000000000000
FFFE000000000000
FFFE000000000000
FFFE000000000000
FFFE000000000000
FFFE000000000000
FFFE000000000000
FFFFFFFFFFFFFF80
FFFFFFFFFFFFFF80
FFFFFFFFFFFFFF80
FFFFFFFFFFFFFF80
FFFFFFFFFFFFFF80
FFFFFFFFFFFFFF80
FFFFFFFFFFFFFF80
FFFFFFFFFFFFFF80
FFFFFFFFFFFFFF80
FFFFFFFFFFFFFF80
FFFFFFFFFFFFFF80
FFFFFFFFFFFFFF80
FFFFFFFFFFFFFF80
ENDCHAR
STARTCHAR Eacute
ENCODING 201
SWIDTH 667 0
DWIDTH 69 0
BBX 57 98 8 0
BITMAP
00000003FFFC0000
00000007FFF80000
00000007FFF00000
0000000FFFE00000
0000001FFFC00000
0000001FFF800000
0000003FFF000000
0000003FFE000000
0000007FFC000000
000000FFF8000000
000000FFF0000000
000001FFE0000000
000003FFC0000000
000003FF80000000
000007FF00000000
0000000000000000
0000000000000000
0000000000000000
0000000000000000
0000000000000000
0000000000000000
0000000000000000
0000000000000000
FFFFFFFFFFFFFE00
FFFFFFFFFFFFFE00
FFFFFFFFFFFFFE00
FFFFFFFFFFFFFE00
FFFFFFFFFFFFFE00
FFFFFFFFFFFFFE00
FFFFFFFFFFFFFE00
FFFFFFFFFFFFFE00
FFFFFFFFFFFFFE00
FFFFFFFFFFFFFE00
FFFFFFFFFFFFFE00
FFFFFFFFFFFFFE00
FFFFFFFFFFFFFE00
FFFE000000000000
FFFE000000000000
FFFE000000000000
FFFE000000000000
FFFE000000000000
FFFE000000000000
FFFE000000000000
FFFE000000000000
FFFE000000000000
FFFE000000000000
FFFE000000000000
FFFE000000000000
FFFE000000000000
FFFE000000000000
FFFE000000000000
FFFE000000000000
FFFFFFFFFFFFF000
FFFFFFFFFFFFF000
FFFFFFFFFFFFF000
FFFFFFFFFFFFF000
FFFFFFFFFFFFF000
FFFFFFFFFFFFF000
FFFFFFFFFFFFF000
FFFFFFFFFFFFF000
FFFFFFFFFFFFF000
FFFFFFFFFFFFF000
FFFFFFFFFFFFF000
FFFFFFFFFFFFF000
FFFFFFFFFFFFF000
FFFE000000000000
FFFE000000000000
FFFE000000000000
FFFE000000000000
FFFE000000000000
FFFE000000000000
FFFE000000000000
FFFE000000000000
FFFE000000000000
FFFE000000000000
FFFE000000000000
FFFE000000000000
FFFE000000000000
FFFE000000000000
FFFE000000000000
FFFE000000000000
FFFE000000000000
FFFE000000000000
FFFE000000000000
FFFE000000000000
FFFFFFFFFFFFFF80
FFFFFFFFFFFFFF80
FFFFFFFFFFFFFF80
FFFFFFFFFFFFFF80
FFFFFFFFFFFFFF80
FFFFFFFFFFFFFF80
FFFFFFFFFFFFFF80
FFFFFFFFFFFFFF80
FFFFFFFFFFFFFF80
FFFFFFFFFFFFFF80
FFFFFFFFFFFFFF80
FFFFFFFFFFFFFF80
FFFFFFFFFFFFFF80
ENDCHAR
STARTCHAR Ecircumflex
ENCODING 202
SWIDTH 667 0
DWIDTH 69 0
BBX 57 98 8 0
BITMAP
00000FFFC0000000
00001FFFC0000000
00003FFFE0000000
00007FFFF0000000
00007FFFF8000000
0000FFFFF8000000
0001FFFFFC000000
0003FFDFFE000000
0003FF8FFF000000
0007FF07FF800000
000FFF03FF800000
001FFE03FFC00000
003FFC01FFE00000
003FF800FFF00000
007FF8007FF80000
0000000000000000
0000000000000000
0000000000000000
0000000000000000
0000000000000000
0000000000000000
0000000000000000
0000000000000000
FFFFFFFFFFFFFE00
FFFFFFFFFFFFFE00
FFFFFFFFFFFFFE00
FFFFFFFFFFFFFE00
FFFFFFFFFFFFFE00
FFFFFFFFFFFFFE00
FFFFFFFFFFFFFE00
FFFFFFFFFFFFFE00
FFFFFFFFFFFFFE00
FFFFFFFFFFFFFE00
FFFFFFFFFFFFFE00
FFFFFFFFFFFFFE00
FFFFFFFFFFFFFE00
FFFE000000000000
FFFE000000000000
FFFE000000000000
FFFE000000000000
FFFE000000000000
FFFE000000000000
FFFE000000000000
FFFE000000000000
FFFE000000000000
FFFE000000000000
FFFE000000000000
FFFE000000000000
FFFE000000000000
FFFE000000000000
FFFE000000000000
FFFE000000000000
FFFFFFFFFFFFF000
FFFFFFFFFFFFF000
FFFFFFFFFFFFF000
FFFFFFFFFFFFF000
FFFFFFFFFFFFF000
FFFFFFFFFFFFF000
FFFFFFFFFFFFF000
FFFFFFFFFFFFF000
FFFFFFFFFFFFF000
FFFFFFFFFFFFF000
FFFFFFFFFFFFF000
FFFFFFFFFFFFF000
FFFFFFFFFFFFF000
FFFE000000000000
FFFE000000000000
FFFE000000000000
FFFE000000000000
FFFE000000000000
FFFE000000000000
FFFE000000000000
FFFE000000000000
FFFE000000000000
FFFE000000000000
FFFE000000000000
FFFE000000000000
FFFE000000000000
FFFE000000000000
FFFE000000000000
FFFE000000000000
FFFE000000000000
FFFE000000000000
FFFE000000000000
FFFE000000000000
FFFFFFFFFFFFFF80
FFFFFFFFFFFFFF80
FFFFFFFFFFFFFF80
FFFFFFFFFFFFFF80
FFFFFFFFFFFFFF80
FFFFFFFFFFFFFF80
FFFFFFFFFFFFFF80
FFFFFFFFFFFFFF80
FFFFFFFFFFFFFF80
FFFFFFFFFFFFFF80
FFFFFFFFFFFFFF80
FFFFFFFFFFFFFF80
FFFFFFFFFFFFFF80
ENDCHAR
STARTCHAR Edieresis
ENCODING 203
SWIDTH 667 0
DWIDTH 69 0
BBX 57 96 8 0
BITMAP
003FFE03FFE00000
003FFE03FFE00000
003FFE03FFE00000
003FFE03FFE00000
003FFE03FFE00000
003FFE03FFE00000
003FFE03FFE00000
003FFE03FFE00000
003FFE03FFE00000
003FFE03FFE00000
003FFE03FFE00000
003FFE03FFE00000
0000000000000000
0000000000000000
0000000000000000
0000000000000000
0000000000000000
0000000000000000
0000000000000000
0000000000000000
0000000000000000
FFFFFFFFFFFFFE00
FFFFFFFFFFFFFE00
FFFFFFFFFFFFFE00
FFFFFFFFFFFFFE00
FFFFFFFFFFFFFE00
FFFFFFFFFFFFFE00
FFFFFFFFFFFFFE00
FFFFFFFFFFFFFE00
FFFFFFFFFFFFFE00
FFFFFFFFFFFFFE00
FFFFFFFFFFFFFE00
FFFFFFFFFFFFFE00
FFFFFFFFFFFFFE00
FFFE000000000000
FFFE000000000000
FFFE000000000000
FFFE000000000000
FFFE000000000000
FFFE000000000000
FFFE000000000000
FFFE000000000000
FFFE000000000000
FFFE000000000000
FFFE000000000000
FFFE000000000000
FFFE000000000000
FFFE000000000000
FFFE000000000000
FFFE000000000000
FFFFFFFFFFFFF000
FFFFFFFFFFFFF000
FFFFFFFFFFFFF000
FFFFFFFFFFFFF000
FFFFFFFFFFFFF000
FFFFFFFFFFFFF000
FFFFFFFFFFFFF000
FFFFFFFFFFFFF000
FFFFFFFFFFFFF000
FFFFFFFFFFFFF000
FFFFFFFFFFFFF000
FFFFFFFFFFFFF000
FFFFFFFFFFFFF000
FFFE000000000000
FFFE000000000000
FFFE000000000000
FFFE000000000000
FFFE000000000000
FFFE000000000000
FFFE000000000000
FFFE000000000000
FFFE000000000000
FFFE000000000000
FFFE000000000000
FFFE000000000000
FFFE000000000000
FFFE000000000000
FFFE000000000000
FFFE000000000000
FFFE000000000000
FFFE000000000000
FFFE000000000000
FFFE000000000000
FFFFFFFFFFFFFF80
FFFFFFFFFFFFFF80
FFFFFFFFFFFFFF80
FFFFFFFFFFFFFF80
FFFFFFFFFFFFFF80
FFFFFFFFFFFFFF80
FFFFFFFFFFFFFF80
FFFFFFFFFFFFFF80
FFFFFFFFFFFFFF80
FFFFFFFFFFFFFF80
FFFFFFFFFFFFFF80
FFFFFFFFFFFFFF80
FFFFFFFFFFFFFF80
ENDCHAR
STARTCHAR Igrave
ENCODING 204
SWIDTH 278 0
DWIDTH 29 0
BBX 27 98 -5 0
BITMAP
FFFF0000
7FFF8000
3FFF8000
1FFFC000
0FFFE000
07FFE000
03FFF000
01FFF800
00FFF800
007FFC00
003FFE00
001FFE00
000FFF00
0007FF80
0003FF80
00000000
00000000
00000000
00000000
00000000
00000000
00000000
00000000
000FFFE0
000FFFE0
000FFFE0
000FFFE0
000FFFE0
000FFFE0
000FFFE0
000FFFE0
000FFFE0
000FFFE0
000FFFE0
000FFFE0
000FFFE0
000FFFE0
000FFFE0
000FFFE0
000FFFE0
000FFFE0
000FFFE0
000FFFE0
000FFFE0
000FFFE0
000FFFE0
000FFFE0
000FFFE0
000FFFE0
000FFFE0
000FFFE0
000FFFE0
000FFFE0
000FFFE0
000FFFE0
000FFFE0
000FFFE0
000FFFE0
000FFFE0
000FFFE0
000FFFE0
000FFFE0
000FFFE0
000FFFE0
000FFFE0
000FFFE0
000FFFE0
000FFFE0
000FFFE0
000FFFE0
000FFFE0
000FFFE0
000FFFE0
000FFFE0
000FFFE0
000FFFE0
000FFFE0
000FFFE0
000FFFE0
000FFFE0
000FFFE0
000FFFE0
000FFFE0
000FFFE0
000FFFE0
000FFFE0
000FFFE0
000FFFE0
000FFFE0
000FFFE0
000FFFE0
000FFFE0
000FFFE0
000FFFE0
000FFFE0
000FFFE0
000FFFE0
000FFFE0
ENDCHAR
STARTCHAR Iacute
ENCODING 205
SWIDTH 278 0
DWIDTH 29 0
BBX 27 98 7 0
BITMAP
001FFFE0
003FFFC0
003FFF80
007FFF00
00FFFE00
00FFFC00
01FFF800
03FFF000
03FFE000
07FFC000
0FFF8000
0FFF0000
1FFE0000
1FFC0000
3FF80000
00000000
00000000
00000000
00000000
00000000
00000000
00000000
00000000
FFFE0000
FFFE0000
FFFE0000
FFFE0000
FFFE0000
FFFE0000
FFFE0000
FFFE0000
FFFE0000
FFFE0000
FFFE0000
FFFE0000
FFFE0000
FFFE0000
FFFE0000
FFFE0000
FFFE0000
FFFE0000
FFFE0000
FFFE0000
FFFE0000
FFFE0000
FFFE0000
FFFE0000
FFFE0000
FFFE0000
FFFE0000
FFFE0000
FFFE0000
FFFE0000
FFFE0000
FFFE0000
FFFE0000
FFFE0000
FFFE0000
FFFE0000
FFFE0000
FFFE0000
FFFE0000
FFFE0000
FFFE0000
FFFE0000
FFFE0000
FFFE0000
FFFE0000
FFFE0000
FFFE0000
FFFE0000
FFFE0000
FFFE0000
FFFE0000
FFFE0000
FFFE0000
FFFE0000
FFFE0000
FFFE0000
FFFE0000
FFFE0000
FFFE0000
FFFE0000
FFFE0000
FFFE0000
FFFE0000
FFFE0000
FFFE0000
FFFE0000
FFFE0000
FFFE0000
FFFE0000
FFFE0000
FFFE0000
FFFE0000
FFFE0000
FFFE0000
FFFE0000
ENDCHAR
STARTCHAR Icircumflex
ENCODING 206
SWIDTH 278 0
DWIDTH 29 0
BBX 35 98 -3 0
BITMAP
001FFF0000
003FFF8000
007FFFC000
00FFFFE000
01FFFFF000
01FFFFF000
03FFFFF800
07FFBFFC00
0FFF1FFE00
0FFE0FFE00
1FFC0FFF00
3FFC07FF80
7FF803FFC0
FFF001FFE0
FFE000FFE0
0000000000
0000000000
0000000000
0000000000
0000000000
0000000000
0000000000
0000000000
003FFF8000
003FFF8000
003FFF8000
003FFF8000
003FFF8000
003FFF8000
003FFF8000
003FFF8000
003FFF8000
003FFF8000
003FFF8000
003FFF8000
003FFF8000
003FFF8000
003FFF8000
003FFF8000
003FFF8000
003FFF8000
003FFF8000
003FFF8000
003FFF8000
003FFF8000
003FFF8000
003FFF8000
003FFF8000
003FFF8000
003FFF8000
003FFF8000
003FFF8000
003FFF8000
003FFF8000
003FFF8000
003FFF8000
003FFF8000
003FFF8000
003FFF8000
003FFF8000
003FFF8000
003FFF8000
003FFF8000
003FFF8000
003FFF8000
003FFF8000
003FFF8000
003FFF8000
003FFF8000
003FFF8000
003FFF8000
003FFF8000
003FFF8000
003FFF8000
003FFF8000
003FFF8000
003FFF8000
003FFF8000
003FFF8000
003FFF8000
003FFF8000
003FFF8000
003FFF8000
003FFF8000
003FFF8000
003FFF8000
003FFF8000
003FFF8000
003FFF8000
003FFF8000
003FFF8000
003FFF8000
003FFF8000
003FFF8000
003FFF8000
003FFF8000
003FFF8000
003FFF8000
ENDCHAR
STARTCHAR Idieresis
ENCODING 207
SWIDTH 278 0
DWIDTH 29 0
BBX 33 96 -2 0
BITMAP
FFF80FFF80
FFF80FFF80
FFF80FFF80
FFF80FFF80
FFF80FFF80
FFF80FFF80
FFF80FFF80
FFF80FFF80
FFF80FFF80
FFF80FFF80
FFF80FFF80
FFF80FFF80
0000000000
0000000000
0000000000
0000000000
0000000000
0000000000
0000000000
0000000000
0000000000
007FFF0000
007FFF0000
007FFF0000
007FFF0000
007FFF0000
007FFF0000
007FFF0000
007FFF0000
007FFF0000
007FFF0000
007FFF0000
007FFF0000
007FFF0000
007FFF0000
007FFF0000
007FFF0000
007FFF0000
007FFF0000
007FFF0000
007FFF0000
007FFF0000
007FFF0000
007FFF0000
007FFF0000
007FFF0000
007FFF0000
007FFF0000
007FFF0000
007FFF0000
007FFF0000
007FFF0000
007FFF0000
007FFF0000
007FFF0000
007FFF0000
007FFF0000
007FFF0000
007FFF0000
007FFF0000
007FFF0000
007FFF0000
007FFF0000
007FFF0000
007FFF0000
007FFF0000
007FFF0000
007FFF0000
007FFF0000
007FFF0000
007FFF0000
007FFF0000
007FFF0000
007FFF0000
007FFF0000
007FFF0000
007FFF0000
007FFF0000
007FFF0000
007FFF0000
007FFF0000
007FFF0000
007FFF0000
007FFF0000
007FFF0000
007FFF0000
007FFF0000
007FFF0000
007FFF0000
007FFF0000
007FFF0000
007FFF0000
007FFF0000
007FFF0000
007FFF0000
007FFF0000
ENDCHAR
STARTCHAR Eth
ENCODING 208
SWIDTH 722 0
DWIDTH 75 0
BBX 72 75 -1 0
BITMAP
007FFFFFFFFF000000
007FFFFFFFFFF00000
007FFFFFFFFFFE0000
007FFFFFFFFFFF8000
007FFFFFFFFFFFE000
007FFFFFFFFFFFF000
007FFFFFFFFFFFFC00
007FFFFFFFFFFFFE00
007FFFFFFFFFFFFF00
007FFFFFFFFFFFFF00
007FFFFFFFFFFFFF80
007FFFFFFFFFFFFFC0
007FFFFFFFFFFFFFC0
007FFF00000FFFFFE0
007FFF000001FFFFF0
007FFF0000007FFFF0
007FFF0000003FFFF8
007FFF0000001FFFF8
007FFF0000000FFFF8
007FFF00000007FFFC
007FFF00000007FFFC
007FFF00000003FFFC
007FFF00000003FFFE
007FFF00000003FFFE
007FFF00000001FFFE
007FFF00000001FFFE
007FFF00000001FFFF
007FFF00000000FFFF
007FFF00000000FFFF
FFFFFFFFFF8000FFFF
FFFFFFFFFF8000FFFF
FFFFFFFFFF8000FFFF
FFFFFFFFFF8000FFFF
FFFFFFFFFF8000FFFF
FFFFFFFFFF8000FFFF
FFFFFFFFFF8000FFFF
FFFFFFFFFF8000FFFF
FFFFFFFFFF8000FFFF
FFFFFFFFFF8000FFFF
FFFFFFFFFF8000FFFF
FFFFFFFFFF8000FFFF
FFFFFFFFFF8000FFFF
007FFF00000000FFFF
007FFF00000000FFFF
007FFF00000000FFFF
007FFF00000000FFFE
007FFF00000001FFFE
007FFF00000001FFFE
007FFF00000001FFFE
007FFF00000001FFFE
007FFF00000003FFFC
007FFF00000003FFFC
007FFF00000007FFFC
007FFF00000007FFFC
007FFF0000000FFFF8
007FFF0000000FFFF8
007FFF0000001FFFF0
007FFF0000003FFFF0
007FFF0000007FFFF0
007FFF000000FFFFE0
007FFF000003FFFFE0
007FFF00000FFFFFC0
007FFFFFFFFFFFFF80
007FFFFFFFFFFFFF80
007FFFFFFFFFFFFF00
007FFFFFFFFFFFFE00
007FFFFFFFFFFFFC00
007FFFFFFFFFFFF800
007FFFFFFFFFFFF000
007FFFFFFFFFFFE000
007FFFFFFFFFFF8000
007FFFFFFFFFFF0000
007FFFFFFFFFFC0000
007FFFFFFFFFE00000
007FFFFFFFFE000000
ENDCHAR
STARTCHAR Ntilde
ENCODING 209
SWIDTH 722 0
DWIDTH 75 0
BBX 61 96 7 0
BITMAP
000003C0001FC000
00001FFC003F8000
00007FFF003F8000
0000FFFFE0FF8000
0001FFFFFFFF0000
0003FFFFFFFF0000
0003FFFFFFFE0000
0007FFFFFFFE0000
0007FFFFFFFC0000
000FF01FFFF80000
000FE003FFF00000
000FE0007FC00000
000FC00000000000
0000000000000000
0000000000000000
0000000000000000
0000000000000000
0000000000000000
0000000000000000
0000000000000000
0000000000000000
FFFF80000003FFF8
FFFF80000003FFF8
FFFFC0000003FFF8
FFFFE0000003FFF8
FFFFE0000003FFF8
FFFFF0000003FFF8
FFFFF0000003FFF8
FFFFF8000003FFF8
FFFFF8000003FFF8
FFFFFC000003FFF8
FFFFFE000003FFF8
FFFFFE000003FFF8
FFFFFF000003FFF8
FFFFFF000003FFF8
FFFFFF800003FFF8
FFFFFF800003FFF8
FFFFFFC00003FFF8
FFFFFFE00003FFF8
FFFFFFE00003FFF8
FFFFFFF00003FFF8
FFFFFFF00003FFF8
FFFFFFF80003FFF8
FFFFFFF80003FFF8
FFFEFFFC0003FFF8
FFFE7FFE0003FFF8
FFFE7FFE0003FFF8
FFFE3FFF0003FFF8
FFFE3FFF0003FFF8
FFFE1FFF8003FFF8
FFFE1FFF8003FFF8
FFFE0FFFC003FFF8
FFFE07FFC003FFF8
FFFE07FFE003FFF8
FFFE03FFF003FFF8
FFFE03FFF003FFF8
FFFE01FFF803FFF8
FFFE01FFF803FFF8
FFFE00FFFC03FFF8
FFFE007FFC03FFF8
FFFE007FFE03FFF8
FFFE003FFF03FFF8
FFFE003FFF03FFF8
FFFE001FFF83FFF8
FFFE001FFF83FFF8
FFFE000FFFC3FFF8
FFFE0007FFC3FFF8
FFFE0007FFE3FFF8
FFFE0003FFF3FFF8
FFFE0003FFF3FFF8
FFFE0001FFFBFFF8
FFFE0001FFFBFFF8
FFFE0000FFFFFFF8
FFFE00007FFFFFF8
FFFE00007FFFFFF8
FFFE00003FFFFFF8
FFFE00003FFFFFF8
FFFE00001FFFFFF8
FFFE00001FFFFFF8
FFFE00000FFFFFF8
FFFE000007FFFFF8
FFFE000007FFFFF8
FFFE000003FFFFF8
FFFE000003FFFFF8
FFFE000001FFFFF8
FFFE000001FFFFF8
FFFE000000FFFFF8
FFFE0000007FFFF8
FFFE0000007FFFF8
FFFE0000003FFFF8
FFFE0000003FFFF8
FFFE0000001FFFF8
FFFE0000001FFFF8
FFFE0000000FFFF8
FFFE00000007FFF8
FFFE00000007FFF8
ENDCHAR
STARTCHAR Ograve
ENCODING 210
SWIDTH 778 0
DWIDTH 81 0
BBX 71 100 5 -2
BITMAP
0000FFFF0000000000
00007FFF8000000000
00003FFF8000000000
00001FFFC000000000
00000FFFE000000000
000007FFE000000000
000003FFF000000000
000001FFF800000000
000000FFF800000000
0000007FFC00000000
0000003FFE00000000
0000001FFE00000000
0000000FFF00000000
00000007FF80000000
00000003FF80000000
000000000000000000
000000000000000000
000000000000000000
000000000000000000
000000000000000000
000000000000000000
00000003FFC0000000
0000007FFFFC000000
000003FFFFFFC00000
00001FFFFFFFF00000
00007FFFFFFFFC0000
0001FFFFFFFFFF0000
0003FFFFFFFFFF8000
0007FFFFFFFFFFC000
001FFFFFFFFFFFF000
003FFFFFFFFFFFF800
007FFFFFFFFFFFFC00
00FFFFFFFFFFFFFE00
00FFFFFFFFFFFFFE00
01FFFFFF01FFFFFF00
03FFFFF0003FFFFF80
07FFFFC00007FFFFC0
07FFFF800003FFFFC0
0FFFFE000000FFFFE0
0FFFFC0000007FFFE0
1FFFF80000003FFFF0
1FFFF00000001FFFF0
1FFFF00000001FFFF0
3FFFE00000000FFFF8
3FFFE00000000FFFF8
3FFFC000000007FFF8
7FFFC000000007FFFC
7FFF8000000003FFFC
7FFF8000000003FFFC
7FFF8000000003FFFC
FFFF0000000001FFFE
FFFF0000000001FFFE
FFFF0000000001FFFE
FFFF0000000001FFFE
FFFF0000000001FFFE
FFFE0000000000FFFE
FFFE0000000000FFFE
FFFE0000000000FFFE
FFFE0000000000FFFE
FFFE0000000000FFFE
FFFE0000000000FFFE
FFFE0000000000FFFE
FFFE0000000000FFFE
FFFE0000000000FFFE
FFFE0000000000FFFE
FFFE0000000000FFFE
FFFF0000000001FFFE
FFFF0000000001FFFE
FFFF0000000001FFFE
FFFF0000000001FFFE
FFFF0000000001FFFE
7FFF8000000003FFFC
7FFF8000000003FFFC
7FFF8000000003FFFC
7FFFC000000007FFFC
3FFFC000000007FFF8
3FFFE000000007FFF8
3FFFE00000000FFFF8
1FFFF00000001FFFF0
1FFFF00000001FFFF0
1FFFF80000003FFFF0
0FFFFC0000007FFFE0
0FFFFE000000FFFFE0
07FFFF800003FFFFC0
07FFFFC00007FFFF80
03FFFFF0001FFFFF80
01FFFFFF01FFFFFF00
01FFFFFFFFFFFFFE00
00FFFFFFFFFFFFFE00
007FFFFFFFFFFFFC00
003FFFFFFFFFFFF800
001FFFFFFFFFFFF000
0007FFFFFFFFFFC000
0003FFFFFFFFFF8000
0001FFFFFFFFFE0000
00007FFFFFFFFC0000
00001FFFFFFFF00000
000007FFFFFF800000
000000FFFFFC000000
00000007FF80000000
ENDCHAR
STARTCHAR Oacute
ENCODING 211
SWIDTH 778 0
DWIDTH 81 0
BBX 71 100 5 -2
BITMAP
0000000001FFFE0000
0000000003FFFC0000
0000000003FFF80000
0000000007FFF00000
000000000FFFE00000
000000000FFFC00000
000000001FFF800000
000000003FFF000000
000000003FFE000000
000000007FFC000000
00000000FFF8000000
00000000FFF0000000
00000001FFE0000000
00000001FFC0000000
00000003FF80000000
000000000000000000
000000000000000000
000000000000000000
000000000000000000
000000000000000000
000000000000000000
00000003FFC0000000
0000007FFFFC000000
000003FFFFFFC00000
00001FFFFFFFF00000
00007FFFFFFFFC0000
0001FFFFFFFFFF0000
0003FFFFFFFFFF8000
0007FFFFFFFFFFC000
001FFFFFFFFFFFF000
003FFFFFFFFFFFF800
007FFFFFFFFFFFFC00
00FFFFFFFFFFFFFE00
00FFFFFFFFFFFFFE00
01FFFFFF01FFFFFF00
03FFFFF0003FFFFF80
07FFFFC00007FFFFC0
07FFFF800003FFFFC0
0FFFFE000000FFFFE0
0FFFFC0000007FFFE0
1FFFF80000003FFFF0
1FFFF00000001FFFF0
1FFFF00000001FFFF0
3FFFE00000000FFFF8
3FFFE00000000FFFF8
3FFFC000000007FFF8
7FFFC000000007FFFC
7FFF8000000003FFFC
7FFF8000000003FFFC
7FFF8000000003FFFC
FFFF0000000001FFFE
FFFF0000000001FFFE
FFFF0000000001FFFE
FFFF0000000001FFFE
FFFF0000000001FFFE
FFFE0000000000FFFE
FFFE0000000000FFFE
FFFE0000000000FFFE
FFFE0000000000FFFE
FFFE0000000000FFFE
FFFE0000000000FFFE
FFFE0000000000FFFE
FFFE0000000000FFFE
FFFE0000000000FFFE
FFFE0000000000FFFE
FFFE0000000000FFFE
FFFF0000000001FFFE
FFFF0000000001FFFE
FFFF0000000001FFFE
FFFF0000000001FFFE
FFFF0000000001FFFE
7FFF8000000003FFFC
7FFF8000000003FFFC
7FFF8000000003FFFC
7FFFC000000007FFFC
3FFFC000000007FFF8
3FFFE000000007FFF8
3FFFE00000000FFFF8
1FFFF00000001FFFF0
1FFFF00000001FFFF0
1FFFF80000003FFFF0
0FFFFC0000007FFFE0
0FFFFE000000FFFFE0
07FFFF800003FFFFC0
07FFFFC00007FFFF80
03FFFFF0001FFFFF80
01FFFFFF01FFFFFF00
01FFFFFFFFFFFFFE00
00FFFFFFFFFFFFFE00
007FFFFFFFFFFFFC00
003FFFFFFFFFFFF800
001FFFFFFFFFFFF000
0007FFFFFFFFFFC000
0003FFFFFFFFFF8000
0001FFFFFFFFFE0000
00007FFFFFFFFC0000
00001FFFFFFFF00000
000007FFFFFF800000
000000FFFFFC000000
00000007FF80000000
ENDCHAR
STARTCHAR Ocircumflex
ENCODING 212
SWIDTH 778 0
DWIDTH 81 0
BBX 71 100 5 -2
BITMAP
00000007FFC0000000
0000000FFFE0000000
0000001FFFF0000000
0000003FFFF8000000
0000007FFFFC000000
0000007FFFFC000000
000000FFFFFE000000
000001FFEFFF000000
000003FFC7FF800000
000003FF83FF800000
000007FF03FFC00000
00000FFF01FFE00000
00001FFE00FFF00000
00003FFC007FF80000
00003FF8003FF80000
000000000000000000
000000000000000000
000000000000000000
000000000000000000
000000000000000000
000000000000000000
00000003FFC0000000
0000007FFFFC000000
000003FFFFFFC00000
00001FFFFFFFF00000
00007FFFFFFFFC0000
0001FFFFFFFFFF0000
0003FFFFFFFFFF8000
0007FFFFFFFFFFC000
001FFFFFFFFFFFF000
003FFFFFFFFFFFF800
007FFFFFFFFFFFFC00
00FFFFFFFFFFFFFE00
00FFFFFFFFFFFFFE00
01FFFFFF01FFFFFF00
03FFFFF0003FFFFF80
07FFFFC00007FFFFC0
07FFFF800003FFFFC0
0FFFFE000000FFFFE0
0FFFFC0000007FFFE0
1FFFF80000003FFFF0
1FFFF00000001FFFF0
1FFFF00000001FFFF0
3FFFE00000000FFFF8
3FFFE00000000FFFF8
3FFFC000000007FFF8
7FFFC000000007FFFC
7FFF8000000003FFFC
7FFF8000000003FFFC
7FFF8000000003FFFC
FFFF0000000001FFFE
FFFF0000000001FFFE
FFFF0000000001FFFE
FFFF0000000001FFFE
FFFF0000000001FFFE
FFFE0000000000FFFE
FFFE0000000000FFFE
FFFE0000000000FFFE
FFFE0000000000FFFE
FFFE0000000000FFFE
FFFE0000000000FFFE
FFFE0000000000FFFE
FFFE0000000000FFFE
FFFE0000000000FFFE
FFFE0000000000FFFE
FFFE0000000000FFFE
FFFF0000000001FFFE
FFFF0000000001FFFE
FFFF0000000001FFFE
FFFF0000000001FFFE
FFFF0000000001FFFE
7FFF8000000003FFFC
7FFF8000000003FFFC
7FFF8000000003FFFC
7FFFC000000007FFFC
3FFFC000000007FFF8
3FFFE000000007FFF8
3FFFE00000000FFFF8
1FFFF00000001FFFF0
1FFFF00000001FFFF0
1FFFF80000003FFFF0
0FFFFC0000007FFFE0
0FFFFE000000FFFFE0
07FFFF800003FFFFC0
07FFFFC00007FFFF80
03FFFFF0001FFFFF80
01FFFFFF01FFFFFF00
01FFFFFFFFFFFFFE00
00FFFFFFFFFFFFFE00
007FFFFFFFFFFFFC00
003FFFFFFFFFFFF800
001FFFFFFFFFFFF000
0007FFFFFFFFFFC000
0003FFFFFFFFFF8000
0001FFFFFFFFFE0000
00007FFFFFFFFC0000
00001FFFFFFFF00000
000007FFFFFF800000
000000FFFFFC000000
00000007FF80000000
ENDCHAR
STARTCHAR Otilde
ENCODING 213
SWIDTH 778 0
DWIDTH 81 0
BBX 71 98 5 -2
BITMAP
0000001E0000FC0000
000000FFE001FC0000
000003FFF801FC0000
000007FFFF07FC0000
00000FFFFFFFF80000
00001FFFFFFFF80000
00001FFFFFFFF00000
00003FFFFFFFF00000
00003FFFFFFFE00000
00007F80FFFFC00000
00007F001FFF800000
00007F0003FE000000
00007E000000000000
000000000000000000
000000000000000000
000000000000000000
000000000000000000
000000000000000000
000000000000000000
00000003FFC0000000
0000007FFFFC000000
000003FFFFFFC00000
00001FFFFFFFF00000
00007FFFFFFFFC0000
0001FFFFFFFFFF0000
0003FFFFFFFFFF8000
0007FFFFFFFFFFC000
001FFFFFFFFFFFF000
003FFFFFFFFFFFF800
007FFFFFFFFFFFFC00
00FFFFFFFFFFFFFE00
00FFFFFFFFFFFFFE00
01FFFFFF01FFFFFF00
03FFFFF0003FFFFF80
07FFFFC00007FFFFC0
07FFFF800003FFFFC0
0FFFFE000000FFFFE0
0FFFFC0000007FFFE0
1FFFF80000003FFFF0
1FFFF00000001FFFF0
1FFFF00000001FFFF0
3FFFE00000000FFFF8
3FFFE00000000FFFF8
3FFFC000000007FFF8
7FFFC000000007FFFC
7FFF8000000003FFFC
7FFF8000000003FFFC
7FFF8000000003FFFC
FFFF0000000001FFFE
FFFF0000000001FFFE
FFFF0000000001FFFE
FFFF0000000001FFFE
FFFF0000000001FFFE
FFFE0000000000FFFE
FFFE0000000000FFFE
FFFE0000000000FFFE
FFFE0000000000FFFE
FFFE0000000000FFFE
FFFE0000000000FFFE
FFFE0000000000FFFE
FFFE0000000000FFFE
FFFE0000000000FFFE
FFFE0000000000FFFE
FFFE0000000000FFFE
FFFF0000000001FFFE
FFFF0000000001FFFE
FFFF0000000001FFFE
FFFF0000000001FFFE
FFFF0000000001FFFE
7FFF8000000003FFFC
7FFF8000000003FFFC
7FFF8000000003FFFC
7FFFC000000007FFFC
3FFFC000000007FFF8
3FFFE000000007FFF8
3FFFE00000000FFFF8
1FFFF00000001FFFF0
1FFFF00000001FFFF0
1FFFF80000003FFFF0
0FFFFC0000007FFFE0
0FFFFE000000FFFFE0
07FFFF800003FFFFC0
07FFFFC00007FFFF80
03FFFFF0001FFFFF80
01FFFFFF01FFFFFF00
01FFFFFFFFFFFFFE00
00FFFFFFFFFFFFFE00
007FFFFFFFFFFFFC00
003FFFFFFFFFFFF800
001FFFFFFFFFFFF000
0007FFFFFFFFFFC000
0003FFFFFFFFFF8000
0001FFFFFFFFFE0000
00007FFFFFFFFC0000
00001FFFFFFFF00000
000007FFFFFF800000
000000FFFFFC000000
00000007FF80000000
ENDCHAR
STARTCHAR Odieresis
ENCODING 214
SWIDTH 778 0
DWIDTH 81 0
BBX 71 98 5 -2
BITMAP
00001FFF01FFF00000
00001FFF01FFF00000
00001FFF01FFF00000
00001FFF01FFF00000
00001FFF01FFF00000
00001FFF01FFF00000
00001FFF01FFF00000
00001FFF01FFF00000
00001FFF01FFF00000
00001FFF01FFF00000
00001FFF01FFF00000
00001FFF01FFF00000
000000000000000000
000000000000000000
000000000000000000
000000000000000000
000000000000000000
000000000000000000
000000000000000000
00000003FFC0000000
0000007FFFFC000000
000003FFFFFFC00000
00001FFFFFFFF00000
00007FFFFFFFFC0000
0001FFFFFFFFFF0000
0003FFFFFFFFFF8000
0007FFFFFFFFFFC000
001FFFFFFFFFFFF000
003FFFFFFFFFFFF800
007FFFFFFFFFFFFC00
00FFFFFFFFFFFFFE00
00FFFFFFFFFFFFFE00
01FFFFFF01FFFFFF00
03FFFFF0003FFFFF80
07FFFFC00007FFFFC0
07FFFF800003FFFFC0
0FFFFE000000FFFFE0
0FFFFC0000007FFFE0
1FFFF80000003FFFF0
1FFFF00000001FFFF0
1FFFF00000001FFFF0
3FFFE00000000FFFF8
3FFFE00000000FFFF8
3FFFC000000007FFF8
7FFFC000000007FFFC
7FFF8000000003FFFC
7FFF8000000003FFFC
7FFF8000000003FFFC
FFFF0000000001FFFE
FFFF0000000001FFFE
FFFF0000000001FFFE
FFFF0000000001FFFE
FFFF0000000001FFFE
FFFE0000000000FFFE
FFFE0000000000FFFE
FFFE0000000000FFFE
FFFE0000000000FFFE
FFFE0000000000FFFE
FFFE0000000000FFFE
FFFE0000000000FFFE
FFFE0000000000FFFE
FFFE0000000000FFFE
FFFE0000000000FFFE
FFFE0000000000FFFE
FFFF0000000001FFFE
FFFF0000000001FFFE
FFFF0000000001FFFE
FFFF0000000001FFFE
FFFF0000000001FFFE
7FFF8000000003FFFC
7FFF8000000003FFFC
7FFF8000000003FFFC
7FFFC000000007FFFC
3FFFC000000007FFF8
3FFFE000000007FFF8
3FFFE00000000FFFF8
1FFFF00000001FFFF0
1FFFF00000001FFFF0
1FFFF80000003FFFF0
0FFFFC0000007FFFE0
0FFFFE000000FFFFE0
07FFFF800003FFFFC0
07FFFFC00007FFFF80
03FFFFF0001FFFFF80
01FFFFFF01FFFFFF00
01FFFFFFFFFFFFFE00
00FFFFFFFFFFFFFE00
007FFFFFFFFFFFFC00
003FFFFFFFFFFFF800
001FFFFFFFFFFFF000
0007FFFFFFFFFFC000
0003FFFFFFFFFF8000
0001FFFFFFFFFE0000
00007FFFFFFFFC0000
00001FFFFFFFF00000
000007FFFFFF800000
000000FFFFFC000000
00000007FF80000000
ENDCHAR
STARTCHAR multiply
ENCODING 215
SWIDTH 584 0
DWIDTH 61 0
BBX 52 52 4 0
BITMAP
01800000001800
03C00000003C00
07E00000007E00
0FF0000000FF00
1FF8000001FF80
3FFC000003FFC0
7FFE000007FFE0
FFFF00000FFFF0
7FFF80001FFFF0
3FFFC0003FFFE0
1FFFE0007FFFC0
0FFFF000FFFF80
07FFF801FFFF00
03FFFC03FFFE00
01FFFE07FFFC00
00FFFF0FFFF800
007FFF9FFFF000
003FFFFFFFE000
001FFFFFFFC000
000FFFFFFF8000
0007FFFFFF0000
0003FFFFFE0000
0001FFFFFC0000
0000FFFFF80000
00007FFFF00000
00003FFFE00000
00007FFFE00000
0000FFFFF00000
0001FFFFF80000
0003FFFFFC0000
0007FFFFFE0000
000FFFFFFF0000
001FFFFFFF8000
003FFFFFFFC000
007FFFDFFFE000
00FFFF8FFFF000
01FFFF07FFF800
03FFFE03FFFC00
07FFFC01FFFE00
0FFFF800FFFF00
1FFFF0007FFF80
3FFFE0003FFFC0
7FFFC0001FFFE0
FFFF80000FFFF0
7FFF000007FFF0
3FFE000003FFE0
1FFC000001FFC0
0FF8000000FF80
07F00000007F00
03E00000003E00
01C00000001C00
00800000000800
ENDCHAR
STARTCHAR Oslash
ENCODING 216
SWIDTH 778 0
DWIDTH 81 0
BBX 73 80 4 -3
BITMAP
00000001FFE000000C00
0000003FFFFE00001F00
000001FFFFFFC0003F80
00000FFFFFFFF8007F80
00003FFFFFFFFE00FF00
0000FFFFFFFFFF81FE00
0001FFFFFFFFFFC3FC00
0003FFFFFFFFFFF7F800
000FFFFFFFFFFFFFF000
001FFFFFFFFFFFFFF000
003FFFFFFFFFFFFFE000
007FFFFFFFFFFFFFC000
007FFFFFFFFFFFFF8000
00FFFFFF80FFFFFF8000
01FFFFF8001FFFFFC000
03FFFFE00003FFFFE000
03FFFFC00001FFFFE000
07FFFF0000007FFFF000
07FFFE0000003FFFF000
0FFFFC0000003FFFF800
0FFFF80000003FFFF800
0FFFF80000007FFFFC00
1FFFF0000000FFFFFC00
1FFFF0000001FFFFFC00
1FFFE0000003FFFFFE00
3FFFE0000007FBFFFE00
3FFFC000000FF1FFFE00
3FFFC000001FE1FFFE00
3FFFC000003FC1FFFE00
7FFF8000007F80FFFF00
7FFF8000007F00FFFF00
7FFF800000FF00FFFF00
7FFF800001FE00FFFF00
7FFF800003FC00FFFF00
7FFF000007F800FFFF00
7FFF00000FF0007FFF00
7FFF00001FE0007FFF00
7FFF00003FC0007FFF00
7FFF00007F80007FFF00
7FFF0000FF00007FFF00
7FFF0001FE00007FFF00
7FFF0001FE00007FFF00
7FFF0003FC00007FFF00
7FFF0007F800007FFF00
7FFF000FF000007FFF00
7FFF801FE00000FFFF00
7FFF803FC00000FFFF00
7FFF807F800000FFFF00
7FFF80FF000000FFFF00
7FFF81FE000000FFFF00
3FFFC3FC000001FFFE00
3FFFC7F8000001FFFE00
3FFFC7F8000001FFFE00
3FFFEFF0000003FFFE00
3FFFFFE0000003FFFC00
1FFFFFC0000003FFFC00
1FFFFF80000007FFFC00
1FFFFF0000000FFFF800
0FFFFE0000000FFFF800
0FFFFC0000001FFFF800
07FFFE0000003FFFF000
07FFFF0000007FFFF000
03FFFFC00001FFFFE000
03FFFFE00003FFFFC000
01FFFFF8000FFFFFC000
00FFFFFF80FFFFFF8000
00FFFFFFFFFFFFFF0000
01FFFFFFFFFFFFFF0000
03FFFFFFFFFFFFFE0000
07FFFFFFFFFFFFFC0000
0FFFFFFFFFFFFFF80000
1FE3FFFFFFFFFFE00000
1FC1FFFFFFFFFFC00000
3FC0FFFFFFFFFF000000
7F803FFFFFFFFE000000
FF000FFFFFFFF8000000
FE0003FFFFFFC0000000
7C00007FFFFE00000000
38000003FFC000000000
10000000000000000000
ENDCHAR
STARTCHAR Ugrave
ENCODING 217
SWIDTH 722 0
DWIDTH 75 0
BBX 61 100 7 -2
BITMAP
001FFFE000000000
000FFFF000000000
0007FFF800000000
0003FFF800000000
0001FFFC00000000
0000FFFC00000000
00007FFE00000000
00003FFF00000000
00001FFF00000000
00000FFF80000000
000007FFC0000000
000003FFC0000000
000001FFE0000000
000000FFF0000000
0000007FF0000000
0000000000000000
0000000000000000
0000000000000000
0000000000000000
0000000000000000
0000000000000000
0000000000000000
0000000000000000
FFFF00000007FFF8
FFFF00000007FFF8
FFFF00000007FFF8
FFFF00000007FFF8
FFFF00000007FFF8
FFFF00000007FFF8
FFFF00000007FFF8
FFFF00000007FFF8
FFFF00000007FFF8
FFFF00000007FFF8
FFFF00000007FFF8
FFFF00000007FFF8
FFFF00000007FFF8
FFFF00000007FFF8
FFFF00000007FFF8
FFFF00000007FFF8
FFFF00000007FFF8
FFFF00000007FFF8
FFFF00000007FFF8
FFFF00000007FFF8
FFFF00000007FFF8
FFFF00000007FFF8
FFFF00000007FFF8
FFFF00000007FFF8
FFFF00000007FFF8
FFFF00000007FFF8
FFFF00000007FFF8
FFFF00000007FFF8
FFFF00000007FFF8
FFFF00000007FFF8
FFFF00000007FFF8
FFFF00000007FFF8
FFFF00000007FFF8
FFFF00000007FFF8
FFFF00000007FFF8
FFFF00000007FFF8
FFFF00000007FFF8
FFFF00000007FFF8
FFFF00000007FFF8
FFFF00000007FFF8
FFFF00000007FFF8
FFFF00000007FFF8
FFFF00000007FFF8
FFFF00000007FFF8
FFFF00000007FFF8
FFFF00000007FFF8
FFFF00000007FFF8
FFFF00000007FFF8
FFFF00000007FFF8
FFFF00000007FFF8
7FFF00000007FFF8
7FFF80000007FFF8
7FFF80000007FFF8
7FFF8000000FFFF8
7FFF8000000FFFF0
7FFF8000000FFFF0
7FFFC000000FFFF0
7FFFC000001FFFF0
3FFFE000001FFFF0
3FFFF000003FFFE0
3FFFF800007FFFE0
3FFFFC0000FFFFE0
1FFFFF0003FFFFC0
1FFFFFE03FFFFFC0
0FFFFFFFFFFFFF80
0FFFFFFFFFFFFF80
07FFFFFFFFFFFF00
03FFFFFFFFFFFE00
01FFFFFFFFFFFC00
00FFFFFFFFFFF800
007FFFFFFFFFF000
003FFFFFFFFFE000
000FFFFFFFFF8000
0003FFFFFFFF0000
0000FFFFFFF80000
00001FFFFFC00000
000001FFF8000000
ENDCHAR
STARTCHAR Uacute
ENCODING 218
SWIDTH 722 0
DWIDTH 75 0
BBX 61 100 7 -2
BITMAP
000000003FFFC000
000000007FFF8000
000000007FFF0000
00000000FFFE0000
00000001FFFC0000
00000001FFF80000
00000003FFF00000
00000007FFE00000
00000007FFC00000
0000000FFF800000
0000000FFF000000
0000001FFE000000
0000003FFC000000
0000003FF8000000
0000007FF0000000
0000000000000000
0000000000000000
0000000000000000
0000000000000000
0000000000000000
0000000000000000
0000000000000000
0000000000000000
FFFF00000007FFF8
FFFF00000007FFF8
FFFF00000007FFF8
FFFF00000007FFF8
FFFF00000007FFF8
FFFF00000007FFF8
FFFF00000007FFF8
FFFF00000007FFF8
FFFF00000007FFF8
FFFF00000007FFF8
FFFF00000007FFF8
FFFF00000007FFF8
FFFF00000007FFF8
FFFF00000007FFF8
FFFF00000007FFF8
FFFF00000007FFF8
FFFF00000007FFF8
FFFF00000007FFF8
FFFF00000007FFF8
FFFF00000007FFF8
FFFF00000007FFF8
FFFF00000007FFF8
FFFF00000007FFF8
FFFF00000007FFF8
FFFF00000007FFF8
FFFF00000007FFF8
FFFF00000007FFF8
FFFF00000007FFF8
FFFF00000007FFF8
FFFF00000007FFF8
FFFF00000007FFF8
FFFF00000007FFF8
FFFF00000007FFF8
FFFF00000007FFF8
FFFF00000007FFF8
FFFF00000007FFF8
FFFF00000007FFF8
FFFF00000007FFF8
FFFF00000007FFF8
FFFF00000007FFF8
FFFF00000007FFF8
FFFF00000007FFF8
FFFF00000007FFF8
FFFF00000007FFF8
FFFF00000007FFF8
FFFF00000007FFF8
FFFF00000007FFF8
FFFF00000007FFF8
FFFF00000007FFF8
FFFF00000007FFF8
7FFF00000007FFF8
7FFF80000007FFF8
7FFF80000007FFF8
7FFF8000000FFFF8
7FFF8000000FFFF0
7FFF8000000FFFF0
7FFFC000000FFFF0
7FFFC000001FFFF0
3FFFE000001FFFF0
3FFFF000003FFFE0
3FFFF800007FFFE0
3FFFFC0000FFFFE0
1FFFFF0003FFFFC0
1FFFFFE03FFFFFC0
0FFFFFFFFFFFFF80
0FFFFFFFFFFFFF80
07FFFFFFFFFFFF00
03FFFFFFFFFFFE00
01FFFFFFFFFFFC00
00FFFFFFFFFFF800
007FFFFFFFFFF000
003FFFFFFFFFE000
000FFFFFFFFF8000
0003FFFFFFFF0000
0000FFFFFFF80000
00001FFFFFC00000
000001FFF8000000
ENDCHAR
STARTCHAR Ucircumflex
ENCODING 219
SWIDTH 722 0
DWIDTH 75 0
BBX 61 100 7 -2
BITMAP
000000FFFC000000
000001FFFC000000
000003FFFE000000
000007FFFF000000
000007FFFF800000
00000FFFFF800000
00001FFFFFC00000
00003FFDFFE00000
00007FF8FFF00000
00007FF07FF80000
0000FFF03FF80000
0001FFE03FFC0000
0003FFC01FFE0000
0003FF800FFF0000
0007FF8007FF0000
0000000000000000
0000000000000000
0000000000000000
0000000000000000
0000000000000000
0000000000000000
0000000000000000
0000000000000000
FFFF00000007FFF8
FFFF00000007FFF8
FFFF00000007FFF8
FFFF00000007FFF8
FFFF00000007FFF8
FFFF00000007FFF8
FFFF00000007FFF8
FFFF00000007FFF8
FFFF00000007FFF8
FFFF00000007FFF8
FFFF00000007FFF8
FFFF00000007FFF8
FFFF00000007FFF8
FFFF00000007FFF8
FFFF00000007FFF8
FFFF00000007FFF8
FFFF00000007FFF8
FFFF00000007FFF8
FFFF00000007FFF8
FFFF00000007FFF8
FFFF00000007FFF8
FFFF00000007FFF8
FFFF00000007FFF8
FFFF00000007FFF8
FFFF00000007FFF8
FFFF00000007FFF8
FFFF00000007FFF8
FFFF00000007FFF8
FFFF00000007FFF8
FFFF00000007FFF8
FFFF00000007FFF8
FFFF00000007FFF8
FFFF00000007FFF8
FFFF00000007FFF8
FFFF00000007FFF8
FFFF00000007FFF8
FFFF00000007FFF8
FFFF00000007FFF8
FFFF00000007FFF8
FFFF00000007FFF8
FFFF00000007FFF8
FFFF00000007FFF8
FFFF00000007FFF8
FFFF00000007FFF8
FFFF00000007FFF8
FFFF00000007FFF8
FFFF00000007FFF8
FFFF00000007FFF8
FFFF00000007FFF8
FFFF00000007FFF8
7FFF00000007FFF8
7FFF80000007FFF8
7FFF80000007FFF8
7FFF8000000FFFF8
7FFF8000000FFFF0
7FFF8000000FFFF0
7FFFC000000FFFF0
7FFFC000001FFFF0
3FFFE000001FFFF0
3FFFF000003FFFE0
3FFFF800007FFFE0
3FFFFC0000FFFFE0
1FFFFF0003FFFFC0
1FFFFFE03FFFFFC0
0FFFFFFFFFFFFF80
0FFFFFFFFFFFFF80
07FFFFFFFFFFFF00
03FFFFFFFFFFFE00
01FFFFFFFFFFFC00
00FFFFFFFFFFF800
007FFFFFFFFFF000
003FFFFFFFFFE000
000FFFFFFFFF8000
0003FFFFFFFF0000
0000FFFFFFF80000
00001FFFFFC00000
000001FFF8000000
ENDCHAR
STARTCHAR Udieresis
ENCODING 220
SWIDTH 722 0
DWIDTH 75 0
BBX 61 98 7 -2
BITMAP
0003FFE03FFE0000
0003FFE03FFE0000
0003FFE03FFE0000
0003FFE03FFE0000
0003FFE03FFE0000
0003FFE03FFE0000
0003FFE03FFE0000
0003FFE03FFE0000
0003FFE03FFE0000
0003FFE03FFE0000
0003FFE03FFE0000
0003FFE03FFE0000
0000000000000000
0000000000000000
0000000000000000
0000000000000000
0000000000000000
0000000000000000
0000000000000000
0000000000000000
0000000000000000
FFFF00000007FFF8
FFFF00000007FFF8
FFFF00000007FFF8
FFFF00000007FFF8
FFFF00000007FFF8
FFFF00000007FFF8
FFFF00000007FFF8
FFFF00000007FFF8
FFFF00000007FFF8
FFFF00000007FFF8
FFFF00000007FFF8
FFFF00000007FFF8
FFFF00000007FFF8
FFFF00000007FFF8
FFFF00000007FFF8
FFFF00000007FFF8
FFFF00000007FFF8
FFFF00000007FFF8
FFFF00000007FFF8
FFFF00000007FFF8
FFFF00000007FFF8
FFFF00000007FFF8
FFFF00000007FFF8
FFFF00000007FFF8
FFFF00000007FFF8
FFFF00000007FFF8
FFFF00000007FFF8
FFFF00000007FFF8
FFFF00000007FFF8
FFFF00000007FFF8
FFFF00000007FFF8
FFFF00000007FFF8
FFFF00000007FFF8
FFFF00000007FFF8
FFFF00000007FFF8
FFFF00000007FFF8
FFFF00000007FFF8
FFFF00000007FFF8
FFFF00000007FFF8
FFFF00000007FFF8
FFFF00000007FFF8
FFFF00000007FFF8
FFFF00000007FFF8
FFFF00000007FFF8
FFFF00000007FFF8
FFFF00000007FFF8
FFFF00000007FFF8
FFFF00000007FFF8
FFFF00000007FFF8
FFFF00000007FFF8
7FFF00000007FFF8
7FFF80000007FFF8
7FFF80000007FFF8
7FFF8000000FFFF8
7FFF8000000FFFF0
7FFF8000000FFFF0
7FFFC000000FFFF0
7FFFC000001FFFF0
3FFFE000001FFFF0
3FFFF000003FFFE0
3FFFF800007FFFE0
3FFFFC0000FFFFE0
1FFFFF0003FFFFC0
1FFFFFE03FFFFFC0
0FFFFFFFFFFFFF80
0FFFFFFFFFFFFF80
07FFFFFFFFFFFF00
03FFFFFFFFFFFE00
01FFFFFFFFFFFC00
00FFFFFFFFFFF800
007FFFFFFFFFF000
003FFFFFFFFFE000
000FFFFFFFFF8000
0003FFFFFFFF0000
0000FFFFFFF80000
00001FFFFFC00000
000001FFF8000000
ENDCHAR
STARTCHAR Yacute
ENCODING 221
SWIDTH 667 0
DWIDTH 69 0
BBX 66 98 2 0
BITMAP
000000000FFFF00000
000000001FFFE00000
000000001FFFC00000
000000003FFF800000
000000007FFF000000
000000007FFE000000
00000000FFFC000000
00000000FFF8000000
00000001FFF0000000
00000003FFE0000000
00000003FFC0000000
00000007FF80000000
0000000FFF00000000
0000000FFE00000000
0000001FFC00000000
000000000000000000
000000000000000000
000000000000000000
000000000000000000
000000000000000000
000000000000000000
000000000000000000
000000000000000000
FFFFC0000000FFFFC0
FFFFE0000000FFFF80
7FFFE0000001FFFF80
7FFFF0000001FFFF00
3FFFF0000003FFFF00
1FFFF8000003FFFE00
1FFFF8000007FFFC00
0FFFFC000007FFFC00
0FFFFC00000FFFF800
07FFFC00000FFFF800
07FFFE00001FFFF000
03FFFE00001FFFF000
03FFFF00001FFFE000
01FFFF00003FFFE000
00FFFF80003FFFC000
00FFFF80007FFFC000
007FFFC0007FFF8000
007FFFC000FFFF8000
003FFFE000FFFF0000
003FFFE001FFFF0000
001FFFF001FFFE0000
001FFFF003FFFC0000
000FFFF803FFFC0000
0007FFF803FFF80000
0007FFFC07FFF80000
0003FFFC07FFF00000
0003FFFE0FFFF00000
0001FFFE0FFFE00000
0001FFFF1FFFE00000
0000FFFF1FFFC00000
0000FFFF3FFFC00000
00007FFFBFFF800000
00007FFFBFFF800000
00003FFFFFFF000000
00001FFFFFFF000000
00001FFFFFFE000000
00000FFFFFFC000000
00000FFFFFFC000000
000007FFFFF8000000
000007FFFFF8000000
000003FFFFF0000000
000003FFFFF0000000
000001FFFFE0000000
000000FFFFE0000000
000000FFFFC0000000
0000007FFFC0000000
0000007FFF80000000
0000007FFF80000000
0000007FFF80000000
0000007FFF80000000
0000007FFF80000000
0000007FFF80000000
0000007FFF80000000
0000007FFF80000000
0000007FFF80000000
0000007FFF80000000
0000007FFF80000000
0000007FFF80000000
0000007FFF80000000
0000007FFF80000000
0000007FFF80000000
0000007FFF80000000
0000007FFF80000000
0000007FFF80000000
0000007FFF80000000
0000007FFF80000000
0000007FFF80000000
0000007FFF80000000
0000007FFF80000000
0000007FFF80000000
0000007FFF80000000
0000007FFF80000000
0000007FFF80000000
0000007FFF80000000
0000007FFF80000000
ENDCHAR
STARTCHAR Thorn
ENCODING 222
SWIDTH 667 0
DWIDTH 69 0
BBX 57 75 8 0
BITMAP
FFFF000000000000
FFFF000000000000
FFFF000000000000
FFFF000000000000
FFFF000000000000
FFFF000000000000
FFFF000000000000
FFFF000000000000
FFFF000000000000
FFFF000000000000
FFFFFFFFFE000000
FFFFFFFFFFE00000
FFFFFFFFFFF80000
FFFFFFFFFFFE0000
FFFFFFFFFFFF8000
FFFFFFFFFFFFC000
FFFFFFFFFFFFE000
FFFFFFFFFFFFF000
FFFFFFFFFFFFF800
FFFFFFFFFFFFF800
FFFFFFFFFFFFFC00
FFFFFFFFFFFFFC00
FFFFFFFFFFFFFE00
FFFF00007FFFFE00
FFFF000007FFFF00
FFFF000003FFFF00
FFFF000001FFFF00
FFFF000000FFFF80
FFFF0000007FFF80
FFFF0000007FFF80
FFFF0000007FFF80
FFFF0000007FFF80
FFFF0000003FFF80
FFFF0000003FFF80
FFFF0000003FFF80
FFFF0000003FFF80
FFFF0000003FFF80
FFFF0000007FFF80
FFFF0000007FFF80
FFFF0000007FFF80
FFFF0000007FFF80
FFFF000000FFFF00
FFFF000001FFFF00
FFFF000003FFFF00
FFFF000007FFFE00
FFFF00003FFFFE00
FFFFFFFFFFFFFC00
FFFFFFFFFFFFFC00
FFFFFFFFFFFFF800
FFFFFFFFFFFFF800
FFFFFFFFFFFFF000
FFFFFFFFFFFFE000
FFFFFFFFFFFFC000
FFFFFFFFFFFF8000
FFFFFFFFFFFF0000
FFFFFFFFFFFE0000
FFFFFFFFFFF80000
FFFFFFFFFFC00000
FFFFFFFFFC000000
FFFF000000000000
FFFF000000000000
FFFF000000000000
FFFF000000000000
FFFF000000000000
FFFF000000000000
FFFF000000000000
FFFF000000000000
FFFF000000000000
FFFF000000000000
FFFF000000000000
FFFF000000000000
FFFF000000000000
FFFF000000000000
FFFF000000000000
FFFF000000000000
ENDCHAR
STARTCHAR germandbls
ENCODING 223
SWIDTH 611 0
DWIDTH 64 0
BBX 53 77 7 -1
BITMAP
00003FFE000000
0003FFFFF00000
000FFFFFFC0000
003FFFFFFF0000
00FFFFFFFFC000
01FFFFFFFFE000
03FFFFFFFFF000
07FFFFFFFFF800
0FFFFFFFFFFC00
1FFFFFFFFFFC00
1FFFFFFFFFFE00
3FFFFFFFFFFE00
3FFFF007FFFF00
7FFFC001FFFF00
7FFF8000FFFF00
7FFF00007FFF80
7FFF00003FFF80
FFFE00003FFF80
FFFE00003FFF80
FFFE00003FFF80
FFFE00003FFF80
FFFE00003FFF80
FFFE00003FFF80
FFFE00003FFF80
FFFE00003FFF00
FFFE00003FFF00
FFFE00007FFF00
FFFE0000FFFE00
FFFE0001FFFE00
FFFE000FFFFC00
FFFE01FFFFF800
FFFE01FFFFF000
FFFE01FFFFE000
FFFE01FFFFC000
FFFE01FFFFF000
FFFE01FFFFF800
FFFE01FFFFFE00
FFFE01FFFFFF00
FFFE01FFFFFF80
FFFE01FFFFFFC0
FFFE000FFFFFC0
FFFE0000FFFFE0
FFFE00003FFFE0
FFFE00001FFFF0
FFFE00000FFFF0
FFFE000007FFF8
FFFE000007FFF8
FFFE000003FFF8
FFFE000003FFF8
FFFE000003FFF8
FFFE000001FFF8
FFFE000001FFF8
FFFE000001FFF8
FFFE000001FFF8
FFFE000001FFF8
FFFE000003FFF8
FFFE000003FFF8
FFFE000003FFF8
FFFE000003FFF8
FFFE000007FFF0
FFFE00000FFFF0
FFFE00000FFFF0
FFFE00001FFFE0
FFFE00007FFFE0
FFFE0003FFFFC0
FFFE03FFFFFFC0
FFFE03FFFFFF80
FFFE03FFFFFF80
FFFE03FFFFFF00
FFFE03FFFFFE00
FFFE03FFFFFC00
FFFE03FFFFF800
FFFE03FFFFF000
FFFE03FFFFC000
FFFE03FFFF0000
FFFE03FFFC0000
000001FFC00000
ENDCHAR
STARTCHAR agrave
ENCODING 224
SWIDTH 556 0
DWIDTH 58 0
BBX 52 79 3 -1
BITMAP
01FFFE00000000
00FFFE00000000
007FFF00000000
003FFF80000000
001FFF80000000
000FFFC0000000
0007FFE0000000
0003FFE0000000
0001FFF0000000
0000FFF8000000
00007FF8000000
00003FFC000000
00001FFC000000
00000FFE000000
000007FF000000
00000000000000
00000000000000
00000000000000
00000000000000
00000000000000
00000000000000
00001FFF800000
0001FFFFF80000
000FFFFFFF0000
003FFFFFFFC000
007FFFFFFFE000
00FFFFFFFFF000
01FFFFFFFFF800
03FFFFFFFFFC00
07FFFFFFFFFE00
07FFFFFFFFFE00
0FFFFFFFFFFF00
0FFFFFFFFFFF00
1FFFF001FFFF00
1FFFE000FFFF00
1FFFC0007FFF80
3FFF80003FFF80
3FFF80003FFF80
3FFF00003FFF80
3FFF00003FFF80
000000003FFF80
000000003FFF80
00000000FFFF80
00000007FFFF80
000001FFFFFF80
0000FFFFFFFF80
000FFFFFFFFF80
007FFFFFFFFF80
00FFFFFFFFFF80
03FFFFFFFFFF80
07FFFFFFFFFF80
0FFFFFFFBFFF80
1FFFFFFC3FFF80
1FFFFFC03FFF80
3FFFF8003FFF80
3FFFC0003FFF80
7FFF80003FFF80
7FFF00003FFF80
7FFE00003FFF80
FFFE00003FFF80
FFFE00003FFF80
FFFE00003FFF80
FFFE00007FFF80
FFFE00007FFF80
FFFE0000FFFF80
FFFE0001FFFF80
FFFF0007FFFF80
7FFF801FFFFF80
7FFFF9FFFFFF80
7FFFFFFFFFFF80
3FFFFFFFFFFF80
3FFFFFFFDFFF80
1FFFFFFF9FFF80
1FFFFFFF1FFF80
0FFFFFFE1FFFC0
03FFFFFC1FFFE0
01FFFFF00FFFF0
007FFFC00FFFF0
000FFC00000000
ENDCHAR
STARTCHAR aacute
ENCODING 225
SWIDTH 556 0
DWIDTH 58 0
BBX 52 79 3 -1
BITMAP
00000007FFF800
00000007FFF000
0000000FFFE000
0000001FFFC000
0000001FFF8000
0000003FFF0000
0000007FFE0000
0000007FFC0000
000000FFF80000
000001FFF00000
000001FFE00000
000003FFC00000
000007FF800000
000007FF000000
00000FFE000000
00000000000000
00000000000000
00000000000000
00000000000000
00000000000000
00000000000000
00001FFF800000
0001FFFFF80000
000FFFFFFF0000
003FFFFFFFC000
007FFFFFFFE000
00FFFFFFFFF000
01FFFFFFFFF800
03FFFFFFFFFC00
07FFFFFFFFFE00
07FFFFFFFFFE00
0FFFFFFFFFFF00
0FFFFFFFFFFF00
1FFFF001FFFF00
1FFFE000FFFF00
1FFFC0007FFF80
3FFF80003FFF80
3FFF80003FFF80
3FFF00003FFF80
3FFF00003FFF80
000000003FFF80
000000003FFF80
00000000FFFF80
00000007FFFF80
000001FFFFFF80
0000FFFFFFFF80
000FFFFFFFFF80
007FFFFFFFFF80
00FFFFFFFFFF80
03FFFFFFFFFF80
07FFFFFFFFFF80
0FFFFFFFBFFF80
1FFFFFFC3FFF80
1FFFFFC03FFF80
3FFFF8003FFF80
3FFFC0003FFF80
7FFF80003FFF80
7FFF00003FFF80
7FFE00003FFF80
FFFE00003FFF80
FFFE00003FFF80
FFFE00003FFF80
FFFE00007FFF80
FFFE00007FFF80
FFFE0000FFFF80
FFFE0001FFFF80
FFFF0007FFFF80
7FFF801FFFFF80
7FFFF9FFFFFF80
7FFFFFFFFFFF80
3FFFFFFFFFFF80
3FFFFFFFDFFF80
1FFFFFFF9FFF80
1FFFFFFF1FFF80
0FFFFFFE1FFFC0
03FFFFFC1FFFE0
01FFFFF00FFFF0
007FFFC00FFFF0
000FFC00000000
ENDCHAR
STARTCHAR acircumflex
ENCODING 226
SWIDTH 556 0
DWIDTH 58 0
BBX 52 79 3 -1
BITMAP
00001FFF800000
00003FFFC00000
00007FFFE00000
00007FFFE00000
0000FFFFF00000
0001FFFFF80000
0003FFFFFC0000
0007FF9FFC0000
0007FF1FFE0000
000FFF0FFF0000
001FFE07FF8000
003FFC03FFC000
003FF801FFC000
007FF801FFE000
00FFF000FFF000
00000000000000
00000000000000
00000000000000
00000000000000
00000000000000
00000000000000
00001FFF800000
0001FFFFF80000
000FFFFFFF0000
003FFFFFFFC000
007FFFFFFFE000
00FFFFFFFFF000
01FFFFFFFFF800
03FFFFFFFFFC00
07FFFFFFFFFE00
07FFFFFFFFFE00
0FFFFFFFFFFF00
0FFFFFFFFFFF00
1FFFF001FFFF00
1FFFE000FFFF00
1FFFC0007FFF80
3FFF80003FFF80
3FFF80003FFF80
3FFF00003FFF80
3FFF00003FFF80
000000003FFF80
000000003FFF80
00000000FFFF80
00000007FFFF80
000001FFFFFF80
0000FFFFFFFF80
000FFFFFFFFF80
007FFFFFFFFF80
00FFFFFFFFFF80
03FFFFFFFFFF80
07FFFFFFFFFF80
0FFFFFFFBFFF80
1FFFFFFC3FFF80
1FFFFFC03FFF80
3FFFF8003FFF80
3FFFC0003FFF80
7FFF80003FFF80
7FFF00003FFF80
7FFE00003FFF80
FFFE00003FFF80
FFFE00003FFF80
FFFE00003FFF80
FFFE00007FFF80
FFFE00007FFF80
FFFE0000FFFF80
FFFE0001FFFF80
FFFF0007FFFF80
7FFF801FFFFF80
7FFFF9FFFFFF80
7FFFFFFFFFFF80
3FFFFFFFFFFF80
3FFFFFFFDFFF80
1FFFFFFF9FFF80
1FFFFFFF1FFF80
0FFFFFFE1FFFC0
03FFFFFC1FFFE0
01FFFFF00FFFF0
007FFFC00FFFF0
000FFC00000000
ENDCHAR
STARTCHAR atilde
ENCODING 227
SWIDTH 556 0
DWIDTH 58 0
BBX 52 78 3 -1
BITMAP
0000100003F800
0003FF8003F800
0007FFE007F800
000FFFFC0FF000
001FFFFFFFF000
003FFFFFFFE000
007FFFFFFFE000
007FFFFFFFC000
00FFFFFFFFC000
00FF03FFFF8000
00FE007FFF0000
01FC000FFC0000
01FC0000000000
00000000000000
00000000000000
00000000000000
00000000000000
00000000000000
00000000000000
00000000000000
00001FFF800000
0001FFFFF80000
000FFFFFFF0000
003FFFFFFFC000
007FFFFFFFE000
00FFFFFFFFF000
01FFFFFFFFF800
03FFFFFFFFFC00
07FFFFFFFFFE00
07FFFFFFFFFE00
0FFFFFFFFFFF00
0FFFFFFFFFFF00
1FFFF001FFFF00
1FFFE000FFFF00
1FFFC0007FFF80
3FFF80003FFF80
3FFF80003FFF80
3FFF00003FFF80
3FFF00003FFF80
000000003FFF80
000000003FFF80
00000000FFFF80
00000007FFFF80
000001FFFFFF80
0000FFFFFFFF80
000FFFFFFFFF80
007FFFFFFFFF80
00FFFFFFFFFF80
03FFFFFFFFFF80
07FFFFFFFFFF80
0FFFFFFFBFFF80
1FFFFFFC3FFF80
1FFFFFC03FFF80
3FFFF8003FFF80
3FFFC0003FFF80
7FFF80003FFF80
7FFF00003FFF80
7FFE00003FFF80
FFFE00003FFF80
FFFE00003FFF80
FFFE00003FFF80
FFFE00007FFF80
FFFE00007FFF80
FFFE0000FFFF80
FFFE0001FFFF80
FFFF0007FFFF80
7FFF801FFFFF80
7FFFF9FFFFFF80
7FFFFFFFFFFF80
3FFFFFFFFFFF80
3FFFFFFFDFFF80
1FFFFFFF9FFF80
1FFFFFFF1FFF80
0FFFFFFE1FFFC0
03FFFFFC1FFFE0
01FFFFF00FFFF0
007FFFC00FFFF0
000FFC00000000
ENDCHAR
STARTCHAR adieresis
ENCODING 228
SWIDTH 556 0
DWIDTH 58 0
BBX 52 77 3 -1
BITMAP
007FFC03FFE000
007FFC03FFE000
007FFC03FFE000
007FFC03FFE000
007FFC03FFE000
007FFC03FFE000
007FFC03FFE000
007FFC03FFE000
007FFC03FFE000
007FFC03FFE000
007FFC03FFE000
007FFC03FFE000
00000000000000
00000000000000
00000000000000
00000000000000
00000000000000
00000000000000
00000000000000
00001FFF800000
0001FFFFF80000
000FFFFFFF0000
003FFFFFFFC000
007FFFFFFFE000
00FFFFFFFFF000
01FFFFFFFFF800
03FFFFFFFFFC00
07FFFFFFFFFE00
07FFFFFFFFFE00
0FFFFFFFFFFF00
0FFFFFFFFFFF00
1FFFF001FFFF00
1FFFE000FFFF00
1FFFC0007FFF80
3FFF80003FFF80
3FFF80003FFF80
3FFF00003FFF80
3FFF00003FFF80
000000003FFF80
000000003FFF80
00000000FFFF80
00000007FFFF80
000001FFFFFF80
0000FFFFFFFF80
000FFFFFFFFF80
007FFFFFFFFF80
00FFFFFFFFFF80
03FFFFFFFFFF80
07FFFFFFFFFF80
0FFFFFFFBFFF80
1FFFFFFC3FFF80
1FFFFFC03FFF80
3FFFF8003FFF80
3FFFC0003FFF80
7FFF80003FFF80
7FFF00003FFF80
7FFE00003FFF80
FFFE00003FFF80
FFFE00003FFF80
FFFE00003FFF80
FFFE00007FFF80
FFFE00007FFF80
FFFE0000FFFF80
FFFE0001FFFF80
FFFF0007FFFF80
7FFF801FFFFF80
7FFFF9FFFFFF80
7FFFFFFFFFFF80
3FFFFFFFFFFF80
3FFFFFFFDFFF80
1FFFFFFF9FFF80
1FFFFFFF1FFF80
0FFFFFFE1FFFC0
03FFFFFC1FFFE0
01FFFFF00FFFF0
007FFFC00FFFF0
000FFC00000000
ENDCHAR
STARTCHAR aring
ENCODING 229
SWIDTH 556 0
DWIDTH 58 0
BBX 52 82 3 -1
BITMAP
000001F8000000
000007FF000000
00001FFF800000
00003FFFC00000
00007FFFE00000
0000FFFFF00000
0000FE07F00000
0001FC03F80000
0001F801F80000
0001F801F80000
0001F801F80000
0001F801F80000
0001F801F80000
0001F801F80000
0001FC03F80000
0000FE07F00000
0000FFFFF00000
00007FFFE00000
00003FFFC00000
00001FFF800000
00000FFE000000
000001F8000000
00000000000000
00000000000000
00001FFF800000
0001FFFFF80000
000FFFFFFF0000
003FFFFFFFC000
007FFFFFFFE000
00FFFFFFFFF000
01FFFFFFFFF800
03FFFFFFFFFC00
07FFFFFFFFFE00
07FFFFFFFFFE00
0FFFFFFFFFFF00
0FFFFFFFFFFF00
1FFFF001FFFF00
1FFFE000FFFF00
1FFFC0007FFF80
3FFF80003FFF80
3FFF80003FFF80
3FFF00003FFF80
3FFF00003FFF80
000000003FFF80
000000003FFF80
00000000FFFF80
00000007FFFF80
000001FFFFFF80
0000FFFFFFFF80
000FFFFFFFFF80
007FFFFFFFFF80
00FFFFFFFFFF80
03FFFFFFFFFF80
07FFFFFFFFFF80
0FFFFFFFBFFF80
1FFFFFFC3FFF80
1FFFFFC03FFF80
3FFFF8003FFF80
3FFFC0003FFF80
7FFF80003FFF80
7FFF00003FFF80
7FFE00003FFF80
FFFE00003FFF80
FFFE00003FFF80
FFFE00003FFF80
FFFE00007FFF80
FFFE00007FFF80
FFFE0000FFFF80
FFFE0001FFFF80
FFFF0007FFFF80
7FFF801FFFFF80
7FFFF9FFFFFF80
7FFFFFFFFFFF80
3FFFFFFFFFFF80
3FFFFFFFDFFF80
1FFFFFFF9FFF80
1FFFFFFF1FFF80
0FFFFFFE1FFFC0
03FFFFFC1FFFE0
01FFFFF00FFFF0
007FFFC00FFFF0
000FFC00000000
ENDCHAR
STARTCHAR ae
ENCODING 230
SWIDTH 889 0
DWIDTH 92 0
BBX 86 58 3 -1
BITMAP
00000FFF000000FFC00000
0000FFFFF0000FFFFC0000
0007FFFFFE003FFFFF0000
001FFFFFFF00FFFFFFC000
007FFFFFFFC3FFFFFFF000
00FFFFFFFFE7FFFFFFF800
01FFFFFFFFFFFFFFFFFC00
03FFFFFFFFFFFFFFFFFE00
03FFFFFFFFFFFFFFFFFF00
07FFFFFFFFFFFFFFFFFF80
0FFFFFFFFFFFFFFFFFFFC0
0FFFFFFFFFFFFFFFFFFFC0
1FFFF001FFFFFF01FFFFE0
1FFFE0007FFFFC003FFFE0
1FFFC0003FFFF8001FFFF0
1FFF80001FFFF0000FFFF0
3FFF80001FFFE00007FFF0
3FFF00001FFFC00003FFF8
3FFF00001FFFC00003FFF8
000000001FFFC00003FFF8
000000001FFF800001FFF8
000000003FFF800001FFFC
00000001FFFF800001FFFC
0000007FFFFF800001FFFC
00000FFFFFFFFFFFFFFFFC
0003FFFFFFFFFFFFFFFFFC
003FFFFFFFFFFFFFFFFFFC
00FFFFFFFFFFFFFFFFFFFC
03FFFFFFFFFFFFFFFFFFFC
07FFFFFFFFFFFFFFFFFFFC
0FFFFFFFDFFFFFFFFFFFFC
1FFFFFFF9FFFFFFFFFFFFC
3FFFFFF81FFFFFFFFFFFFC
3FFFFE001FFF0000000000
7FFFE0001FFF0000000000
7FFF80001FFF8000000000
7FFF00001FFF8000000000
FFFE00001FFF8000000000
FFFE00001FFF8000000000
FFFE00001FFFC000000000
FFFE00003FFFC00001FFFC
FFFE00003FFFE00003FFF8
FFFE00007FFFF00003FFF8
FFFE0000FFFFF00007FFF8
FFFE0001FFFFFC000FFFF0
FFFF0003FFFFFF003FFFF0
7FFFC00FFFFFFFFFFFFFE0
7FFFFCFFFFFFFFFFFFFFC0
7FFFFFFFFFFFFFFFFFFFC0
3FFFFFFFFF7FFFFFFFFF80
3FFFFFFFFF3FFFFFFFFF00
1FFFFFFFFE1FFFFFFFFE00
0FFFFFFFF80FFFFFFFFC00
07FFFFFFF007FFFFFFF800
03FFFFFFE003FFFFFFE000
00FFFFFF8000FFFFFF8000
003FFFFC00003FFFFC0000
0003FF80000003FFE00000
ENDCHAR
STARTCHAR ccedilla
ENCODING 231
SWIDTH 556 0
DWIDTH 58 0
BBX 50 80 4 -23
BITMAP
00000FFF000000
0000FFFFF00000
0003FFFFFC0000
000FFFFFFF0000
003FFFFFFFC000
007FFFFFFFE000
00FFFFFFFFF000
01FFFFFFFFF800
03FFFFFFFFFC00
07FFFFFFFFFE00
07FFFFFFFFFE00
0FFFFFFFFFFF00
1FFFFF07FFFF00
1FFFF801FFFF80
3FFFE0007FFF80
3FFFC0007FFFC0
3FFFC0003FFFC0
7FFF80001FFFC0
7FFF00001FFFC0
7FFF00001FFFC0
7FFF00000FFFC0
FFFE0000000000
FFFE0000000000
FFFE0000000000
FFFE0000000000
FFFE0000000000
FFFE0000000000
FFFE0000000000
FFFE0000000000
FFFE0000000000
FFFE0000000000
FFFE0000000000
FFFE0000000000
FFFE0000000000
FFFE0000000000
FFFE0000000000
FFFE00000FFFC0
FFFE00000FFFC0
FFFF00001FFFC0
7FFF00001FFFC0
7FFF80001FFFC0
7FFF80003FFF80
7FFFC0007FFF80
3FFFE000FFFF80
3FFFF001FFFF00
1FFFFC07FFFF00
1FFFFFFFFFFE00
0FFFFFFFFFFC00
0FFFFFFFFFFC00
07FFFFFFFFF800
03FFFFFFFFF000
01FFFFFFFFE000
00FFFFFFFFC000
007FFFFFFF8000
001FFFFFFE0000
0007FFFFF80000
0001FFFFE00000
00001FFE000000
00000FC0000000
00001F80000000
00003F00000000
00003F00000000
00007FF8000000
0000FFFF000000
0000FFFF800000
0001FFFFC00000
0000FFFFE00000
000000FFE00000
0000007FE00000
0000007FE00000
0000003FE00000
0000007FE00000
0000007FE00000
000F81FFC00000
000FFFFFC00000
001FFFFF800000
001FFFFF000000
001FFFFE000000
0007FFF8000000
00007FE0000000
ENDCHAR
STARTCHAR egrave
ENCODING 232
SWIDTH 556 0
DWIDTH 58 0
BBX 53 79 2 -1
BITMAP
00FFFF00000000
007FFF00000000
003FFF80000000
001FFFC0000000
000FFFC0000000
0007FFE0000000
0003FFF0000000
0001FFF0000000
0000FFF8000000
00007FFC000000
00003FFC000000
00001FFE000000
00000FFE000000
000007FF000000
000003FF800000
00000000000000
00000000000000
00000000000000
00000000000000
00000000000000
00000000000000
000007FF800000
00007FFFF80000
0003FFFFFE0000
000FFFFFFF8000
001FFFFFFFE000
003FFFFFFFF000
007FFFFFFFF800
00FFFFFFFFFC00
01FFFFFFFFFE00
03FFFFFFFFFE00
07FFFFFFFFFF00
07FFFFFFFFFF80
0FFFFE03FFFF80
0FFFF800FFFFC0
1FFFE0003FFFC0
1FFFC0001FFFE0
3FFFC0000FFFE0
3FFF80000FFFE0
3FFF800007FFF0
7FFF000007FFF0
7FFF000007FFF0
7FFF000003FFF0
7FFF000003FFF0
7FFE000003FFF8
7FFFFFFFFFFFF8
7FFFFFFFFFFFF8
FFFFFFFFFFFFF8
FFFFFFFFFFFFF8
FFFFFFFFFFFFF8
FFFFFFFFFFFFF8
FFFFFFFFFFFFF8
7FFFFFFFFFFFF8
7FFFFFFFFFFFF8
7FFE0000000000
7FFE0000000000
7FFE0000000000
7FFE0000000000
7FFF0000000000
7FFF0000000000
3FFF0000000000
3FFF800007FFF0
3FFF800007FFF0
1FFFC0000FFFF0
1FFFE0000FFFE0
1FFFF8003FFFE0
0FFFFE00FFFFC0
0FFFFFFFFFFFC0
07FFFFFFFFFF80
03FFFFFFFFFF00
01FFFFFFFFFF00
01FFFFFFFFFE00
00FFFFFFFFFC00
003FFFFFFFF800
001FFFFFFFE000
000FFFFFFFC000
0003FFFFFF0000
00007FFFF80000
000007FF800000
ENDCHAR
STARTCHAR eacute
ENCODING 233
SWIDTH 556 0
DWIDTH 58 0
BBX 53 79 2 -1
BITMAP
00000003FFFC00
00000003FFF800
00000007FFF000
0000000FFFE000
0000000FFFC000
0000001FFF8000
0000003FFF0000
0000003FFE0000
0000007FFC0000
000000FFF80000
000000FFF00000
000001FFE00000
000003FFC00000
000003FF800000
000007FF000000
00000000000000
00000000000000
00000000000000
00000000000000
00000000000000
00000000000000
000007FF800000
00007FFFF80000
0003FFFFFE0000
000FFFFFFF8000
001FFFFFFFE000
003FFFFFFFF000
007FFFFFFFF800
00FFFFFFFFFC00
01FFFFFFFFFE00
03FFFFFFFFFE00
07FFFFFFFFFF00
07FFFFFFFFFF80
0FFFFE03FFFF80
0FFFF800FFFFC0
1FFFE0003FFFC0
1FFFC0001FFFE0
3FFFC0000FFFE0
3FFF80000FFFE0
3FFF800007FFF0
7FFF000007FFF0
7FFF000007FFF0
7FFF000003FFF0
7FFF000003FFF0
7FFE000003FFF8
7FFFFFFFFFFFF8
7FFFFFFFFFFFF8
FFFFFFFFFFFFF8
FFFFFFFFFFFFF8
FFFFFFFFFFFFF8
FFFFFFFFFFFFF8
FFFFFFFFFFFFF8
7FFFFFFFFFFFF8
7FFFFFFFFFFFF8
7FFE0000000000
7FFE0000000000
7FFE0000000000
7FFE0000000000
7FFF0000000000
7FFF0000000000
3FFF0000000000
3FFF800007FFF0
3FFF800007FFF0
1FFFC0000FFFF0
1FFFE0000FFFE0
1FFFF8003FFFE0
0FFFFE00FFFFC0
0FFFFFFFFFFFC0
07FFFFFFFFFF80
03FFFFFFFFFF00
01FFFFFFFFFF00
01FFFFFFFFFE00
00FFFFFFFFFC00
003FFFFFFFF800
001FFFFFFFE000
000FFFFFFFC000
0003FFFFFF0000
00007FFFF80000
000007FF800000
ENDCHAR
STARTCHAR ecircumflex
ENCODING 234
SWIDTH 556 0
DWIDTH 58 0
BBX 53 79 2 -1
BITMAP
00000FFFC00000
00001FFFE00000
00003FFFF00000
00003FFFF00000
00007FFFF80000
0000FFFFFC0000
0001FFFFFE0000
0003FFCFFE0000
0003FF8FFF0000
0007FF87FF8000
000FFF03FFC000
001FFE01FFE000
001FFC00FFE000
003FFC00FFF000
007FF8007FF800
00000000000000
00000000000000
00000000000000
00000000000000
00000000000000
00000000000000
000007FF800000
00007FFFF80000
0003FFFFFE0000
000FFFFFFF8000
001FFFFFFFE000
003FFFFFFFF000
007FFFFFFFF800
00FFFFFFFFFC00
01FFFFFFFFFE00
03FFFFFFFFFE00
07FFFFFFFFFF00
07FFFFFFFFFF80
0FFFFE03FFFF80
0FFFF800FFFFC0
1FFFE0003FFFC0
1FFFC0001FFFE0
3FFFC0000FFFE0
3FFF80000FFFE0
3FFF800007FFF0
7FFF000007FFF0
7FFF000007FFF0
7FFF000003FFF0
7FFF000003FFF0
7FFE000003FFF8
7FFFFFFFFFFFF8
7FFFFFFFFFFFF8
FFFFFFFFFFFFF8
FFFFFFFFFFFFF8
FFFFFFFFFFFFF8
FFFFFFFFFFFFF8
FFFFFFFFFFFFF8
7FFFFFFFFFFFF8
7FFFFFFFFFFFF8
7FFE0000000000
7FFE0000000000
7FFE0000000000
7FFE0000000000
7FFF0000000000
7FFF0000000000
3FFF0000000000
3FFF800007FFF0
3FFF800007FFF0
1FFFC0000FFFF0
1FFFE0000FFFE0
1FFFF8003FFFE0
0FFFFE00FFFFC0
0FFFFFFFFFFFC0
07FFFFFFFFFF80
03FFFFFFFFFF00
01FFFFFFFFFF00
01FFFFFFFFFE00
00FFFFFFFFFC00
003FFFFFFFF800
001FFFFFFFE000
000FFFFFFFC000
0003FFFFFF0000
00007FFFF80000
000007FF800000
ENDCHAR
STARTCHAR edieresis
ENCODING 235
SWIDTH 556 0
DWIDTH 58 0
BBX 53 77 2 -1
BITMAP
003FFE01FFF000
003FFE01FFF000
003FFE01FFF000
003FFE01FFF000
003FFE01FFF000
003FFE01FFF000
003FFE01FFF000
003FFE01FFF000
003FFE01FFF000
003FFE01FFF000
003FFE01FFF000
003FFE01FFF000
00000000000000
00000000000000
00000000000000
00000000000000
00000000000000
00000000000000
00000000000000
000007FF800000
00007FFFF80000
0003FFFFFE0000
000FFFFFFF8000
001FFFFFFFE000
003FFFFFFFF000
007FFFFFFFF800
00FFFFFFFFFC00
01FFFFFFFFFE00
03FFFFFFFFFE00
07FFFFFFFFFF00
07FFFFFFFFFF80
0FFFFE03FFFF80
0FFFF800FFFFC0
1FFFE0003FFFC0
1FFFC0001FFFE0
3FFFC0000FFFE0
3FFF80000FFFE0
3FFF800007FFF0
7FFF000007FFF0
7FFF000007FFF0
7FFF000003FFF0
7FFF000003FFF0
7FFE000003FFF8
7FFFFFFFFFFFF8
7FFFFFFFFFFFF8
FFFFFFFFFFFFF8
FFFFFFFFFFFFF8
FFFFFFFFFFFFF8
FFFFFFFFFFFFF8
FFFFFFFFFFFFF8
7FFFFFFFFFFFF8
7FFFFFFFFFFFF8
7FFE0000000000
7FFE0000000000
7FFE0000000000
7FFE0000000000
7FFF0000000000
7FFF0000000000
3FFF0000000000
3FFF800007FFF0
3FFF800007FFF0
1FFFC0000FFFF0
1FFFE0000FFFE0
1FFFF8003FFFE0
0FFFFE00FFFFC0
0FFFFFFFFFFFC0
07FFFFFFFFFF80
03FFFFFFFFFF00
01FFFFFFFFFF00
01FFFFFFFFFE00
00FFFFFFFFFC00
003FFFFFFFF800
001FFFFFFFE000
000FFFFFFFC000
0003FFFFFF0000
00007FFFF80000
000007FF800000
ENDCHAR
STARTCHAR igrave
ENCODING 236
SWIDTH 278 0
DWIDTH 29 0
BBX 27 78 -5 0
BITMAP
FFFF0000
7FFF8000
3FFF8000
1FFFC000
0FFFE000
07FFE000
03FFF000
01FFF800
00FFF800
007FFC00
003FFE00
001FFE00
000FFF00
0007FF80
0003FF80
00000000
00000000
00000000
00000000
00000000
00000000
00000000
00000000
000FFFE0
000FFFE0
000FFFE0
000FFFE0
000FFFE0
000FFFE0
000FFFE0
000FFFE0
000FFFE0
000FFFE0
000FFFE0
000FFFE0
000FFFE0
000FFFE0
000FFFE0
000FFFE0
000FFFE0
000FFFE0
000FFFE0
000FFFE0
000FFFE0
000FFFE0
000FFFE0
000FFFE0
000FFFE0
000FFFE0
000FFFE0
000FFFE0
000FFFE0
000FFFE0
000FFFE0
000FFFE0
000FFFE0
000FFFE0
000FFFE0
000FFFE0
000FFFE0
000FFFE0
000FFFE0
000FFFE0
000FFFE0
000FFFE0
000FFFE0
000FFFE0
000FFFE0
000FFFE0
000FFFE0
000FFFE0
000FFFE0
000FFFE0
000FFFE0
000FFFE0
000FFFE0
000FFFE0
000FFFE0
ENDCHAR
STARTCHAR iacute
ENCODING 237
SWIDTH 278 0
DWIDTH 29 0
BBX 27 78 7 0
BITMAP
001FFFE0
003FFFC0
003FFF80
007FFF00
00FFFE00
00FFFC00
01FFF800
03FFF000
03FFE000
07FFC000
0FFF8000
0FFF0000
1FFE0000
1FFC0000
3FF80000
00000000
00000000
00000000
00000000
00000000
00000000
00000000
00000000
FFFE0000
FFFE0000
FFFE0000
FFFE0000
FFFE0000
FFFE0000
FFFE0000
FFFE0000
FFFE0000
FFFE0000
FFFE0000
FFFE0000
FFFE0000
FFFE0000
FFFE0000
FFFE0000
FFFE0000
FFFE0000
FFFE0000
FFFE0000
FFFE0000
FFFE0000
FFFE0000
FFFE0000
FFFE0000
FFFE0000
FFFE0000
FFFE0000
FFFE0000
FFFE0000
FFFE0000
FFFE0000
FFFE0000
FFFE0000
FFFE0000
FFFE0000
FFFE0000
FFFE0000
FFFE0000
FFFE0000
FFFE0000
FFFE0000
FFFE0000
FFFE0000
FFFE0000
FFFE0000
FFFE0000
FFFE0000
FFFE0000
FFFE0000
FFFE0000
FFFE0000
FFFE0000
FFFE0000
FFFE0000
ENDCHAR
STARTCHAR icircumflex
ENCODING 238
SWIDTH 278 0
DWIDTH 29 0
BBX 35 78 -3 0
BITMAP
001FFF0000
003FFF8000
007FFFC000
00FFFFE000
01FFFFF000
01FFFFF000
03FFFFF800
07FFBFFC00
0FFF1FFE00
0FFE0FFE00
1FFC0FFF00
3FFC07FF80
7FF803FFC0
FFF001FFE0
FFE000FFE0
0000000000
0000000000
0000000000
0000000000
0000000000
0000000000
0000000000
0000000000
003FFF8000
003FFF8000
003FFF8000
003FFF8000
003FFF8000
003FFF8000
003FFF8000
003FFF8000
003FFF8000
003FFF8000
003FFF8000
003FFF8000
003FFF8000
003FFF8000
003FFF8000
003FFF8000
003FFF8000
003FFF8000
003FFF8000
003FFF8000
003FFF8000
003FFF8000
003FFF8000
003FFF8000
003FFF8000
003FFF8000
003FFF8000
003FFF8000
003FFF8000
003FFF8000
003FFF8000
003FFF8000
003FFF8000
003FFF8000
003FFF8000
003FFF8000
003FFF8000
003FFF8000
003FFF8000
003FFF8000
003FFF8000
003FFF8000
003FFF8000
003FFF8000
003FFF8000
003FFF8000
003FFF8000
003FFF8000
003FFF8000
003FFF8000
003FFF8000
003FFF8000
003FFF8000
003FFF8000
003FFF8000
ENDCHAR
ENDFONT
